<?xml version="1.0" standalone="no"?>
<!DOCTYPE svg PUBLIC "-//W3C//DTD SVG 1.1//EN" "http://www.w3.org/Graphics/SVG/1.1/DTD/svg11.dtd" >
<svg xmlns="http://www.w3.org/2000/svg" xmlns:xlink="http://www.w3.org/1999/xlink" version="1.1">
<metadata>
Created by FontForge 20170731 at Sun Dec 18 23:00:28 2016
 By Aleksey,,,
Copyright (c) 2014 by Type Dynamic. All rights reserved.
</metadata>
<defs>
<font id="Sailec-Bold" horiz-adv-x="602" >
  <font-face 
    font-family="Sailec"
    font-weight="700"
    font-stretch="normal"
    units-per-em="1000"
    panose-1="0 0 8 0 0 0 0 0 0 0"
    ascent="750"
    descent="-250"
    x-height="517"
    cap-height="748"
    bbox="-216 -378 1258 1079"
    underline-thickness="50"
    underline-position="-200"
    unicode-range="U+000D-FB02"
  />
<missing-glyph horiz-adv-x="735" 
d="M668 0h-601v748h601v-748zM260 645l110 -179l109 179h-219zM177 179l125 193l-125 193v-386zM438 372l120 -186v373zM262 103h215l-107 176z" />
    <glyph glyph-name="fi" unicode="fi" horiz-adv-x="670" 
d="M314 783q28 0 51 -3v-126q-18 2 -34 2q-38 0 -62.5 -22.5t-24.5 -59.5v-57h120v-126h-120v-391h-145v391h-94v126h94v53q0 97 58.5 155t156.5 58zM525 774q37 0 62.5 -25.5t25.5 -62.5q0 -36 -25.5 -61.5t-62.5 -25.5t-62 25.5t-25 61.5t26 62t61 26zM598 0h-146v517h146
v-517z" />
    <glyph glyph-name="f_j" unicode="fj" horiz-adv-x="670" 
d="M314 783q28 0 51 -3v-126q-18 2 -34 2q-38 0 -62.5 -22.5t-24.5 -59.5v-57h120v-126h-120v-391h-145v391h-94v126h94v53q0 97 58.5 155t156.5 58zM525 774q37 0 62.5 -25.5t25.5 -62.5q0 -36 -25.5 -61.5t-62.5 -25.5t-62 25.5t-25 61.5q0 37 25 62.5t62 25.5zM599 517
v-567q0 -97 -58.5 -154.5t-155.5 -57.5q-29 0 -51 3v127q14 -3 34 -3q38 0 61.5 22.5t23.5 59.5v570h146z" />
    <glyph glyph-name=".notdef" horiz-adv-x="735" 
d="M668 0h-601v748h601v-748zM260 645l110 -179l109 179h-219zM177 179l125 193l-125 193v-386zM438 372l120 -186v373zM262 103h215l-107 176z" />
    <glyph glyph-name=".null" horiz-adv-x="0" 
 />
    <glyph glyph-name="nonmarkingreturn" horiz-adv-x="333" 
 />
    <glyph glyph-name="CR" unicode="&#xd;" horiz-adv-x="600" 
 />
    <glyph glyph-name="space" unicode=" " horiz-adv-x="226" 
 />
    <glyph glyph-name="exclam" unicode="!" horiz-adv-x="324" 
d="M238 228h-154l-8 520h171zM161 166q37 0 63 -26t26 -63t-26 -62.5t-63 -25.5t-62.5 25.5t-25.5 62.5t25.5 63t62.5 26z" />
    <glyph glyph-name="quotedbl" unicode="&#x22;" horiz-adv-x="419" 
d="M166 473h-111l-14 282h140zM364 473h-112l-14 282h140z" />
    <glyph glyph-name="numbersign" unicode="#" horiz-adv-x="669" 
d="M557 563h106l-28 -116h-106l-36 -151h108l-27 -116h-108l-43 -180h-122l43 180h-112l-42 -180h-123l43 180h-104l27 116h105l35 151h-106l28 116h106l45 185h122l-45 -185h111l45 185h122zM295 447l-35 -151h111l36 151h-112z" />
    <glyph glyph-name="dollar" unicode="$" horiz-adv-x="663" 
d="M620 218q0 -100 -61.5 -157t-161.5 -69v-110h-121v112q-105 15 -167.5 76t-63.5 159l157 8q2 -51 42 -82.5t101 -31.5q118 0 118 86q0 40 -35.5 61t-118.5 42q-60 15 -97 28.5t-75.5 38t-56.5 62t-18 89.5q0 87 55 149.5t159 76.5v109h121v-112q94 -16 150 -75t58 -149
l-158 -8q-1 48 -32 76t-84 28q-52 0 -81.5 -24.5t-29.5 -65.5q0 -40 31 -58.5t115 -38.5q129 -33 191.5 -80t62.5 -140z" />
    <glyph glyph-name="percent" unicode="%" horiz-adv-x="892" 
d="M208 759q77 0 126.5 -51.5t49.5 -136.5q0 -84 -49.5 -136t-126.5 -52t-127 52t-50 136q0 85 50 136.5t127 51.5zM270 0h-141l493 748h141zM208 657q-32 0 -51 -22.5t-19 -63.5q0 -40 19 -63.5t51 -23.5q31 0 50 23t19 64t-18.5 63.5t-50.5 22.5zM685 365q77 0 126.5 -51
t49.5 -136t-49.5 -137t-126.5 -52t-127 52t-50 137q0 84 49.5 135.5t127.5 51.5zM685 264q-32 0 -51 -23t-19 -63q0 -41 19 -64t51 -23t50.5 23t18.5 64q0 40 -18.5 63t-50.5 23z" />
    <glyph glyph-name="ampersand" unicode="&#x26;" horiz-adv-x="720" 
d="M648 -11l-117 98q-91 -97 -227 -97q-128 0 -196.5 61t-68.5 155q0 67 30 115t87 89q-59 68 -59 140q0 101 63.5 155t168.5 54q93 0 156 -50.5t76 -139.5l-149 -12q-11 74 -83 74q-37 0 -57.5 -20.5t-20.5 -58.5q0 -23 14.5 -46.5t24.5 -33t44 -37.5q6 -6 10 -9l158 -132
q19 47 37 119l136 -35q-26 -96 -64 -175l123 -103zM306 121q69 0 122 53l-181 152q-51 -41 -51 -106q0 -46 29.5 -72.5t80.5 -26.5z" />
    <glyph glyph-name="quotesingle" unicode="'" horiz-adv-x="222" 
d="M166 473h-111l-14 282h140z" />
    <glyph glyph-name="parenleft" unicode="(" horiz-adv-x="298" 
d="M156 735l126 -44q-100 -173 -100 -371t100 -371l-126 -44q-119 179 -119 415t119 415z" />
    <glyph glyph-name="parenright" unicode=")" horiz-adv-x="298" 
d="M17 691l126 44q119 -182 119 -415t-119 -415l-126 44q99 175 99 371t-99 371z" />
    <glyph glyph-name="asterisk" unicode="*" horiz-adv-x="369" 
d="M222 642l115 40l25 -76l-116 -37l73 -95l-65 -48l-69 99l-70 -100l-65 49l73 95l-116 37l25 76l115 -40l-3 122h81z" />
    <glyph glyph-name="plus" unicode="+" horiz-adv-x="548" 
d="M345 436h172v-132h-172v-178h-142v178h-172v132h172v176h142v-176z" />
    <glyph glyph-name="comma" unicode="," horiz-adv-x="244" 
d="M124 166q38 0 60 -27t22 -71q0 -151 -153 -229v61q52 33 67 90q-35 2 -58.5 27t-23.5 60q0 37 24.5 63t61.5 26z" />
    <glyph glyph-name="hyphen" unicode="-" horiz-adv-x="406" 
d="M361 194h-316v136h316v-136z" />
    <glyph glyph-name="period" unicode="." horiz-adv-x="253" 
d="M126 166q37 0 63 -26t26 -63t-26 -62.5t-63 -25.5t-62.5 25.5t-25.5 62.5t25.5 63t62.5 26z" />
    <glyph glyph-name="slash" unicode="/" horiz-adv-x="421" 
d="M160 -67h-153l255 815h152z" />
    <glyph glyph-name="zero" unicode="0" horiz-adv-x="651" 
d="M326 759q128 0 205.5 -101t77.5 -284q0 -182 -77.5 -283.5t-205.5 -101.5q-129 0 -206.5 101.5t-77.5 283.5q0 183 77.5 284t206.5 101zM326 622q-127 0 -127 -248t127 -248q126 0 126 248t-126 248z" />
    <glyph glyph-name="one" unicode="1" horiz-adv-x="393" 
d="M317 0h-154v554l-95 -67l-68 122l204 139h113v-748z" />
    <glyph glyph-name="two" unicode="2" horiz-adv-x="542" 
d="M278 759q109 0 169 -55.5t60 -157.5q0 -83 -34.5 -146t-99.5 -132l-123 -131h261v-137h-462v121l206 227q57 61 77 99.5t20 91.5q0 39 -18.5 61t-52.5 22q-77 0 -79 -105l-154 9q2 109 62 171t168 62z" />
    <glyph glyph-name="three" unicode="3" horiz-adv-x="568" 
d="M281 759q110 0 171 -59t61 -160t-82 -154q42 -16 68.5 -59.5t26.5 -104.5q0 -108 -67 -170.5t-177 -62.5q-116 0 -180 61t-67 167l154 9q5 -100 92 -100q43 0 66.5 26t23.5 73q0 46 -27 70t-72 24h-77v132h75q39 0 63.5 23.5t24.5 63.5q0 84 -77 84q-38 0 -59.5 -24
t-23.5 -69l-153 8q2 104 63.5 163t172.5 59z" />
    <glyph glyph-name="four" unicode="4" horiz-adv-x="603" 
d="M469 268h111v-137h-111v-131h-139v131h-303v127l320 490h122v-480zM184 268h145v221z" />
    <glyph glyph-name="five" unicode="5" horiz-adv-x="570" 
d="M300 475q102 0 166 -62t64 -175q0 -114 -67.5 -181.5t-182.5 -67.5q-112 0 -176 59t-67 159l154 9q2 -42 25 -66t65 -24q45 0 69.5 29.5t24.5 78.5t-24 76.5t-66 27.5q-44 0 -80 -26h-143v436h439v-136h-285v-154q36 17 84 17z" />
    <glyph glyph-name="six" unicode="6" horiz-adv-x="608" 
d="M525 748l-186 -259q102 -10 166 -78t64 -171q0 -113 -74 -182t-189 -69q-116 0 -190.5 69t-74.5 182q0 82 55 161l244 347h185zM305 126q48 0 78 32.5t30 86.5q0 55 -29.5 86t-78.5 31q-57 0 -86 -40q-21 -28 -21 -77q0 -54 29.5 -86.5t77.5 -32.5z" />
    <glyph glyph-name="seven" unicode="7" horiz-adv-x="541" 
d="M511 624l-292 -624h-169l292 612h-323v136h492v-124z" />
    <glyph glyph-name="eight" unicode="8" horiz-adv-x="615" 
d="M306 759q106 0 174.5 -57t68.5 -154q0 -96 -72 -148q91 -61 91 -178q0 -107 -73.5 -170t-187.5 -63t-187.5 63t-73.5 170q0 116 90 177q-71 52 -71 149t67.5 154t173.5 57zM307 622q-38 0 -63 -23t-25 -62q0 -37 25 -59.5t63 -22.5q39 0 63.5 22t24.5 60q0 40 -24.5 62.5
t-63.5 22.5zM307 331q-47 0 -77 -27.5t-30 -74.5t30.5 -75t76.5 -28q47 0 77 27.5t30 75.5t-30 75t-77 27z" />
    <glyph glyph-name="nine" unicode="9" horiz-adv-x="608" 
d="M302 759q116 0 190.5 -69t74.5 -182q0 -82 -55 -161l-244 -347h-185l186 259q-102 10 -166 78t-64 171q0 113 74 182t189 69zM303 386q57 0 86 40q21 28 21 77q0 54 -29.5 86.5t-77.5 32.5t-78 -32.5t-30 -86.5q0 -55 29.5 -86t78.5 -31z" />
    <glyph glyph-name="colon" unicode=":" horiz-adv-x="253" 
d="M118 527q37 0 63 -26t26 -63q0 -36 -26 -61.5t-63 -25.5t-62.5 25.5t-25.5 61.5q0 37 25.5 63t62.5 26zM118 166q37 0 63 -26t26 -63t-26 -62.5t-63 -25.5t-62.5 25.5t-25.5 62.5t25.5 63t62.5 26z" />
    <glyph glyph-name="semicolon" unicode=";" horiz-adv-x="253" 
d="M118 351q-37 0 -62.5 25.5t-25.5 61.5q0 37 25.5 63t62.5 26t63 -26t26 -63q0 -36 -26 -61.5t-63 -25.5zM124 166q38 0 60 -27t22 -71q0 -151 -153 -229v61q52 33 67 90q-35 2 -58.5 27t-23.5 60q0 37 24.5 63t61.5 26z" />
    <glyph glyph-name="less" unicode="&#x3c;" horiz-adv-x="538" 
d="M507 470l-193 -101l193 -101v-166l-478 267l478 266v-165z" />
    <glyph glyph-name="equal" unicode="=" horiz-adv-x="548" 
d="M517 424h-486v137h486v-137zM517 179h-486v137h486v-137z" />
    <glyph glyph-name="greater" unicode="&#x3e;" horiz-adv-x="538" 
d="M509 369l-478 -267v166l193 101l-193 101v165z" />
    <glyph glyph-name="question" unicode="?" horiz-adv-x="535" 
d="M268 760q115 0 182.5 -61.5t67.5 -165.5q0 -39 -15.5 -72t-33.5 -51t-49 -43q-40 -31 -57.5 -53.5t-17.5 -53.5v-32h-154v38q0 44 24.5 78t71.5 74q37 31 55.5 56t18.5 57q0 43 -25 68t-68 25q-44 0 -70 -26.5t-28 -73.5l-154 10q4 103 73 164.5t179 61.5zM267 166
q37 0 63 -26t26 -63t-26 -62.5t-63 -25.5q-36 0 -61.5 25.5t-25.5 62.5t25.5 63t61.5 26z" />
    <glyph glyph-name="at" unicode="@" horiz-adv-x="803" 
d="M401 607q158 0 261 -102t103 -258q0 -103 -42.5 -156t-117.5 -53q-77 0 -103 51q-48 -54 -127 -54q-85 0 -138 58t-53 153q0 96 53 154t138 58q80 0 117 -46v31h106v-290q0 -39 35 -39q28 0 45 34t17 99q0 126 -84 210t-210 84q-127 0 -210 -84t-83 -210
q0 -130 84.5 -211.5t202.5 -81.5q104 0 179 44l23 -65q-82 -46 -202 -46q-151 0 -254 101t-103 259q0 156 102.5 258t260.5 102zM487 238v17q0 49 -25.5 76.5t-68.5 27.5q-44 0 -69.5 -29.5t-25.5 -83.5q0 -53 26 -83t69 -30t68.5 28t25.5 77z" />
    <glyph glyph-name="A" unicode="A" horiz-adv-x="789" 
d="M781 0h-170l-61 144h-311l-62 -144h-169l321 748h130zM294 270h202l-101 239z" />
    <glyph glyph-name="B" unicode="B" horiz-adv-x="706" 
d="M75 748h313q106 0 169.5 -53t63.5 -155q0 -98 -73 -147q46 -18 75 -63t29 -112q0 -105 -66 -161.5t-176 -56.5h-335v748zM229 612v-164h149q86 0 86 81q0 41 -25 62t-69 21h-141zM229 317v-180h163q102 0 102 89q0 46 -27.5 68.5t-72.5 22.5h-165z" />
    <glyph glyph-name="C" unicode="C" horiz-adv-x="826" 
d="M429 759q138 0 236.5 -77t118.5 -208l-161 -14q-16 78 -68.5 120t-130.5 42q-99 0 -158.5 -67.5t-59.5 -180.5q0 -118 61.5 -183t157.5 -65q78 0 130.5 41t67.5 118l162 -14q-21 -130 -119 -206t-236 -76q-168 0 -274.5 104t-106.5 281q0 178 106 281.5t274 103.5z" />
    <glyph glyph-name="D" unicode="D" horiz-adv-x="803" 
d="M75 748h308q163 0 267 -100.5t104 -273.5t-104 -273.5t-268 -100.5h-307v748zM229 616v-484h155q100 0 158.5 62t58.5 180t-58 180t-159 62h-155z" />
    <glyph glyph-name="E" unicode="E" 
d="M555 612h-325v-162h282v-133h-282v-180h326v-137h-481v748h480v-136z" />
    <glyph glyph-name="F" unicode="F" horiz-adv-x="588" 
d="M555 612h-325v-162h265v-136h-265v-314h-155v748h480v-136z" />
    <glyph glyph-name="G" unicode="G" horiz-adv-x="834" 
d="M785 408v-50q0 -167 -96.5 -268t-259.5 -101q-167 0 -273.5 104t-106.5 281q0 178 106 281.5t273 103.5q132 0 226 -68t124 -189l-160 -27q-16 69 -65.5 108t-125.5 39q-103 0 -162 -63t-59 -185t59 -185t162 -63q73 0 122.5 36t66.5 110h-188v136h357z" />
    <glyph glyph-name="H" unicode="H" horiz-adv-x="762" 
d="M687 0h-154v315h-303v-315h-155v748h155v-296h303v296h154v-748z" />
    <glyph glyph-name="I" unicode="I" horiz-adv-x="305" 
d="M230 0h-155v748h155v-748z" />
    <glyph glyph-name="J" unicode="J" horiz-adv-x="614" 
d="M544 748v-481q0 -131 -70 -204.5t-193 -73.5q-116 0 -186 66.5t-77 185.5l155 25q4 -67 32 -103.5t77 -36.5q108 0 108 136v486h154z" />
    <glyph glyph-name="K" unicode="K" horiz-adv-x="721" 
d="M425 442l287 -442h-182l-208 318l-92 -111v-207h-155v748h155v-309l254 309h198z" />
    <glyph glyph-name="L" unicode="L" horiz-adv-x="591" 
d="M230 137h326v-137h-481v748h155v-611z" />
    <glyph glyph-name="M" unicode="M" horiz-adv-x="974" 
d="M898 0h-153v404l-206 -396h-102l-207 396v-404h-155v748h137l276 -514l274 514h136v-748z" />
    <glyph glyph-name="N" unicode="N" horiz-adv-x="764" 
d="M689 0h-131l-328 463v-463h-155v748h131l329 -464v464h154v-748z" />
    <glyph glyph-name="O" unicode="O" horiz-adv-x="875" 
d="M438 759q170 0 279 -105.5t109 -279.5t-109 -279.5t-279 -105.5q-171 0 -280 105.5t-109 279.5t109 279.5t280 105.5zM438 622q-104 0 -168 -66.5t-64 -181.5q0 -114 64 -181t168 -67q103 0 166.5 67t63.5 181q0 115 -63.5 181.5t-166.5 66.5z" />
    <glyph glyph-name="P" unicode="P" horiz-adv-x="667" 
d="M75 748h324q109 0 175 -64t66 -177t-66 -177t-175 -64h-169v-266h-155v748zM229 612v-209h150q46 0 75 27t29 77t-29 77.5t-75 27.5h-150z" />
    <glyph glyph-name="Q" unicode="Q" horiz-adv-x="879" 
d="M761 -78l-118 117q-92 -50 -205 -50q-171 0 -280 105.5t-109 279.5t109 279.5t280 105.5q170 0 279 -105.5t109 -279.5q0 -135 -69 -232l112 -110zM438 126q52 0 98 19l-113 112l108 108l113 -112q24 53 24 121q0 115 -63.5 181.5t-166.5 66.5q-104 0 -168 -66.5
t-64 -181.5q0 -114 64 -181t168 -67z" />
    <glyph glyph-name="R" unicode="R" horiz-adv-x="707" 
d="M501 0l-146 269h-125v-269h-155v748h320q109 0 175 -63.5t66 -176.5q0 -77 -31.5 -131.5t-88.5 -82.5l159 -294h-174zM229 406h147q46 0 74.5 27t28.5 75q0 50 -28.5 77t-74.5 27h-147v-206z" />
    <glyph glyph-name="S" unicode="S" horiz-adv-x="663" 
d="M328 759q123 0 198.5 -61.5t78.5 -168.5l-158 -8q-1 48 -32 76t-84 28q-52 0 -81.5 -24.5t-29.5 -65.5q0 -40 31 -58.5t115 -38.5q129 -33 191.5 -80t62.5 -140q0 -113 -77.5 -171t-197.5 -58q-133 0 -216 63t-84 177l157 8q2 -51 42 -82.5t101 -31.5q118 0 118 86
q0 40 -35.5 61t-118.5 42q-60 15 -97 28.5t-75.5 38t-56.5 62t-18 89.5q0 98 69 163.5t197 65.5z" />
    <glyph glyph-name="T" unicode="T" horiz-adv-x="693" 
d="M674 612h-250v-612h-154v612h-251v136h655v-136z" />
    <glyph glyph-name="U" unicode="U" horiz-adv-x="777" 
d="M707 748v-444q0 -149 -85 -232t-233 -83q-149 0 -234 83t-85 232v444h154v-442q0 -88 42 -134t123 -46q80 0 122 46t42 134v442h154z" />
    <glyph glyph-name="V" unicode="V" horiz-adv-x="783" 
d="M457 0h-130l-315 748h169l211 -508l210 508h170z" />
    <glyph glyph-name="W" unicode="W" horiz-adv-x="1125" 
d="M852 0h-130l-159 474l-159 -474h-131l-261 748h168l160 -486l159 486h127l160 -486l159 486h168z" />
    <glyph glyph-name="X" unicode="X" horiz-adv-x="727" 
d="M478 380l231 -380h-179l-166 278l-167 -278h-179l231 380l-218 368h178l155 -265l154 265h178z" />
    <glyph glyph-name="Y" unicode="Y" horiz-adv-x="744" 
d="M450 288v-288h-154v288l-284 460h179l181 -307l181 307h180z" />
    <glyph glyph-name="Z" unicode="Z" horiz-adv-x="626" 
d="M582 631l-348 -494h358v-137h-555v117l346 495h-341v136h540v-117z" />
    <glyph glyph-name="bracketleft" unicode="[" horiz-adv-x="307" 
d="M287 597h-89v-553h89v-121h-234v795h234v-121z" />
    <glyph glyph-name="backslash" unicode="\" horiz-adv-x="421" 
d="M414 -67h-152l-255 815h152z" />
    <glyph glyph-name="bracketright" unicode="]" horiz-adv-x="307" 
d="M255 -77h-234v121h88v553h-88v121h234v-795z" />
    <glyph glyph-name="asciicircum" unicode="^" horiz-adv-x="596" 
d="M569 372h-165l-106 167l-106 -167h-165l271 394z" />
    <glyph glyph-name="underscore" unicode="_" horiz-adv-x="688" 
d="M643 -137h-598v137h598v-137z" />
    <glyph glyph-name="grave" unicode="`" horiz-adv-x="268" 
d="M258 598h-113l-136 191h166z" />
    <glyph glyph-name="a" unicode="a" horiz-adv-x="557" 
d="M274 527q105 0 160 -53t55 -155v-319h-141v42q-51 -53 -132 -53q-80 0 -126 39.5t-46 113.5q0 148 207 157l92 5v20q0 80 -67 80q-35 0 -53.5 -20t-18.5 -48l-146 6q0 72 60.5 128.5t155.5 56.5zM343 208l-78 -5q-75 -3 -75 -54q0 -47 60 -47q41 0 67 22t26 62v22z" />
    <glyph glyph-name="b" unicode="b" horiz-adv-x="657" 
d="M218 777v-305q48 55 145 55q111 0 180.5 -74t69.5 -195t-69.5 -195t-180.5 -74q-51 0 -91 18t-62 46v-53h-138v777h146zM340 402q-55 0 -88.5 -35.5t-33.5 -96.5v-23q0 -62 33.5 -97t88.5 -35q56 0 90.5 37.5t34.5 105.5t-34.5 106t-90.5 38z" />
    <glyph glyph-name="c" unicode="c" horiz-adv-x="592" 
d="M309 527q96 0 163.5 -54t81.5 -146l-143 -12q-5 40 -32.5 63.5t-69.5 23.5q-52 0 -84.5 -38t-32.5 -106q0 -67 32.5 -105t84.5 -38q43 0 70 22.5t33 61.5l142 -13q-15 -91 -82 -144t-163 -53q-117 0 -191 72.5t-74 196.5q0 125 74 197t191 72z" />
    <glyph glyph-name="d" unicode="d" horiz-adv-x="657" 
d="M584 0h-137v53q-22 -28 -62 -46t-92 -18q-110 0 -179.5 74t-69.5 195t69.5 195t179.5 74q98 0 146 -55v305h145v-777zM317 402q-56 0 -90.5 -38t-34.5 -106t34.5 -105.5t90.5 -37.5q55 0 88.5 35t33.5 97v23q0 61 -33.5 96.5t-88.5 35.5z" />
    <glyph glyph-name="e" unicode="e" horiz-adv-x="598" 
d="M554 212h-355q2 -49 30.5 -77t77.5 -28q78 0 95 57l147 -7q-14 -74 -80.5 -121t-157.5 -47q-120 0 -193.5 73t-73.5 196q0 124 73 196.5t190 72.5q113 0 180 -68.5t67 -188.5v-58zM306 413q-47 0 -75.5 -27.5t-31.5 -76.5h208q-2 49 -27.5 76.5t-73.5 27.5z" />
    <glyph glyph-name="f" unicode="f" horiz-adv-x="380" 
d="M314 783q28 0 51 -3v-126q-18 2 -34 2q-38 0 -62.5 -22.5t-24.5 -59.5v-57h120v-126h-120v-391h-145v391h-94v126h94v53q0 97 58.5 155t156.5 58z" />
    <glyph glyph-name="g" unicode="g" horiz-adv-x="648" 
d="M293 527q106 0 154 -64v54h137v-536q0 -112 -71 -179t-190 -67q-117 0 -184 53.5t-82 145.5l145 5q5 -38 36 -59t80 -21q56 0 88.5 28.5t32.5 82.5v74q-51 -55 -146 -55q-110 0 -179.5 74t-69.5 195t69.5 195t179.5 74zM317 402q-56 0 -90.5 -38t-34.5 -106t34.5 -106
t90.5 -38q55 0 88.5 35.5t33.5 96.5v24q0 61 -33.5 96.5t-88.5 35.5z" />
    <glyph glyph-name="h" unicode="h" horiz-adv-x="616" 
d="M218 777v-304q42 54 131 54q91 0 146.5 -56t55.5 -155v-316h-146v288q0 49 -24.5 76t-66.5 27q-43 0 -69.5 -28.5t-26.5 -75.5v-287h-146v777h146z" />
    <glyph glyph-name="i" unicode="i" horiz-adv-x="291" 
d="M145 774q37 0 62.5 -25.5t25.5 -62.5q0 -36 -25.5 -61.5t-62.5 -25.5t-62 25.5t-25 61.5t26 62t61 26zM218 0h-146v517h146v-517z" />
    <glyph glyph-name="j" unicode="j" horiz-adv-x="291" 
d="M145 774q37 0 62.5 -25.5t25.5 -62.5q0 -36 -25.5 -61.5t-62.5 -25.5t-62 25.5t-25 61.5q0 37 25 62.5t62 25.5zM219 517v-567q0 -97 -58.5 -154.5t-155.5 -57.5q-28 0 -51 3v127q13 -3 34 -3q38 0 61.5 22.5t23.5 59.5v570h146z" />
    <glyph glyph-name="k" unicode="k" horiz-adv-x="582" 
d="M218 333l167 184h177l-195 -221l209 -296h-177l-135 187l-46 -50v-137h-146v777h146v-444z" />
    <glyph glyph-name="l" unicode="l" horiz-adv-x="291" 
d="M218 0h-146v777h146v-777z" />
    <glyph glyph-name="m" unicode="m" horiz-adv-x="930" 
d="M667 527q89 0 142.5 -56.5t53.5 -153.5v-317h-146v288q0 50 -22 76.5t-64 26.5q-38 0 -61.5 -23t-28.5 -63v-305h-146v288q0 49 -22 76t-62 27q-43 0 -68 -28.5t-25 -75.5v-287h-146v517h138v-53q40 63 136 63q109 0 162 -82q52 82 159 82z" />
    <glyph glyph-name="n" unicode="n" horiz-adv-x="618" 
d="M349 527q91 0 146.5 -56t55.5 -155v-316h-146v288q0 49 -24.5 76t-66.5 27q-43 0 -69.5 -28.5t-26.5 -75.5v-287h-146v517h138v-53q40 63 139 63z" />
    <glyph glyph-name="o" unicode="o" horiz-adv-x="638" 
d="M319 527q120 0 197.5 -74t77.5 -195q0 -120 -77.5 -194.5t-197.5 -74.5t-197.5 74.5t-77.5 194.5q0 121 77.5 195t197.5 74zM319 402q-57 0 -92 -38.5t-35 -105.5t35 -105t92 -38t92 38t35 105t-35 105.5t-92 38.5z" />
    <glyph glyph-name="p" unicode="p" horiz-adv-x="657" 
d="M363 527q111 0 180.5 -74t69.5 -195t-69.5 -195t-180.5 -74q-95 0 -145 55v-299h-146v772h138v-54q48 64 153 64zM340 402q-55 0 -88.5 -35.5t-33.5 -96.5v-24q0 -61 33.5 -96.5t88.5 -35.5q56 0 90.5 38t34.5 106t-34.5 106t-90.5 38z" />
    <glyph glyph-name="q" unicode="q" horiz-adv-x="657" 
d="M293 527q106 0 154 -64v54h137v-772h-145v299q-49 -55 -146 -55q-110 0 -179.5 74t-69.5 195t69.5 195t179.5 74zM317 402q-56 0 -90.5 -38t-34.5 -106t34.5 -106t90.5 -38q55 0 88.5 35.5t33.5 96.5v24q0 61 -33.5 96.5t-88.5 35.5z" />
    <glyph glyph-name="r" unicode="r" horiz-adv-x="378" 
d="M355 522v-141q-63 0 -100 -32.5t-37 -86.5v-262h-146v517h141v-59q41 64 142 64z" />
    <glyph glyph-name="s" unicode="s" horiz-adv-x="506" 
d="M249 527q95 0 148.5 -46t60.5 -121l-145 -8q-3 63 -66 63q-59 0 -59 -44q0 -6 1 -11t4.5 -9t6.5 -7t10 -6t11.5 -5t14 -5t15.5 -4.5t18.5 -4.5t19.5 -5q89 -23 132.5 -55.5t43.5 -97.5q0 -80 -56 -126t-156 -46q-99 0 -155.5 43.5t-64.5 124.5l146 8q3 -64 75 -64
q30 0 47.5 12.5t17.5 34.5q0 23 -18.5 34t-75.5 25q-40 10 -62.5 17t-49 19.5t-39.5 27.5t-22.5 38.5t-9.5 54.5q0 75 55 119t152 44z" />
    <glyph glyph-name="t" unicode="t" horiz-adv-x="404" 
d="M251 391l-1 -192q0 -40 22 -59t56 -19q17 0 45 5v-130q-42 -6 -81 -6q-88 0 -138.5 43.5t-49.5 130.5l1 227h-94v126h95l1 171h146l-1 -171h121v-126h-122z" />
    <glyph glyph-name="u" unicode="u" 
d="M530 0h-138v52q-39 -63 -134 -63q-89 0 -140 54t-51 149v325h146v-294q0 -98 83 -98q41 0 64.5 27.5t23.5 72.5v292h146v-517z" />
    <glyph glyph-name="v" unicode="v" horiz-adv-x="573" 
d="M345 0h-117l-223 517h161l121 -304l120 304h161z" />
    <glyph glyph-name="w" unicode="w" horiz-adv-x="846" 
d="M643 0h-116l-104 274l-104 -274h-116l-198 517h160l101 -296l106 296h102l107 -296l101 296h160z" />
    <glyph glyph-name="x" unicode="x" horiz-adv-x="553" 
d="M378 261l164 -261h-167l-99 161l-98 -161h-166l161 261l-159 256h166l96 -158l96 158h166z" />
    <glyph glyph-name="y" unicode="y" horiz-adv-x="573" 
d="M236 -255h-159l132 301l-202 471h161l119 -308l118 308h162z" />
    <glyph glyph-name="z" unicode="z" horiz-adv-x="455" 
d="M414 420l-211 -302h219v-118h-388v96l212 303h-208v118h376v-97z" />
    <glyph glyph-name="braceleft" unicode="{" horiz-adv-x="303" 
d="M282 597h-6q-45 0 -58.5 -28.5t-2.5 -101.5q5 -39 4.5 -69.5t-18.5 -51.5t-54 -25q36 -4 54 -25.5t18.5 -52t-4.5 -69.5q-11 -73 2.5 -101.5t58.5 -28.5h6v-121h-6q-112 0 -170.5 60.5t-34.5 176.5q16 55 8 78t-54 23h-8v119h8q46 0 54 23t-8 78q-24 116 34.5 176.5
t170.5 60.5h6v-121z" />
    <glyph glyph-name="bar" unicode="|" horiz-adv-x="288" 
d="M217 -67h-146v815h146v-815z" />
    <glyph glyph-name="braceright" unicode="}" horiz-adv-x="303" 
d="M21 718h6q112 0 170.5 -60.5t34.5 -176.5q-16 -55 -8 -78t54 -23h8v-119h-8q-46 0 -54 -23t8 -78q24 -116 -34.5 -176.5t-170.5 -60.5h-6v121h6q45 0 58.5 28.5t2.5 101.5q-5 39 -4.5 69.5t18 52t53.5 25.5q-36 4 -53.5 25t-18 51.5t4.5 69.5q11 73 -2.5 101.5
t-58.5 28.5h-6v121z" />
    <glyph glyph-name="asciitilde" unicode="~" horiz-adv-x="544" 
d="M468 463l66 -96q-72 -93 -161 -93q-43 0 -99.5 28.5t-89.5 28.5q-35 0 -59.5 -11.5t-48.5 -40.5l-66 97q70 91 160 91q40 0 96 -28.5t92 -28.5q67 0 110 53z" />
    <glyph glyph-name="exclamdown" unicode="&#xa1;" horiz-adv-x="324" 
d="M163 334q-37 0 -63 26t-26 63t26 62.5t63 25.5q36 0 61.5 -25.5t25.5 -62.5t-25.5 -63t-61.5 -26zM85 272h154l8 -520h-170z" />
    <glyph glyph-name="cent" unicode="&#xa2;" horiz-adv-x="592" 
d="M309 115q43 0 70 22.5t33 61.5l142 -13q-13 -76 -63.5 -127t-125.5 -65v-112h-121v114q-91 18 -145.5 87t-54.5 175t54 175t146 88v106h121v-105q76 -15 126.5 -66t62.5 -129l-143 -12q-5 40 -32.5 63.5t-69.5 23.5q-52 0 -84.5 -38t-32.5 -106q0 -67 32.5 -105t84.5 -38
z" />
    <glyph glyph-name="sterling" unicode="&#xa3;" horiz-adv-x="566" 
d="M544 137v-137h-516v126q60 12 80 53.5t13 124.5v2h-94v121h83l-6 63q-13 128 42.5 198.5t173.5 70.5q103 0 158.5 -54.5t58.5 -151.5l-154 -8q0 36 -17 56.5t-49 20.5q-78 0 -69 -104l8 -91h150v-121h-138v-5q10 -104 -53 -164h329z" />
    <glyph glyph-name="currency" unicode="&#xa4;" horiz-adv-x="601" 
d="M489 252q0 -51 -18 -92l112 -112l-92 -91l-111 111q-34 -15 -79 -15q-41 0 -78 16l-113 -112l-92 91l113 113q-19 41 -19 91q0 49 19 92l-113 113l92 92l113 -113q37 16 78 16q40 0 78 -16l112 113l92 -92l-113 -113q19 -43 19 -92zM231 252q0 -46 18.5 -71t51.5 -25
q32 0 50.5 26t18.5 70q0 45 -18.5 70.5t-50.5 25.5t-51 -25.5t-19 -70.5z" />
    <glyph glyph-name="yen" unicode="&#xa5;" horiz-adv-x="744" 
d="M491 354h92v-90h-133v-66h133v-91h-133v-107h-154v107h-134v91h134v66h-134v90h93l-243 394h179l181 -307l181 307h180z" />
    <glyph glyph-name="brokenbar" unicode="&#xa6;" horiz-adv-x="288" 
d="M217 429h-146v319h146v-319zM217 -67h-146v319h146v-319z" />
    <glyph glyph-name="section" unicode="&#xa7;" horiz-adv-x="529" 
d="M431 260q59 -37 59 -116q0 -77 -60.5 -124.5t-163.5 -47.5q-108 0 -169 45t-61 123l146 6q0 -31 21.5 -49.5t63.5 -18.5q36 0 56.5 15t20.5 42q0 25 -21.5 38.5t-79.5 26.5q-109 23 -160.5 56.5t-51.5 103.5q0 75 69 119q-54 38 -54 113t57.5 121t154.5 46q102 0 159 -43
t58 -117l-145 -5q-2 58 -71 58q-67 0 -67 -53q0 -24 19.5 -36.5t74.5 -25.5q111 -23 161 -56.5t50 -102.5q0 -73 -66 -118zM165 374q0 -29 29.5 -43t103.5 -28l23 -5q21 15 31.5 29t10.5 36q0 30 -29 43.5t-104 27.5l-23 5q-42 -29 -42 -65z" />
    <glyph glyph-name="dieresis" unicode="&#xa8;" horiz-adv-x="371" 
d="M89 757q33 0 56.5 -23t23.5 -55q0 -33 -23.5 -56t-56.5 -23t-56 22.5t-23 56.5q0 32 23 55t56 23zM282 757q33 0 56 -23t23 -55q0 -34 -23 -56.5t-56 -22.5t-56 22.5t-23 56.5q0 32 23 55t56 23z" />
    <glyph glyph-name="copyright" unicode="&#xa9;" horiz-adv-x="595" 
d="M298 761q115 0 192.5 -73t77.5 -183t-77.5 -183t-192.5 -73q-117 0 -194 73t-77 183t77 183t194 73zM298 711q-95 0 -154.5 -58t-59.5 -148t59.5 -148t154.5 -58q94 0 153.5 58t59.5 148t-59.5 148t-153.5 58zM299 663q56 0 96 -31.5t48 -84.5l-83 -5q-9 51 -63 51
q-32 0 -51 -23.5t-19 -62.5q0 -40 20 -63t51 -23q24 0 41 13t21 37l83 -6q-9 -53 -48.5 -84t-95.5 -31q-67 0 -110.5 42.5t-43.5 114.5t43 114t111 42z" />
    <glyph glyph-name="ordfeminine" unicode="&#xaa;" horiz-adv-x="457" 
d="M225 757q181 0 181 -167v-257h-123v31q-37 -39 -111 -39q-66 0 -103.5 31.5t-37.5 89.5q0 117 180 128l65 4v21q0 24 -13.5 38.5t-37.5 14.5q-27 0 -41.5 -15t-14.5 -37l-127 4q0 60 50.5 106.5t132.5 46.5zM276 499l-55 -4q-58 -5 -58 -41q0 -35 43 -35q28 -1 49 15.5
t21 46.5v18z" />
    <glyph glyph-name="guillemotleft" unicode="&#xab;" horiz-adv-x="581" 
d="M294 421l-117 -163l117 -163l-116 -72l-163 235l163 235zM564 421l-116 -163l116 -163l-116 -72l-163 235l163 235z" />
    <glyph glyph-name="logicalnot" unicode="&#xac;" 
d="M564 147h-114v190h-417v113h531v-303z" />
    <glyph glyph-name="registered" unicode="&#xae;" horiz-adv-x="595" 
d="M298 761q115 0 192.5 -73t77.5 -183t-77.5 -183t-192.5 -73q-117 0 -194 73t-77 183t77 183t194 73zM298 299q94 0 153.5 58t59.5 148t-59.5 148t-153.5 58q-95 0 -154.5 -58t-59.5 -148t59.5 -148t154.5 -58zM419 559q0 -61 -43 -86l57 -120h-88l-50 106h-35v-106h-80
v306h140q45 0 72 -26.5t27 -73.5zM260 523h39q38 0 38 36q0 35 -38 35h-39v-71z" />
    <glyph glyph-name="macron" unicode="&#xaf;" horiz-adv-x="317" 
d="M308 619h-300v112h300v-112z" />
    <glyph glyph-name="degree" unicode="&#xb0;" horiz-adv-x="377" 
d="M188 758q72 0 117 -40t45 -110v-22q0 -70 -45 -110t-117 -40t-116.5 40t-44.5 110v22q0 70 44 110t117 40zM188 669q-29 0 -45.5 -17.5t-16.5 -48.5v-12q0 -31 16.5 -48.5t45.5 -17.5q28 0 45 17.5t17 48.5v12q0 31 -17 48.5t-45 17.5z" />
    <glyph glyph-name="plusminus" unicode="&#xb1;" horiz-adv-x="548" 
d="M345 547h172v-132h-172v-177h-142v177h-172v132h172v176h142v-176zM517 50h-486v136h486v-136z" />
    <glyph glyph-name="acute" unicode="&#xb4;" horiz-adv-x="268" 
d="M123 598h-114l85 191h164z" />
    <glyph glyph-name="paragraph" unicode="&#xb6;" horiz-adv-x="711" 
d="M694 640h-70v-707h-113v707h-96v-707h-112v435h-56q-97 0 -154.5 49t-57.5 142q0 91 57.5 140t154.5 49h447v-108z" />
    <glyph glyph-name="periodcentered" unicode="&#xb7;" horiz-adv-x="269" 
d="M126 412q37 0 63 -26t26 -63t-26 -62.5t-63 -25.5t-62.5 25.5t-25.5 62.5t25.5 63t62.5 26z" />
    <glyph glyph-name="cedilla" unicode="&#xb8;" horiz-adv-x="274" 
d="M159 12l-13 -53q46 -3 79 -30.5t33 -73.5q0 -52 -41 -79.5t-99 -27.5q-61 0 -99 19l23 77q22 -14 55 -14q52 0 52 35q0 37 -55 37q-19 0 -36 -5l37 115h64z" />
    <glyph glyph-name="ordmasculine" unicode="&#xba;" horiz-adv-x="513" 
d="M256 757q98 0 160.5 -60t62.5 -157t-62.5 -156t-160.5 -59t-160 59t-62 156t62.5 157t159.5 60zM256 645q-41 0 -65.5 -28t-24.5 -77q0 -48 24.5 -76t65.5 -28q42 0 67 28t25 76q0 49 -25 77t-67 28z" />
    <glyph glyph-name="guillemotright" unicode="&#xbb;" horiz-adv-x="581" 
d="M296 258l-163 -235l-116 72l117 163l-117 163l116 72zM566 258l-163 -235l-116 72l117 163l-117 163l116 72z" />
    <glyph glyph-name="onequarter" unicode="&#xbc;" horiz-adv-x="736" 
d="M183 0h-148l506 748h149zM202 322h-112v264l-47 -31l-47 91l135 87h71v-411zM675 162h44v-99h-44v-63h-112v63h-164v87l168 261h108v-249zM497 162h66v98z" />
    <glyph glyph-name="onehalf" unicode="&#xbd;" horiz-adv-x="780" 
d="M183 0h-148l506 748h149zM202 322h-112v264l-47 -31l-47 91l135 87h71v-411zM617 418q69 0 104 -36.5t35 -96.5q0 -68 -63 -138l-43 -48h108v-99h-276v77l130 140q32 34 32 69q0 32 -24 32q-29 0 -29 -37l-110 6q1 60 38 95.5t98 35.5z" />
    <glyph glyph-name="threequarters" unicode="&#xbe;" horiz-adv-x="814" 
d="M261 0h-148l506 748h149zM162 739q65 0 100 -33.5t35 -91.5q0 -52 -43 -81q48 -23 48 -87q0 -61 -39 -96.5t-102 -35.5q-67 0 -103.5 35t-37.5 94l113 8q2 -37 28 -37q29 0 29 35q0 36 -34 36h-45v90h43q14 0 24 9t10 24q0 31 -26 31q-27 0 -27 -33l-109 6q0 60 35 93.5
t101 33.5zM753 162h44v-99h-44v-63h-112v63h-164v87l168 261h108v-249zM575 162h66v98z" />
    <glyph glyph-name="questiondown" unicode="&#xbf;" horiz-adv-x="535" 
d="M267 351q-37 0 -63 26t-26 63q0 36 26 61.5t63 25.5t62.5 -25.5t25.5 -61.5q0 -37 -25.5 -63t-62.5 -26zM267 -243q-116 0 -183.5 61.5t-67.5 165.5q0 39 16 72t33.5 51t49.5 43q38 30 56 53t18 54v31h155v-37q0 -44 -24.5 -78t-71.5 -74q-38 -32 -56 -56.5t-18 -56.5
q0 -44 25 -68.5t68 -24.5t69 26.5t29 73.5l154 -10q-4 -103 -73 -164.5t-179 -61.5z" />
    <glyph glyph-name="Agrave" unicode="&#xc0;" horiz-adv-x="789" 
d="M456 795h-133l-194 154h199zM781 0h-170l-61 144h-311l-62 -144h-169l321 748h130zM294 270h202l-101 239z" />
    <glyph glyph-name="Aacute" unicode="&#xc1;" horiz-adv-x="789" 
d="M460 795h-133l128 154h199zM781 0h-170l-61 144h-311l-62 -144h-169l321 748h130zM294 270h202l-101 239z" />
    <glyph glyph-name="Acircumflex" unicode="&#xc2;" horiz-adv-x="789" 
d="M582 795h-123l-64 75l-65 -75h-122l117 160h141zM781 0h-170l-61 144h-311l-62 -144h-169l321 748h130zM294 270h202l-101 239z" />
    <glyph glyph-name="Atilde" unicode="&#xc3;" horiz-adv-x="789" 
d="M320 959q35 0 74.5 -26.5t58.5 -26.5q40 0 42 46h82q5 -63 -25 -109t-83 -46q-35 0 -74.5 26.5t-57.5 26.5q-42 0 -42 -46h-82q-5 63 24.5 109t82.5 46zM781 0h-170l-61 144h-311l-62 -144h-169l321 748h130zM294 270h202l-101 239z" />
    <glyph glyph-name="Adieresis" unicode="&#xc4;" horiz-adv-x="789" 
d="M299 957q33 0 56.5 -23t23.5 -56t-23.5 -56t-56.5 -23t-56 23t-23 56t23 56t56 23zM492 957q33 0 56 -23t23 -56t-23 -56t-56 -23t-56 23t-23 56t23 56t56 23zM781 0h-170l-61 144h-311l-62 -144h-169l321 748h130zM294 270h202l-101 239z" />
    <glyph glyph-name="Aring" unicode="&#xc5;" horiz-adv-x="789" 
d="M395 1008q47 0 80 -30.5t33 -77.5q0 -46 -33 -76.5t-80 -30.5q-49 0 -82.5 30.5t-33.5 76.5q0 47 33.5 77.5t82.5 30.5zM395 941q-19 0 -30.5 -11.5t-11.5 -29.5q0 -17 11.5 -28t30.5 -11q17 0 28 11t11 28q0 18 -11 29.5t-28 11.5zM781 0h-170l-61 144h-311l-62 -144
h-169l321 748h130zM294 270h202l-101 239z" />
    <glyph glyph-name="AE" unicode="&#xc6;" horiz-adv-x="1053" 
d="M680 612v-162h282v-133h-282v-180h326v-137h-480v144h-236l-97 -144h-188l504 748h497v-136h-326zM526 270v230l-152 -230h152z" />
    <glyph glyph-name="Ccedilla" unicode="&#xc7;" horiz-adv-x="826" 
d="M623 285l162 -14q-21 -124 -112 -199.5t-221 -81.5l-9 -36q46 -3 79 -30.5t33 -73.5q0 -52 -41 -79.5t-99 -27.5q-61 0 -99 19l23 77q22 -14 55 -14q52 0 52 35q0 37 -55 37q-19 0 -36 -5l32 99q-151 14 -244.5 116t-93.5 267q0 178 106 281.5t274 103.5q138 0 236.5 -77
t118.5 -208l-161 -14q-16 78 -68.5 120t-130.5 42q-99 0 -158.5 -67.5t-59.5 -180.5q0 -118 61.5 -183t157.5 -65q78 0 130.5 41t67.5 118z" />
    <glyph glyph-name="Egrave" unicode="&#xc8;" 
d="M380 795h-133l-194 154h199zM555 612h-325v-162h282v-133h-282v-180h326v-137h-481v748h480v-136z" />
    <glyph glyph-name="Eacute" unicode="&#xc9;" 
d="M385 795h-133l128 154h199zM555 612h-325v-162h282v-133h-282v-180h326v-137h-481v748h480v-136z" />
    <glyph glyph-name="Ecircumflex" unicode="&#xca;" 
d="M506 795h-123l-64 75l-65 -75h-122l117 160h141zM555 612h-325v-162h282v-133h-282v-180h326v-137h-481v748h480v-136z" />
    <glyph glyph-name="Edieresis" unicode="&#xcb;" 
d="M223 957q33 0 56.5 -23t23.5 -56t-23.5 -56t-56.5 -23t-56 23t-23 56t23 56t56 23zM416 957q33 0 56 -23t23 -56t-23 -56t-56 -23t-56 23t-23 56t23 56t56 23zM555 612h-325v-162h282v-133h-282v-180h326v-137h-481v748h480v-136z" />
    <glyph glyph-name="Igrave" unicode="&#xcc;" horiz-adv-x="305" 
d="M218 795h-133l-194 154h199zM230 0h-155v748h155v-748z" />
    <glyph glyph-name="Iacute" unicode="&#xcd;" horiz-adv-x="305" 
d="M223 795h-133l128 154h199zM230 0h-155v748h155v-748z" />
    <glyph glyph-name="Icircumflex" unicode="&#xce;" horiz-adv-x="305" 
d="M344 795h-123l-64 75l-65 -75h-122l117 160h141zM230 0h-155v748h155v-748z" />
    <glyph glyph-name="Idieresis" unicode="&#xcf;" horiz-adv-x="305" 
d="M61 957q33 0 56.5 -23t23.5 -56t-23.5 -56t-56.5 -23t-56 23t-23 56t23 56t56 23zM254 957q33 0 56 -23t23 -56t-23 -56t-56 -23t-56 23t-23 56t23 56t56 23zM230 0h-155v748h155v-748z" />
    <glyph glyph-name="Eth" unicode="&#xd0;" horiz-adv-x="805" 
d="M92 748h308q163 0 267 -100.5t104 -273.5t-104 -273.5t-268 -100.5h-307v315h-84v117h84v316zM246 132h155q100 0 158.5 62t58.5 180t-58 180t-159 62h-155v-184h110v-117h-110v-183z" />
    <glyph glyph-name="Ntilde" unicode="&#xd1;" horiz-adv-x="764" 
d="M300 959q35 0 74.5 -26.5t58.5 -26.5q40 0 42 46h82q5 -63 -25 -109t-83 -46q-35 0 -74.5 26.5t-57.5 26.5q-42 0 -42 -46h-82q-5 63 24.5 109t82.5 46zM689 0h-131l-328 463v-463h-155v748h131l329 -464v464h154v-748z" />
    <glyph glyph-name="Ograve" unicode="&#xd2;" horiz-adv-x="875" 
d="M495 795h-133l-194 154h199zM438 759q170 0 279 -105.5t109 -279.5t-109 -279.5t-279 -105.5q-171 0 -280 105.5t-109 279.5t109 279.5t280 105.5zM438 622q-104 0 -168 -66.5t-64 -181.5q0 -114 64 -181t168 -67q103 0 166.5 67t63.5 181q0 115 -63.5 181.5t-166.5 66.5
z" />
    <glyph glyph-name="Oacute" unicode="&#xd3;" horiz-adv-x="875" 
d="M500 795h-133l128 154h199zM438 759q170 0 279 -105.5t109 -279.5t-109 -279.5t-279 -105.5q-171 0 -280 105.5t-109 279.5t109 279.5t280 105.5zM438 622q-104 0 -168 -66.5t-64 -181.5q0 -114 64 -181t168 -67q103 0 166.5 67t63.5 181q0 115 -63.5 181.5t-166.5 66.5z
" />
    <glyph glyph-name="Ocircumflex" unicode="&#xd4;" horiz-adv-x="875" 
d="M621 795h-123l-64 75l-65 -75h-122l117 160h141zM438 759q170 0 279 -105.5t109 -279.5t-109 -279.5t-279 -105.5q-171 0 -280 105.5t-109 279.5t109 279.5t280 105.5zM438 622q-104 0 -168 -66.5t-64 -181.5q0 -114 64 -181t168 -67q103 0 166.5 67t63.5 181
q0 115 -63.5 181.5t-166.5 66.5z" />
    <glyph glyph-name="Otilde" unicode="&#xd5;" horiz-adv-x="875" 
d="M359 959q35 0 74.5 -26.5t58.5 -26.5q40 0 42 46h82q5 -63 -25 -109t-83 -46q-35 0 -74.5 26.5t-57.5 26.5q-42 0 -42 -46h-82q-5 63 24.5 109t82.5 46zM438 759q170 0 279 -105.5t109 -279.5t-109 -279.5t-279 -105.5q-171 0 -280 105.5t-109 279.5t109 279.5t280 105.5
zM438 622q-104 0 -168 -66.5t-64 -181.5q0 -114 64 -181t168 -67q103 0 166.5 67t63.5 181q0 115 -63.5 181.5t-166.5 66.5z" />
    <glyph glyph-name="Odieresis" unicode="&#xd6;" horiz-adv-x="875" 
d="M339 957q33 0 56.5 -23t23.5 -56t-23.5 -56t-56.5 -23t-56 23t-23 56t23 56t56 23zM532 957q33 0 56 -23t23 -56t-23 -56t-56 -23t-56 23t-23 56t23 56t56 23zM438 759q170 0 279 -105.5t109 -279.5t-109 -279.5t-279 -105.5q-171 0 -280 105.5t-109 279.5t109 279.5
t280 105.5zM438 622q-104 0 -168 -66.5t-64 -181.5q0 -114 64 -181t168 -67q103 0 166.5 67t63.5 181q0 115 -63.5 181.5t-166.5 66.5z" />
    <glyph glyph-name="multiply" unicode="&#xd7;" horiz-adv-x="549" 
d="M505 504l-134 -133l135 -135l-97 -97l-135 135l-134 -135l-97 97l135 135l-134 134l96 97l134 -135l134 134z" />
    <glyph glyph-name="Oslash" unicode="&#xd8;" horiz-adv-x="868" 
d="M779 728l-59 -77q106 -108 106 -277q0 -174 -109 -279.5t-279 -105.5q-106 0 -192 43l-62 -81l-95 72l61 80q-101 104 -101 271q0 174 109 279.5t280 105.5q102 0 185 -40l61 80zM206 374q0 -87 39 -148l289 378q-42 18 -96 18q-104 0 -168 -66.5t-64 -181.5zM438 126
q103 0 166.5 67t63.5 181q0 92 -42 154l-292 -381q47 -21 104 -21z" />
    <glyph glyph-name="Ugrave" unicode="&#xd9;" horiz-adv-x="777" 
d="M449 795h-133l-194 154h199zM707 748v-444q0 -149 -85 -232t-233 -83q-149 0 -234 83t-85 232v444h154v-442q0 -88 42 -134t123 -46q80 0 122 46t42 134v442h154z" />
    <glyph glyph-name="Uacute" unicode="&#xda;" horiz-adv-x="777" 
d="M454 795h-133l128 154h199zM707 748v-444q0 -149 -85 -232t-233 -83q-149 0 -234 83t-85 232v444h154v-442q0 -88 42 -134t123 -46q80 0 122 46t42 134v442h154z" />
    <glyph glyph-name="Ucircumflex" unicode="&#xdb;" horiz-adv-x="777" 
d="M576 795h-123l-64 75l-65 -75h-122l117 160h141zM707 748v-444q0 -149 -85 -232t-233 -83q-149 0 -234 83t-85 232v444h154v-442q0 -88 42 -134t123 -46q80 0 122 46t42 134v442h154z" />
    <glyph glyph-name="Udieresis" unicode="&#xdc;" horiz-adv-x="777" 
d="M293 957q33 0 56.5 -23t23.5 -56t-23.5 -56t-56.5 -23t-56 23t-23 56t23 56t56 23zM486 957q33 0 56 -23t23 -56t-23 -56t-56 -23t-56 23t-23 56t23 56t56 23zM707 748v-444q0 -149 -85 -232t-233 -83q-149 0 -234 83t-85 232v444h154v-442q0 -88 42 -134t123 -46
q80 0 122 46t42 134v442h154z" />
    <glyph glyph-name="Yacute" unicode="&#xdd;" horiz-adv-x="744" 
d="M438 795h-133l128 154h199zM450 288v-288h-154v288l-284 460h179l181 -307l181 307h180z" />
    <glyph glyph-name="Thorn" unicode="&#xde;" horiz-adv-x="656" 
d="M230 653h157q109 0 175.5 -63.5t66.5 -176.5q0 -112 -66.5 -176t-175.5 -64h-157v-173h-155v748h155v-95zM229 516v-206h138q46 0 75 27t29 76t-29 76t-75 27h-138z" />
    <glyph glyph-name="germandbls" unicode="&#xdf;" horiz-adv-x="659" 
d="M308 785q109 0 174.5 -48t65.5 -128q0 -34 -13.5 -60.5t-30 -40t-30 -32.5t-13.5 -41q0 -21 16 -40t39 -36t46 -37t39 -54t16 -77q0 -94 -65.5 -146.5t-167.5 -52.5q-58 0 -107 19l28 116q33 -13 66 -13q43 0 71 24t28 67q0 33 -24.5 62.5t-53.5 48.5t-53.5 49.5
t-24.5 66.5q0 31 13.5 54.5t30 34.5t30 27.5t13.5 35.5q0 37 -23.5 58t-66.5 21q-44 0 -69 -26.5t-25 -74.5v-562h-146v566q0 100 65 159.5t172 59.5z" />
    <glyph glyph-name="agrave" unicode="&#xe0;" horiz-adv-x="557" 
d="M338 598h-113l-136 191h166zM274 527q105 0 160 -53t55 -155v-319h-141v42q-51 -53 -132 -53q-80 0 -126 39.5t-46 113.5q0 148 207 157l92 5v20q0 80 -67 80q-35 0 -53.5 -20t-18.5 -48l-146 6q0 72 60.5 128.5t155.5 56.5zM343 208l-78 -5q-75 -3 -75 -54q0 -47 60 -47
q41 0 67 22t26 62v22z" />
    <glyph glyph-name="aacute" unicode="&#xe1;" horiz-adv-x="557" 
d="M340 598h-114l85 191h164zM274 527q105 0 160 -53t55 -155v-319h-141v42q-51 -53 -132 -53q-80 0 -126 39.5t-46 113.5q0 148 207 157l92 5v20q0 80 -67 80q-35 0 -53.5 -20t-18.5 -48l-146 6q0 72 60.5 128.5t155.5 56.5zM343 208l-78 -5q-75 -3 -75 -54q0 -47 60 -47
q41 0 67 22t26 62v22z" />
    <glyph glyph-name="acircumflex" unicode="&#xe2;" horiz-adv-x="557" 
d="M473 599h-122l-65 82l-65 -82h-122l116 177h141zM274 527q105 0 160 -53t55 -155v-319h-141v42q-51 -53 -132 -53q-80 0 -126 39.5t-46 113.5q0 148 207 157l92 5v20q0 80 -67 80q-35 0 -53.5 -20t-18.5 -48l-146 6q0 72 60.5 128.5t155.5 56.5zM343 208l-78 -5
q-75 -3 -75 -54q0 -47 60 -47q41 0 67 22t26 62v22z" />
    <glyph glyph-name="atilde" unicode="&#xe3;" horiz-adv-x="557" 
d="M210 761q35 0 74.5 -27t58.5 -27q40 0 42 47h82q5 -63 -25 -109.5t-83 -46.5q-35 0 -74.5 26.5t-57.5 26.5q-42 0 -42 -46h-82q-5 63 24.5 109.5t82.5 46.5zM274 527q105 0 160 -53t55 -155v-319h-141v42q-51 -53 -132 -53q-80 0 -126 39.5t-46 113.5q0 148 207 157l92 5
v20q0 80 -67 80q-35 0 -53.5 -20t-18.5 -48l-146 6q0 72 60.5 128.5t155.5 56.5zM343 208l-78 -5q-75 -3 -75 -54q0 -47 60 -47q41 0 67 22t26 62v22z" />
    <glyph glyph-name="adieresis" unicode="&#xe4;" horiz-adv-x="557" 
d="M188 757q33 0 56.5 -23t23.5 -55q0 -33 -23.5 -56t-56.5 -23t-56 22.5t-23 56.5q0 32 23 55t56 23zM381 757q33 0 56 -23t23 -55q0 -34 -23 -56.5t-56 -22.5t-56 22.5t-23 56.5q0 32 23 55t56 23zM274 527q105 0 160 -53t55 -155v-319h-141v42q-51 -53 -132 -53
q-80 0 -126 39.5t-46 113.5q0 148 207 157l92 5v20q0 80 -67 80q-35 0 -53.5 -20t-18.5 -48l-146 6q0 72 60.5 128.5t155.5 56.5zM343 208l-78 -5q-75 -3 -75 -54q0 -47 60 -47q41 0 67 22t26 62v22z" />
    <glyph glyph-name="aring" unicode="&#xe5;" horiz-adv-x="557" 
d="M285 823q55 0 93 -34.5t38 -87.5t-38 -87.5t-93 -34.5t-93 34.5t-38 87.5t38 87.5t93 34.5zM285 745q-21 0 -33 -12t-12 -32t12 -31.5t33 -11.5q20 0 32 11.5t12 31.5t-12 32t-32 12zM274 527q105 0 160 -53t55 -155v-319h-141v42q-51 -53 -132 -53q-80 0 -126 39.5
t-46 113.5q0 148 207 157l92 5v20q0 80 -67 80q-35 0 -53.5 -20t-18.5 -48l-146 6q0 72 60.5 128.5t155.5 56.5zM343 208l-78 -5q-75 -3 -75 -54q0 -47 60 -47q41 0 67 22t26 62v22z" />
    <glyph glyph-name="ae" unicode="&#xe6;" horiz-adv-x="899" 
d="M855 212h-355q2 -49 30.5 -77t77.5 -28q78 0 95 57l147 -7q-14 -74 -81 -121t-158 -47q-125 0 -198 78q-75 -78 -185 -78q-86 0 -135 40.5t-49 114.5q0 146 207 155l92 5v19q0 82 -68 82q-35 0 -53 -20.5t-18 -48.5l-146 6q0 73 59 129t154 56q105 0 160 -61
q69 61 177 61q113 0 180 -68.5t67 -188.5v-58zM606 413q-46 0 -74.5 -27.5t-31.5 -76.5h208q-2 49 -28 76.5t-74 27.5zM343 208l-78 -5q-75 -3 -75 -53q0 -46 60 -46q39 0 66 20.5t27 61.5v22z" />
    <glyph glyph-name="ccedilla" unicode="&#xe7;" horiz-adv-x="592" 
d="M309 115q43 0 70 22.5t33 61.5l142 -13q-14 -85 -75 -138t-149 -58l-9 -35q46 -3 79 -30.5t33 -73.5q0 -52 -41 -79.5t-99 -27.5q-61 0 -99 19l23 77q22 -14 55 -14q52 0 52 35q0 37 -55 37q-19 0 -36 -5l32 99q-99 14 -160 84.5t-61 181.5q0 125 74 197t191 72
q96 0 163.5 -54t81.5 -146l-143 -12q-5 40 -32.5 63.5t-69.5 23.5q-52 0 -84.5 -38t-32.5 -106q0 -67 32.5 -105t84.5 -38z" />
    <glyph glyph-name="egrave" unicode="&#xe8;" horiz-adv-x="598" 
d="M243 598l-136 191h166l83 -191h-113zM554 212h-355q2 -49 30.5 -77t77.5 -28q78 0 95 57l147 -7q-14 -74 -80.5 -121t-157.5 -47q-120 0 -193.5 73t-73.5 196q0 124 73 196.5t190 72.5q113 0 180 -68.5t67 -188.5v-58zM306 413q-47 0 -75.5 -27.5t-31.5 -76.5h208
q-2 49 -27.5 76.5t-73.5 27.5z" />
    <glyph glyph-name="eacute" unicode="&#xe9;" horiz-adv-x="598" 
d="M359 598h-114l85 191h164zM554 212h-355q2 -49 30.5 -77t77.5 -28q78 0 95 57l147 -7q-14 -74 -80.5 -121t-157.5 -47q-120 0 -193.5 73t-73.5 196q0 124 73 196.5t190 72.5q113 0 180 -68.5t67 -188.5v-58zM306 413q-47 0 -75.5 -27.5t-31.5 -76.5h208q-2 49 -27.5 76.5
t-73.5 27.5z" />
    <glyph glyph-name="ecircumflex" unicode="&#xea;" horiz-adv-x="598" 
d="M239 599h-122l116 177h141l117 -177h-122l-65 82zM554 212h-355q2 -49 30.5 -77t77.5 -28q78 0 95 57l147 -7q-14 -74 -80.5 -121t-157.5 -47q-120 0 -193.5 73t-73.5 196q0 124 73 196.5t190 72.5q113 0 180 -68.5t67 -188.5v-58zM306 413q-47 0 -75.5 -27.5
t-31.5 -76.5h208q-2 49 -27.5 76.5t-73.5 27.5z" />
    <glyph glyph-name="edieresis" unicode="&#xeb;" horiz-adv-x="598" 
d="M206 600q-33 0 -56 22.5t-23 56.5q0 32 23 55t56 23t56.5 -23t23.5 -55q0 -33 -23.5 -56t-56.5 -23zM399 600q-33 0 -56 22.5t-23 56.5q0 32 23 55t56 23t56 -23t23 -55q0 -34 -23 -56.5t-56 -22.5zM554 212h-355q2 -49 30.5 -77t77.5 -28q78 0 95 57l147 -7
q-14 -74 -80.5 -121t-157.5 -47q-120 0 -193.5 73t-73.5 196q0 124 73 196.5t190 72.5q113 0 180 -68.5t67 -188.5v-58zM306 413q-47 0 -75.5 -27.5t-31.5 -76.5h208q-2 49 -27.5 76.5t-73.5 27.5z" />
    <glyph glyph-name="igrave" unicode="&#xec;" horiz-adv-x="291" 
d="M201 598h-113l-136 191h166zM218 0h-146v517h146v-517z" />
    <glyph glyph-name="iacute" unicode="&#xed;" horiz-adv-x="291" 
d="M203 598h-114l85 191h164zM218 0h-146v517h146v-517z" />
    <glyph glyph-name="icircumflex" unicode="&#xee;" horiz-adv-x="291" 
d="M336 599h-122l-65 82l-65 -82h-122l116 177h141zM218 0h-146v517h146v-517z" />
    <glyph glyph-name="idieresis" unicode="&#xef;" horiz-adv-x="291" 
d="M51 757q33 0 56.5 -23t23.5 -55q0 -33 -23.5 -56t-56.5 -23t-56 22.5t-23 56.5q0 32 23 55t56 23zM244 757q33 0 56 -23t23 -55q0 -34 -23 -56.5t-56 -22.5t-56 22.5t-23 56.5q0 32 23 55t56 23zM218 0h-146v517h146v-517z" />
    <glyph glyph-name="eth" unicode="&#xf0;" horiz-adv-x="608" 
d="M489 739l-69 -65q142 -133 142 -405q0 -133 -71.5 -206.5t-191.5 -73.5q-107 0 -181 67t-74 182q0 111 73.5 177.5t180.5 66.5q52 0 98 -17q-22 79 -67 125l-71 -67l-66 65l58 54q-48 20 -119 23v112q121 0 212 -48l78 73zM304 110q53 0 84 35.5t31 91.5q0 59 -30.5 93
t-84.5 34q-52 0 -84.5 -34.5t-32.5 -92.5t33 -92.5t84 -34.5z" />
    <glyph glyph-name="ntilde" unicode="&#xf1;" horiz-adv-x="618" 
d="M245 761q35 0 74.5 -27t58.5 -27q40 0 42 47h82q5 -63 -25 -109.5t-83 -46.5q-35 0 -74.5 26.5t-57.5 26.5q-42 0 -42 -46h-82q-5 63 24.5 109.5t82.5 46.5zM349 527q91 0 146.5 -56t55.5 -155v-316h-146v288q0 49 -24.5 76t-66.5 27q-43 0 -69.5 -28.5t-26.5 -75.5v-287
h-146v517h138v-53q40 63 139 63z" />
    <glyph glyph-name="ograve" unicode="&#xf2;" horiz-adv-x="638" 
d="M370 598h-113l-136 191h166zM319 527q120 0 197.5 -74t77.5 -195q0 -120 -77.5 -194.5t-197.5 -74.5t-197.5 74.5t-77.5 194.5q0 121 77.5 195t197.5 74zM319 402q-57 0 -92 -38.5t-35 -105.5t35 -105t92 -38t92 38t35 105t-35 105.5t-92 38.5z" />
    <glyph glyph-name="oacute" unicode="&#xf3;" horiz-adv-x="638" 
d="M373 598h-114l85 191h164zM319 527q120 0 197.5 -74t77.5 -195q0 -120 -77.5 -194.5t-197.5 -74.5t-197.5 74.5t-77.5 194.5q0 121 77.5 195t197.5 74zM319 402q-57 0 -92 -38.5t-35 -105.5t35 -105t92 -38t92 38t35 105t-35 105.5t-92 38.5z" />
    <glyph glyph-name="ocircumflex" unicode="&#xf4;" horiz-adv-x="638" 
d="M505 599h-122l-65 82l-65 -82h-122l116 177h141zM319 527q120 0 197.5 -74t77.5 -195q0 -120 -77.5 -194.5t-197.5 -74.5t-197.5 74.5t-77.5 194.5q0 121 77.5 195t197.5 74zM319 402q-57 0 -92 -38.5t-35 -105.5t35 -105t92 -38t92 38t35 105t-35 105.5t-92 38.5z" />
    <glyph glyph-name="otilde" unicode="&#xf5;" horiz-adv-x="638" 
d="M242 761q35 0 74.5 -27t58.5 -27q40 0 42 47h82q5 -63 -25 -109.5t-83 -46.5q-35 0 -74.5 26.5t-57.5 26.5q-42 0 -42 -46h-82q-5 63 24.5 109.5t82.5 46.5zM319 527q120 0 197.5 -74t77.5 -195q0 -120 -77.5 -194.5t-197.5 -74.5t-197.5 74.5t-77.5 194.5
q0 121 77.5 195t197.5 74zM319 402q-57 0 -92 -38.5t-35 -105.5t35 -105t92 -38t92 38t35 105t-35 105.5t-92 38.5z" />
    <glyph glyph-name="odieresis" unicode="&#xf6;" horiz-adv-x="638" 
d="M220 757q33 0 56.5 -23t23.5 -55q0 -33 -23.5 -56t-56.5 -23t-56 22.5t-23 56.5q0 32 23 55t56 23zM413 757q33 0 56 -23t23 -55q0 -34 -23 -56.5t-56 -22.5t-56 22.5t-23 56.5q0 32 23 55t56 23zM319 527q120 0 197.5 -74t77.5 -195q0 -120 -77.5 -194.5t-197.5 -74.5
t-197.5 74.5t-77.5 194.5q0 121 77.5 195t197.5 74zM319 402q-57 0 -92 -38.5t-35 -105.5t35 -105t92 -38t92 38t35 105t-35 105.5t-92 38.5z" />
    <glyph glyph-name="divide" unicode="&#xf7;" horiz-adv-x="548" 
d="M274 702q37 0 63 -26t26 -63t-26 -62t-63 -25t-62.5 25t-25.5 62t25.5 63t62.5 26zM517 303h-486v137h486v-137zM274 218q37 0 63 -25.5t26 -62.5t-26 -63t-63 -26t-62.5 26t-25.5 63t25.5 62.5t62.5 25.5z" />
    <glyph glyph-name="oslash" unicode="&#xf8;" horiz-adv-x="638" 
d="M560 492l-36 -47q70 -73 70 -187q0 -120 -77.5 -194.5t-197.5 -74.5q-67 0 -121 24l-44 -59l-80 59l42 56q-72 75 -72 189q0 121 77.5 195t197.5 74q66 0 124 -25l37 50zM192 258q0 -39 13 -71l157 208q-18 7 -43 7q-57 0 -92 -38.5t-35 -105.5zM319 115q57 0 92 38
t35 105q0 37 -11 67l-155 -205q20 -5 39 -5z" />
    <glyph glyph-name="ugrave" unicode="&#xf9;" 
d="M354 598h-113l-136 191h166zM530 0h-138v52q-39 -63 -134 -63q-89 0 -140 54t-51 149v325h146v-294q0 -98 83 -98q41 0 64.5 27.5t23.5 72.5v292h146v-517z" />
    <glyph glyph-name="uacute" unicode="&#xfa;" 
d="M357 598h-114l85 191h164zM530 0h-138v52q-39 -63 -134 -63q-89 0 -140 54t-51 149v325h146v-294q0 -98 83 -98q41 0 64.5 27.5t23.5 72.5v292h146v-517z" />
    <glyph glyph-name="ucircumflex" unicode="&#xfb;" 
d="M489 599h-122l-65 82l-65 -82h-122l116 177h141zM530 0h-138v52q-39 -63 -134 -63q-89 0 -140 54t-51 149v325h146v-294q0 -98 83 -98q41 0 64.5 27.5t23.5 72.5v292h146v-517z" />
    <glyph glyph-name="udieresis" unicode="&#xfc;" 
d="M204 757q33 0 56.5 -23t23.5 -55q0 -33 -23.5 -56t-56.5 -23t-56 22.5t-23 56.5q0 32 23 55t56 23zM397 757q33 0 56 -23t23 -55q0 -34 -23 -56.5t-56 -22.5t-56 22.5t-23 56.5q0 32 23 55t56 23zM530 0h-138v52q-39 -63 -134 -63q-89 0 -140 54t-51 149v325h146v-294
q0 -98 83 -98q41 0 64.5 27.5t23.5 72.5v292h146v-517z" />
    <glyph glyph-name="yacute" unicode="&#xfd;" horiz-adv-x="573" 
d="M341 598h-114l85 191h164zM236 -255h-159l132 301l-202 471h161l119 -308l118 308h162z" />
    <glyph glyph-name="thorn" unicode="&#xfe;" horiz-adv-x="657" 
d="M218 777v-305q48 55 145 55q111 0 180.5 -74t69.5 -195t-69.5 -195t-180.5 -74q-95 0 -145 55v-299h-146v1032h146zM340 402q-55 0 -88.5 -35.5t-33.5 -96.5v-24q0 -61 33.5 -96.5t88.5 -35.5q56 0 90.5 38t34.5 106t-34.5 106t-90.5 38z" />
    <glyph glyph-name="ydieresis" unicode="&#xff;" horiz-adv-x="573" 
d="M189 757q33 0 56.5 -23t23.5 -55q0 -33 -23.5 -56t-56.5 -23t-56 22.5t-23 56.5q0 32 23 55t56 23zM382 757q33 0 56 -23t23 -55q0 -34 -23 -56.5t-56 -22.5t-56 22.5t-23 56.5q0 32 23 55t56 23zM236 -255h-159l132 301l-202 471h161l119 -308l118 308h162z" />
    <glyph glyph-name="Amacron" unicode="&#x100;" horiz-adv-x="789" 
d="M545 815h-300v111h300v-111zM781 0h-170l-61 144h-311l-62 -144h-169l321 748h130zM294 270h202l-101 239z" />
    <glyph glyph-name="amacron" unicode="&#x101;" horiz-adv-x="557" 
d="M435 619h-300v112h300v-112zM274 527q105 0 160 -53t55 -155v-319h-141v42q-51 -53 -132 -53q-80 0 -126 39.5t-46 113.5q0 148 207 157l92 5v20q0 80 -67 80q-35 0 -53.5 -20t-18.5 -48l-146 6q0 72 60.5 128.5t155.5 56.5zM343 208l-78 -5q-75 -3 -75 -54q0 -47 60 -47
q41 0 67 22t26 62v22z" />
    <glyph glyph-name="Abreve" unicode="&#x102;" horiz-adv-x="789" 
d="M462 961h118q0 -81 -50.5 -123t-135.5 -42q-84 0 -134.5 42t-50.5 123h118q0 -30 18.5 -47t48.5 -17q31 0 49.5 17t18.5 47zM781 0h-170l-61 144h-311l-62 -144h-169l321 748h130zM294 270h202l-101 239z" />
    <glyph glyph-name="abreve" unicode="&#x103;" horiz-adv-x="557" 
d="M353 758h118q0 -81 -50.5 -123t-135.5 -42q-84 0 -134.5 42t-50.5 123h118q0 -30 18.5 -47.5t48.5 -17.5q31 0 49.5 17.5t18.5 47.5zM274 527q105 0 160 -53t55 -155v-319h-141v42q-51 -53 -132 -53q-80 0 -126 39.5t-46 113.5q0 148 207 157l92 5v20q0 80 -67 80
q-35 0 -53.5 -20t-18.5 -48l-146 6q0 72 60.5 128.5t155.5 56.5zM343 208l-78 -5q-75 -3 -75 -54q0 -47 60 -47q41 0 67 22t26 62v22z" />
    <glyph glyph-name="Aogonek" unicode="&#x104;" horiz-adv-x="789" 
d="M664 -115q28 0 50 12l13 -71q-39 -18 -87 -18q-56 0 -91 24t-35 71q0 67 93 107l-57 134h-311l-62 -144h-169l321 748h130l322 -748h-85q-39 -22 -56 -38.5t-17 -40.5q0 -36 41 -36zM496 270l-101 239l-101 -239h202z" />
    <glyph glyph-name="aogonek" unicode="&#x105;" horiz-adv-x="557" 
d="M489 0h-34q-37 -21 -54 -38t-17 -40q0 -36 41 -36q27 0 50 12l13 -71q-39 -18 -87 -18q-56 0 -91 24t-35 71q0 61 73 98v40q-51 -53 -132 -53q-80 0 -126 39.5t-46 113.5q0 148 207 157l92 5v20q0 80 -67 80q-35 0 -53.5 -20t-18.5 -48l-146 6q0 72 60.5 128.5
t155.5 56.5q105 0 160 -53t55 -155v-319zM343 208l-78 -5q-75 -3 -75 -54q0 -47 60 -47q41 0 67 22t26 62v22z" />
    <glyph glyph-name="Cacute" unicode="&#x106;" horiz-adv-x="826" 
d="M486 795h-133l128 154h199zM429 759q138 0 236.5 -77t118.5 -208l-161 -14q-16 78 -68.5 120t-130.5 42q-99 0 -158.5 -67.5t-59.5 -180.5q0 -118 61.5 -183t157.5 -65q78 0 130.5 41t67.5 118l162 -14q-21 -130 -119 -206t-236 -76q-168 0 -274.5 104t-106.5 281
q0 178 106 281.5t274 103.5z" />
    <glyph glyph-name="cacute" unicode="&#x107;" horiz-adv-x="592" 
d="M357 598h-114l85 191h164zM309 527q96 0 163.5 -54t81.5 -146l-143 -12q-5 40 -32.5 63.5t-69.5 23.5q-52 0 -84.5 -38t-32.5 -106q0 -67 32.5 -105t84.5 -38q43 0 70 22.5t33 61.5l142 -13q-15 -91 -82 -144t-163 -53q-117 0 -191 72.5t-74 196.5q0 125 74 197t191 72z
" />
    <glyph glyph-name="Ccircumflex" unicode="&#x108;" horiz-adv-x="826" 
d="M608 795h-123l-64 75l-65 -75h-122l117 160h141zM429 759q138 0 236.5 -77t118.5 -208l-161 -14q-16 78 -68.5 120t-130.5 42q-99 0 -158.5 -67.5t-59.5 -180.5q0 -118 61.5 -183t157.5 -65q78 0 130.5 41t67.5 118l162 -14q-21 -130 -119 -206t-236 -76
q-168 0 -274.5 104t-106.5 281q0 178 106 281.5t274 103.5z" />
    <glyph glyph-name="ccircumflex" unicode="&#x109;" horiz-adv-x="592" 
d="M490 599h-122l-65 82l-65 -82h-122l116 177h141zM309 527q96 0 163.5 -54t81.5 -146l-143 -12q-5 40 -32.5 63.5t-69.5 23.5q-52 0 -84.5 -38t-32.5 -106q0 -67 32.5 -105t84.5 -38q43 0 70 22.5t33 61.5l142 -13q-15 -91 -82 -144t-163 -53q-117 0 -191 72.5t-74 196.5
q0 125 74 197t191 72z" />
    <glyph glyph-name="Cdotaccent" unicode="&#x10a;" horiz-adv-x="826" 
d="M421 973q37 0 62.5 -25.5t25.5 -62.5t-25.5 -62t-62.5 -25q-36 0 -61.5 25t-25.5 62t26 62.5t61 25.5zM429 759q138 0 236.5 -77t118.5 -208l-161 -14q-16 78 -68.5 120t-130.5 42q-99 0 -158.5 -67.5t-59.5 -180.5q0 -118 61.5 -183t157.5 -65q78 0 130.5 41t67.5 118
l162 -14q-21 -130 -119 -206t-236 -76q-168 0 -274.5 104t-106.5 281q0 178 106 281.5t274 103.5z" />
    <glyph glyph-name="cdotaccent" unicode="&#x10b;" horiz-adv-x="592" 
d="M302 770q37 0 62.5 -26t25.5 -62q0 -37 -25.5 -62.5t-62.5 -25.5q-36 0 -61.5 25.5t-25.5 62.5q0 36 26 62t61 26zM309 527q96 0 163.5 -54t81.5 -146l-143 -12q-5 40 -32.5 63.5t-69.5 23.5q-52 0 -84.5 -38t-32.5 -106q0 -67 32.5 -105t84.5 -38q43 0 70 22.5t33 61.5
l142 -13q-15 -91 -82 -144t-163 -53q-117 0 -191 72.5t-74 196.5q0 125 74 197t191 72z" />
    <glyph glyph-name="Ccaron" unicode="&#x10c;" horiz-adv-x="826" 
d="M492 795h-141l-117 160h122l65 -75l64 75h123zM429 759q138 0 236.5 -77t118.5 -208l-161 -14q-16 78 -68.5 120t-130.5 42q-99 0 -158.5 -67.5t-59.5 -180.5q0 -118 61.5 -183t157.5 -65q78 0 130.5 41t67.5 118l162 -14q-21 -130 -119 -206t-236 -76q-168 0 -274.5 104
t-106.5 281q0 178 106 281.5t274 103.5z" />
    <glyph glyph-name="ccaron" unicode="&#x10d;" horiz-adv-x="592" 
d="M373 597h-141l-116 176h122l65 -82l65 82h122zM309 527q96 0 163.5 -54t81.5 -146l-143 -12q-5 40 -32.5 63.5t-69.5 23.5q-52 0 -84.5 -38t-32.5 -106q0 -67 32.5 -105t84.5 -38q43 0 70 22.5t33 61.5l142 -13q-15 -91 -82 -144t-163 -53q-117 0 -191 72.5t-74 196.5
q0 125 74 197t191 72z" />
    <glyph glyph-name="Dcaron" unicode="&#x10e;" horiz-adv-x="803" 
d="M419 795h-141l-117 160h122l65 -75l64 75h123zM75 748h308q163 0 267 -100.5t104 -273.5t-104 -273.5t-268 -100.5h-307v748zM229 616v-484h155q100 0 158.5 62t58.5 180t-58 180t-159 62h-155z" />
    <glyph glyph-name="dcaron" unicode="&#x10f;" horiz-adv-x="816" 
d="M439 777h145v-777h-137v53q-22 -28 -62 -46t-92 -18q-110 0 -179.5 74t-69.5 195t69.5 195t179.5 74q98 0 146 -55v305zM717 776q38 0 60 -27t22 -71q0 -151 -153 -229v61q52 33 67 90q-35 2 -58.5 27t-23.5 60q0 37 24.5 63t61.5 26zM439 247v23q0 61 -33.5 96.5
t-88.5 35.5q-56 0 -90.5 -38t-34.5 -106t34.5 -105.5t90.5 -37.5q55 0 88.5 35t33.5 97z" />
    <glyph glyph-name="Dcroat" unicode="&#x110;" horiz-adv-x="805" 
d="M93 748h307q164 0 268 -100.5t104 -273.5t-104.5 -273.5t-268.5 -100.5h-306v315h-85v117h85v316zM247 132h154q101 0 159 62t58 180t-58 180t-159 62h-154v-184h109v-117h-109v-183z" />
    <glyph glyph-name="dcroat" unicode="&#x111;" horiz-adv-x="655" 
d="M654 596h-70v-596h-137v53q-22 -28 -62 -46t-92 -18q-110 0 -179.5 74t-69.5 195t69.5 195t179.5 74q98 0 146 -55v124h-84v112h84v69h145v-69h70v-112zM439 247v23q0 61 -33.5 96.5t-88.5 35.5q-56 0 -90.5 -38t-34.5 -106t34.5 -105.5t90.5 -37.5q55 0 88.5 35t33.5 97
z" />
    <glyph glyph-name="Emacron" unicode="&#x112;" 
d="M469 815h-300v111h300v-111zM555 612h-325v-162h282v-133h-282v-180h326v-137h-481v748h480v-136z" />
    <glyph glyph-name="emacron" unicode="&#x113;" horiz-adv-x="598" 
d="M454 619h-300v112h300v-112zM554 212h-355q2 -49 30.5 -77t77.5 -28q78 0 95 57l147 -7q-14 -74 -80.5 -121t-157.5 -47q-120 0 -193.5 73t-73.5 196q0 124 73 196.5t190 72.5q113 0 180 -68.5t67 -188.5v-58zM306 413q-47 0 -75.5 -27.5t-31.5 -76.5h208
q-2 49 -27.5 76.5t-73.5 27.5z" />
    <glyph glyph-name="Ebreve" unicode="&#x114;" 
d="M387 961h118q0 -81 -50.5 -123t-135.5 -42q-84 0 -134.5 42t-50.5 123h118q0 -30 18.5 -47t48.5 -17q31 0 49.5 17t18.5 47zM555 612h-325v-162h282v-133h-282v-180h326v-137h-481v748h480v-136z" />
    <glyph glyph-name="ebreve" unicode="&#x115;" horiz-adv-x="598" 
d="M303 593q-84 0 -134.5 42t-50.5 123h118q0 -30 18.5 -47.5t48.5 -17.5q31 0 49.5 17.5t18.5 47.5h118q0 -81 -50.5 -123t-135.5 -42zM554 212h-355q2 -49 30.5 -77t77.5 -28q78 0 95 57l147 -7q-14 -74 -80.5 -121t-157.5 -47q-120 0 -193.5 73t-73.5 196q0 124 73 196.5
t190 72.5q113 0 180 -68.5t67 -188.5v-58zM306 413q-47 0 -75.5 -27.5t-31.5 -76.5h208q-2 49 -27.5 76.5t-73.5 27.5z" />
    <glyph glyph-name="Edotaccent" unicode="&#x116;" 
d="M319 973q37 0 62.5 -25.5t25.5 -62.5t-25.5 -62t-62.5 -25q-36 0 -61.5 25t-25.5 62t26 62.5t61 25.5zM555 612h-325v-162h282v-133h-282v-180h326v-137h-481v748h480v-136z" />
    <glyph glyph-name="edotaccent" unicode="&#x117;" horiz-adv-x="598" 
d="M304 594q-36 0 -61.5 25.5t-25.5 62.5q0 36 26 62t61 26q37 0 62.5 -26t25.5 -62q0 -37 -25.5 -62.5t-62.5 -25.5zM554 212h-355q2 -49 30.5 -77t77.5 -28q78 0 95 57l147 -7q-14 -74 -80.5 -121t-157.5 -47q-120 0 -193.5 73t-73.5 196q0 124 73 196.5t190 72.5
q113 0 180 -68.5t67 -188.5v-58zM306 413q-47 0 -75.5 -27.5t-31.5 -76.5h208q-2 49 -27.5 76.5t-73.5 27.5z" />
    <glyph glyph-name="Eogonek" unicode="&#x118;" 
d="M569 -103l13 -71q-39 -18 -87 -18q-56 0 -91 24t-35 71q0 59 71 97h-365v748h480v-136h-325v-162h282v-133h-282v-180h326v-137h-5q-39 -22 -56 -38.5t-17 -40.5q0 -36 41 -36q27 0 50 12z" />
    <glyph glyph-name="eogonek" unicode="&#x119;" horiz-adv-x="598" 
d="M554 212h-355q2 -49 30.5 -77t77.5 -28q78 0 95 57l147 -7q-10 -58 -56 -101t-112 -59q-35 -20 -51.5 -36.5t-16.5 -39.5q0 -36 41 -36q28 0 50 12l13 -71q-39 -18 -87 -18q-56 0 -91 24t-35 71q0 55 58 89q-100 15 -159 85.5t-59 180.5q0 124 73 196.5t190 72.5
q113 0 180 -68.5t67 -188.5v-58zM306 413q-47 0 -75.5 -27.5t-31.5 -76.5h208q-2 49 -27.5 76.5t-73.5 27.5z" />
    <glyph glyph-name="Ecaron" unicode="&#x11a;" 
d="M390 795h-141l-117 160h122l65 -75l64 75h123zM555 612h-325v-162h282v-133h-282v-180h326v-137h-481v748h480v-136z" />
    <glyph glyph-name="ecaron" unicode="&#x11b;" horiz-adv-x="598" 
d="M233 597l-116 176h122l65 -82l65 82h122l-117 -176h-141zM554 212h-355q2 -49 30.5 -77t77.5 -28q78 0 95 57l147 -7q-14 -74 -80.5 -121t-157.5 -47q-120 0 -193.5 73t-73.5 196q0 124 73 196.5t190 72.5q113 0 180 -68.5t67 -188.5v-58zM306 413q-47 0 -75.5 -27.5
t-31.5 -76.5h208q-2 49 -27.5 76.5t-73.5 27.5z" />
    <glyph glyph-name="Gcircumflex" unicode="&#x11c;" horiz-adv-x="834" 
d="M357 795h-122l117 160h141l116 -160h-123l-64 75zM785 408v-50q0 -167 -96.5 -268t-259.5 -101q-167 0 -273.5 104t-106.5 281q0 178 106 281.5t273 103.5q132 0 226 -68t124 -189l-160 -27q-16 69 -65.5 108t-125.5 39q-103 0 -162 -63t-59 -185t59 -185t162 -63
q73 0 122.5 36t66.5 110h-188v136h357z" />
    <glyph glyph-name="gcircumflex" unicode="&#x11d;" horiz-adv-x="648" 
d="M505 599h-122l-65 82l-65 -82h-122l116 177h141zM293 527q106 0 154 -64v54h137v-536q0 -112 -71 -179t-190 -67q-117 0 -184 53.5t-82 145.5l145 5q5 -38 36 -59t80 -21q56 0 88.5 28.5t32.5 82.5v74q-51 -55 -146 -55q-110 0 -179.5 74t-69.5 195t69.5 195t179.5 74z
M317 402q-56 0 -90.5 -38t-34.5 -106t34.5 -106t90.5 -38q55 0 88.5 35.5t33.5 96.5v24q0 61 -33.5 96.5t-88.5 35.5z" />
    <glyph glyph-name="Gbreve" unicode="&#x11e;" horiz-adv-x="834" 
d="M422 796q-84 0 -134.5 42t-50.5 123h118q0 -30 18.5 -47t48.5 -17q31 0 49.5 17t18.5 47h118q0 -81 -50.5 -123t-135.5 -42zM785 408v-50q0 -167 -96.5 -268t-259.5 -101q-167 0 -273.5 104t-106.5 281q0 178 106 281.5t273 103.5q132 0 226 -68t124 -189l-160 -27
q-16 69 -65.5 108t-125.5 39q-103 0 -162 -63t-59 -185t59 -185t162 -63q73 0 122.5 36t66.5 110h-188v136h357z" />
    <glyph glyph-name="gbreve" unicode="&#x11f;" horiz-adv-x="648" 
d="M385 758h118q0 -81 -50.5 -123t-135.5 -42q-84 0 -134.5 42t-50.5 123h118q0 -30 18.5 -47.5t48.5 -17.5q31 0 49.5 17.5t18.5 47.5zM293 527q106 0 154 -64v54h137v-536q0 -112 -71 -179t-190 -67q-117 0 -184 53.5t-82 145.5l145 5q5 -38 36 -59t80 -21q56 0 88.5 28.5
t32.5 82.5v74q-51 -55 -146 -55q-110 0 -179.5 74t-69.5 195t69.5 195t179.5 74zM317 402q-56 0 -90.5 -38t-34.5 -106t34.5 -106t90.5 -38q55 0 88.5 35.5t33.5 96.5v24q0 61 -33.5 96.5t-88.5 35.5z" />
    <glyph glyph-name="Gdotaccent" unicode="&#x120;" horiz-adv-x="834" 
d="M422 798q-36 0 -61.5 25t-25.5 62t25.5 62.5t61.5 25.5q37 0 62.5 -25.5t25.5 -62.5t-25.5 -62t-62.5 -25zM785 408v-50q0 -167 -96.5 -268t-259.5 -101q-167 0 -273.5 104t-106.5 281q0 178 106 281.5t273 103.5q132 0 226 -68t124 -189l-160 -27q-16 69 -65.5 108
t-125.5 39q-103 0 -162 -63t-59 -185t59 -185t162 -63q73 0 122.5 36t66.5 110h-188v136h357z" />
    <glyph glyph-name="gdotaccent" unicode="&#x121;" horiz-adv-x="648" 
d="M318 770q37 0 62.5 -26t25.5 -62q0 -37 -25.5 -62.5t-62.5 -25.5q-36 0 -61.5 25.5t-25.5 62.5q0 36 26 62t61 26zM293 527q106 0 154 -64v54h137v-536q0 -112 -71 -179t-190 -67q-117 0 -184 53.5t-82 145.5l145 5q5 -38 36 -59t80 -21q56 0 88.5 28.5t32.5 82.5v74
q-51 -55 -146 -55q-110 0 -179.5 74t-69.5 195t69.5 195t179.5 74zM317 402q-56 0 -90.5 -38t-34.5 -106t34.5 -106t90.5 -38q55 0 88.5 35.5t33.5 96.5v24q0 61 -33.5 96.5t-88.5 35.5z" />
    <glyph glyph-name="Gcommaaccent" unicode="&#x122;" horiz-adv-x="834" 
d="M785 408v-50q0 -167 -96.5 -268t-259.5 -101q-167 0 -273.5 104t-106.5 281q0 178 106 281.5t273 103.5q132 0 226 -68t124 -189l-160 -27q-16 69 -65.5 108t-125.5 39q-103 0 -162 -63t-59 -185t59 -185t162 -63q73 0 122.5 36t66.5 110h-188v136h357zM424 -48
q38 0 60 -27t22 -71q0 -151 -153 -229v61q52 33 67 90q-35 2 -58.5 27t-23.5 60q0 37 24.5 63t61.5 26z" />
    <glyph glyph-name="gcommaaccent" unicode="&#x123;" horiz-adv-x="648" 
d="M327 724q-35 2 -58.5 27t-23.5 60q0 37 24.5 63t61.5 26q38 0 60 -27t22 -71q0 -151 -153 -229v61q52 33 67 90zM584 517v-536q0 -112 -71 -179t-190 -67q-117 0 -184 53.5t-82 145.5l145 5q5 -38 36 -59t80 -21q56 0 88.5 28.5t32.5 82.5v74q-51 -55 -146 -55
q-110 0 -179.5 74t-69.5 195t69.5 195t179.5 74q106 0 154 -64v54h137zM439 246v24q0 61 -33.5 96.5t-88.5 35.5q-56 0 -90.5 -38t-34.5 -106t34.5 -106t90.5 -38q55 0 88.5 35.5t33.5 96.5z" />
    <glyph glyph-name="Hcircumflex" unicode="&#x124;" horiz-adv-x="762" 
d="M569 795h-123l-64 75l-65 -75h-122l117 160h141zM687 0h-154v315h-303v-315h-155v748h155v-296h303v296h154v-748z" />
    <glyph glyph-name="hcircumflex" unicode="&#x125;" horiz-adv-x="616" 
d="M334 801h-122l-64 76l-65 -76h-122l116 160h141zM218 777v-304q42 54 131 54q91 0 146.5 -56t55.5 -155v-316h-146v288q0 49 -24.5 76t-66.5 27q-43 0 -69.5 -28.5t-26.5 -75.5v-287h-146v777h146z" />
    <glyph glyph-name="Hbar" unicode="&#x126;" horiz-adv-x="779" 
d="M770 539h-75v-539h-154v315h-303v-315h-154v539h-75v117h75v92h154v-92h303v92h154v-92h75v-117zM541 539h-303v-87h303v87z" />
    <glyph glyph-name="hbar" unicode="&#x127;" horiz-adv-x="616" 
d="M349 527q91 0 146.5 -56t55.5 -155v-316h-146v288q0 49 -24.5 76t-66.5 27q-43 0 -69.5 -28.5t-26.5 -75.5v-287h-146v596h-69v112h69v69h146v-69h85v-112h-85v-123q42 54 131 54z" />
    <glyph glyph-name="Itilde" unicode="&#x128;" horiz-adv-x="305" 
d="M82 959q35 0 74.5 -26.5t58.5 -26.5q40 0 42 46h82q5 -63 -25 -109t-83 -46q-35 0 -74.5 26.5t-57.5 26.5q-42 0 -42 -46h-82q-5 63 24.5 109t82.5 46zM230 0h-155v748h155v-748z" />
    <glyph glyph-name="itilde" unicode="&#x129;" horiz-adv-x="291" 
d="M73 761q35 0 74.5 -27t58.5 -27q40 0 42 47h82q5 -63 -25 -109.5t-83 -46.5q-35 0 -74.5 26.5t-57.5 26.5q-42 0 -42 -46h-82q-5 63 24.5 109.5t82.5 46.5zM218 0h-146v517h146v-517z" />
    <glyph glyph-name="Imacron" unicode="&#x12a;" horiz-adv-x="305" 
d="M307 815h-300v111h300v-111zM230 0h-155v748h155v-748z" />
    <glyph glyph-name="imacron" unicode="&#x12b;" horiz-adv-x="291" 
d="M298 619h-300v112h300v-112zM218 0h-146v517h146v-517z" />
    <glyph glyph-name="Ibreve" unicode="&#x12c;" horiz-adv-x="305" 
d="M224 961h118q0 -81 -50.5 -123t-135.5 -42q-84 0 -134.5 42t-50.5 123h118q0 -30 18.5 -47t48.5 -17q31 0 49.5 17t18.5 47zM230 0h-155v748h155v-748z" />
    <glyph glyph-name="ibreve" unicode="&#x12d;" horiz-adv-x="291" 
d="M216 758h118q0 -81 -50.5 -123t-135.5 -42q-84 0 -134.5 42t-50.5 123h118q0 -30 18.5 -47.5t48.5 -17.5q31 0 49.5 17.5t18.5 47.5zM218 0h-146v517h146v-517z" />
    <glyph glyph-name="Iogonek" unicode="&#x12e;" horiz-adv-x="305" 
d="M230 0h-63q-37 -21 -54 -38t-17 -40q0 -36 41 -36q27 0 50 12l13 -71q-39 -18 -87 -18q-56 0 -91 24t-35 71q0 65 88 105v739h155v-748z" />
    <glyph glyph-name="iogonek" unicode="&#x12f;" horiz-adv-x="291" 
d="M148 594q-36 0 -61.5 25.5t-25.5 62.5q0 36 26 62t61 26q37 0 62.5 -26t25.5 -62q0 -37 -25.5 -62.5t-62.5 -25.5zM72 517h146v-517h-38q-37 -21 -54 -38t-17 -40q0 -36 41 -36q28 0 50 12l13 -71q-39 -18 -87 -18q-56 0 -91 24t-35 71q0 61 72 97v516z" />
    <glyph glyph-name="Idotaccent" unicode="&#x130;" horiz-adv-x="305" 
d="M157 973q37 0 62.5 -25.5t25.5 -62.5t-25.5 -62t-62.5 -25q-36 0 -61.5 25t-25.5 62t26 62.5t61 25.5zM230 0h-155v748h155v-748z" />
    <glyph glyph-name="dotlessi" unicode="&#x131;" horiz-adv-x="291" 
d="M218 0h-146v517h146v-517z" />
    <glyph glyph-name="Jcircumflex" unicode="&#x134;" horiz-adv-x="614" 
d="M662 795h-123l-64 75l-65 -75h-122l117 160h141zM544 748v-481q0 -131 -70 -204.5t-193 -73.5q-116 0 -186 66.5t-77 185.5l155 25q4 -67 32 -103.5t77 -36.5q108 0 108 136v486h154z" />
    <glyph glyph-name="jcircumflex" unicode="&#x135;" horiz-adv-x="291" 
d="M331 599h-122l-65 82l-65 -82h-122l116 177h141zM219 517v-568q0 -107 -54 -160.5t-143 -53.5q-76 0 -128 34l58 119q28 -24 55 -24q66 0 66 77v576h146z" />
    <glyph glyph-name="Kcommaaccent" unicode="&#x136;" horiz-adv-x="721" 
d="M712 0h-182l-208 318l-92 -111v-207h-155v748h155v-309l254 309h198l-257 -306zM369 -43q38 0 60 -27t22 -71q0 -151 -153 -229v61q52 33 67 90q-35 2 -58.5 27t-23.5 60q0 37 24.5 63t61.5 26z" />
    <glyph glyph-name="kcommaaccent" unicode="&#x137;" horiz-adv-x="582" 
d="M576 0h-177l-135 187l-46 -50v-137h-146v777h146v-444l167 184h177l-195 -221zM302 -43q38 0 60 -27t22 -71q0 -151 -153 -229v61q52 33 67 90q-35 2 -58.5 27t-23.5 60q0 37 24.5 63t61.5 26z" />
    <glyph glyph-name="Lacute" unicode="&#x139;" horiz-adv-x="591" 
d="M224 795h-133l128 154h199zM230 137h326v-137h-481v748h155v-611z" />
    <glyph glyph-name="lacute" unicode="&#x13a;" horiz-adv-x="291" 
d="M217 812h-133l128 154h199zM218 0h-146v777h146v-777z" />
    <glyph glyph-name="Lcommaaccent" unicode="&#x13b;" horiz-adv-x="591" 
d="M556 137v-137h-481v748h155v-611h326zM324 -43q38 0 60 -27t22 -71q0 -151 -153 -229v61q52 33 67 90q-35 2 -58.5 27t-23.5 60q0 37 24.5 63t61.5 26z" />
    <glyph glyph-name="lcommaaccent" unicode="&#x13c;" horiz-adv-x="291" 
d="M218 0h-146v777h146v-777zM146 -43q38 0 60 -27t22 -71q0 -151 -153 -229v61q52 33 67 90q-35 2 -58.5 27t-23.5 60q0 37 24.5 63t61.5 26z" />
    <glyph glyph-name="Lcaron" unicode="&#x13d;" horiz-adv-x="591" 
d="M513 600q-35 2 -58.5 27t-23.5 60q0 37 24.5 63t61.5 26q38 0 60 -27t22 -71q0 -151 -153 -229v61q52 33 67 90zM230 137h326v-137h-481v748h155v-611z" />
    <glyph glyph-name="lcaron" unicode="&#x13e;" horiz-adv-x="451" 
d="M72 777h146v-777h-146v777zM359 776q38 0 60 -27t22 -71q0 -151 -153 -229v61q52 33 67 90q-35 2 -58.5 27t-23.5 60q0 37 24.5 63t61.5 26z" />
    <glyph glyph-name="Ldot" unicode="&#x13f;" horiz-adv-x="591" 
d="M230 137h326v-137h-481v748h155v-611zM460 502q37 0 63 -26t26 -63t-26 -62.5t-63 -25.5t-62.5 25.5t-25.5 62.5t25.5 63t62.5 26z" />
    <glyph glyph-name="ldot" unicode="&#x140;" horiz-adv-x="469" 
d="M218 0h-146v777h146v-777zM357 412q37 0 63 -26t26 -63t-26 -62.5t-63 -25.5t-62.5 25.5t-25.5 62.5t25.5 63t62.5 26z" />
    <glyph glyph-name="Lslash" unicode="&#x141;" horiz-adv-x="601" 
d="M567 137v-137h-481v274l-74 -14l-17 117l91 17v354h155v-324l87 17l17 -116l-104 -20v-168h326z" />
    <glyph glyph-name="lslash" unicode="&#x142;" horiz-adv-x="315" 
d="M232 262v-262h-145v223l-79 -21l-26 115l105 28v432h145v-393l75 20l27 -115z" />
    <glyph glyph-name="Nacute" unicode="&#x143;" horiz-adv-x="764" 
d="M440 795h-133l128 154h199zM689 0h-131l-328 463v-463h-155v748h131l329 -464v464h154v-748z" />
    <glyph glyph-name="nacute" unicode="&#x144;" horiz-adv-x="618" 
d="M375 598h-114l85 191h164zM349 527q91 0 146.5 -56t55.5 -155v-316h-146v288q0 49 -24.5 76t-66.5 27q-43 0 -69.5 -28.5t-26.5 -75.5v-287h-146v517h138v-53q40 63 139 63z" />
    <glyph glyph-name="Ncommaaccent" unicode="&#x145;" horiz-adv-x="764" 
d="M689 748v-748h-131l-328 463v-463h-155v748h131l329 -464v464h154zM396 -43q38 0 60 -27t22 -71q0 -151 -153 -229v61q52 33 67 90q-35 2 -58.5 27t-23.5 60q0 37 24.5 63t61.5 26z" />
    <glyph glyph-name="ncommaaccent" unicode="&#x146;" horiz-adv-x="618" 
d="M349 527q91 0 146.5 -56t55.5 -155v-316h-146v288q0 49 -24.5 76t-66.5 27q-43 0 -69.5 -28.5t-26.5 -75.5v-287h-146v517h138v-53q40 63 139 63zM313 -43q38 0 60 -27t22 -71q0 -151 -153 -229v61q52 33 67 90q-35 2 -58.5 27t-23.5 60q0 37 24.5 63t61.5 26z" />
    <glyph glyph-name="Ncaron" unicode="&#x147;" horiz-adv-x="764" 
d="M446 795h-141l-117 160h122l65 -75l64 75h123zM689 0h-131l-328 463v-463h-155v748h131l329 -464v464h154v-748z" />
    <glyph glyph-name="ncaron" unicode="&#x148;" horiz-adv-x="618" 
d="M391 597h-141l-116 176h122l65 -82l65 82h122zM349 527q91 0 146.5 -56t55.5 -155v-316h-146v288q0 49 -24.5 76t-66.5 27q-43 0 -69.5 -28.5t-26.5 -75.5v-287h-146v517h138v-53q40 63 139 63z" />
    <glyph glyph-name="Eng" unicode="&#x14a;" horiz-adv-x="764" 
d="M689 748v-769q0 -102 -71.5 -168t-192.5 -66v136q53 0 81.5 35t28.5 101v15l-305 431v-463h-155v748h131l329 -464v464h154z" />
    <glyph glyph-name="eng" unicode="&#x14b;" horiz-adv-x="618" 
d="M349 527q91 0 146.5 -56t55.5 -155v-366q0 -98 -59.5 -155t-162.5 -57v127q32 0 54 22.5t22 59.5v341q0 49 -24.5 76t-66.5 27q-43 0 -69.5 -28.5t-26.5 -75.5v-287h-146v517h138v-53q40 63 139 63z" />
    <glyph glyph-name="Omacron" unicode="&#x14c;" horiz-adv-x="875" 
d="M584 815h-300v111h300v-111zM438 759q170 0 279 -105.5t109 -279.5t-109 -279.5t-279 -105.5q-171 0 -280 105.5t-109 279.5t109 279.5t280 105.5zM438 622q-104 0 -168 -66.5t-64 -181.5q0 -114 64 -181t168 -67q103 0 166.5 67t63.5 181q0 115 -63.5 181.5t-166.5 66.5
z" />
    <glyph glyph-name="omacron" unicode="&#x14d;" horiz-adv-x="638" 
d="M468 619h-300v112h300v-112zM319 527q120 0 197.5 -74t77.5 -195q0 -120 -77.5 -194.5t-197.5 -74.5t-197.5 74.5t-77.5 194.5q0 121 77.5 195t197.5 74zM319 402q-57 0 -92 -38.5t-35 -105.5t35 -105t92 -38t92 38t35 105t-35 105.5t-92 38.5z" />
    <glyph glyph-name="Obreve" unicode="&#x14e;" horiz-adv-x="875" 
d="M502 961h118q0 -81 -50.5 -123t-135.5 -42q-84 0 -134.5 42t-50.5 123h118q0 -30 18.5 -47t48.5 -17q31 0 49.5 17t18.5 47zM438 759q170 0 279 -105.5t109 -279.5t-109 -279.5t-279 -105.5q-171 0 -280 105.5t-109 279.5t109 279.5t280 105.5zM438 622
q-104 0 -168 -66.5t-64 -181.5q0 -114 64 -181t168 -67q103 0 166.5 67t63.5 181q0 115 -63.5 181.5t-166.5 66.5z" />
    <glyph glyph-name="obreve" unicode="&#x14f;" horiz-adv-x="638" 
d="M385 758h118q0 -81 -50.5 -123t-135.5 -42q-84 0 -134.5 42t-50.5 123h118q0 -30 18.5 -47.5t48.5 -17.5q31 0 49.5 17.5t18.5 47.5zM319 527q120 0 197.5 -74t77.5 -195q0 -120 -77.5 -194.5t-197.5 -74.5t-197.5 74.5t-77.5 194.5q0 121 77.5 195t197.5 74zM319 402
q-57 0 -92 -38.5t-35 -105.5t35 -105t92 -38t92 38t35 105t-35 105.5t-92 38.5z" />
    <glyph glyph-name="Ohungarumlaut" unicode="&#x150;" horiz-adv-x="875" 
d="M383 798h-113l61 169h138zM585 798h-113l61 169h138zM438 759q170 0 279 -105.5t109 -279.5t-109 -279.5t-279 -105.5q-171 0 -280 105.5t-109 279.5t109 279.5t280 105.5zM438 622q-104 0 -168 -66.5t-64 -181.5q0 -114 64 -181t168 -67q103 0 166.5 67t63.5 181
q0 115 -63.5 181.5t-166.5 66.5z" />
    <glyph glyph-name="ohungarumlaut" unicode="&#x151;" horiz-adv-x="638" 
d="M271 602h-114l62 180h138zM473 602h-114l62 180h138zM319 527q120 0 197.5 -74t77.5 -195q0 -120 -77.5 -194.5t-197.5 -74.5t-197.5 74.5t-77.5 194.5q0 121 77.5 195t197.5 74zM319 402q-57 0 -92 -38.5t-35 -105.5t35 -105t92 -38t92 38t35 105t-35 105.5t-92 38.5z
" />
    <glyph glyph-name="OE" unicode="&#x152;" horiz-adv-x="1195" 
d="M1149 137v-137h-480v56q-98 -67 -231 -67q-171 0 -280 105.5t-109 279.5t109 279.5t280 105.5q133 0 231 -67v56h479v-136h-325v-162h282v-133h-282v-180h326zM438 126q103 0 166.5 67t63.5 181q0 115 -63.5 181.5t-166.5 66.5q-104 0 -168 -66.5t-64 -181.5
q0 -114 64 -181t168 -67z" />
    <glyph glyph-name="oe" unicode="&#x153;" horiz-adv-x="1001" 
d="M956 212h-355q2 -49 30.5 -77t77.5 -28q78 0 95 57l147 -7q-14 -74 -81 -121t-158 -47q-122 0 -195 75q-77 -75 -198 -75q-120 0 -197.5 74.5t-77.5 194.5q0 121 77.5 195t197.5 74q121 0 198 -75q73 75 192 75q113 0 180 -68.5t67 -188.5v-58zM707 413
q-46 0 -74.5 -27.5t-31.5 -76.5h208q-2 49 -28 76.5t-74 27.5zM319 115q57 0 92 38t35 105t-35 105.5t-92 38.5t-92 -38.5t-35 -105.5t35 -105t92 -38z" />
    <glyph glyph-name="Racute" unicode="&#x154;" horiz-adv-x="707" 
d="M384 795h-133l128 154h199zM501 0l-146 269h-125v-269h-155v748h320q109 0 175 -63.5t66 -176.5q0 -77 -31.5 -131.5t-88.5 -82.5l159 -294h-174zM229 406h147q46 0 74.5 27t28.5 75q0 50 -28.5 77t-74.5 27h-147v-206z" />
    <glyph glyph-name="racute" unicode="&#x155;" horiz-adv-x="378" 
d="M278 598h-114l85 191h164zM355 522v-141q-63 0 -100 -32.5t-37 -86.5v-262h-146v517h141v-59q41 64 142 64z" />
    <glyph glyph-name="Rcommaaccent" unicode="&#x156;" horiz-adv-x="707" 
d="M675 0h-174l-146 269h-125v-269h-155v748h320q109 0 175 -63.5t66 -176.5q0 -77 -31.5 -131.5t-88.5 -82.5zM229 406h147q46 0 74.5 27t28.5 75q0 50 -28.5 77t-74.5 27h-147v-206zM360 -43q38 0 60 -27t22 -71q0 -151 -153 -229v61q52 33 67 90q-35 2 -58.5 27t-23.5 60
q0 37 24.5 63t61.5 26z" />
    <glyph glyph-name="rcommaaccent" unicode="&#x157;" horiz-adv-x="378" 
d="M213 517v-59q41 64 142 64v-141q-63 0 -100 -32.5t-37 -86.5v-262h-146v517h141zM146 -43q38 0 60 -27t22 -71q0 -151 -153 -229v61q52 33 67 90q-35 2 -58.5 27t-23.5 60q0 37 24.5 63t61.5 26z" />
    <glyph glyph-name="Rcaron" unicode="&#x158;" horiz-adv-x="707" 
d="M248 795l-117 160h122l65 -75l64 75h123l-116 -160h-141zM501 0l-146 269h-125v-269h-155v748h320q109 0 175 -63.5t66 -176.5q0 -77 -31.5 -131.5t-88.5 -82.5l159 -294h-174zM229 406h147q46 0 74.5 27t28.5 75q0 50 -28.5 77t-74.5 27h-147v-206z" />
    <glyph glyph-name="rcaron" unicode="&#x159;" horiz-adv-x="378" 
d="M294 597h-141l-116 176h122l65 -82l65 82h122zM355 522v-141q-63 0 -100 -32.5t-37 -86.5v-262h-146v517h141v-59q41 64 142 64z" />
    <glyph glyph-name="Sacute" unicode="&#x15a;" horiz-adv-x="663" 
d="M396 795h-133l128 154h199zM328 759q123 0 198.5 -61.5t78.5 -168.5l-158 -8q-1 48 -32 76t-84 28q-52 0 -81.5 -24.5t-29.5 -65.5q0 -40 31 -58.5t115 -38.5q129 -33 191.5 -80t62.5 -140q0 -113 -77.5 -171t-197.5 -58q-133 0 -216 63t-84 177l157 8q2 -51 42 -82.5
t101 -31.5q118 0 118 86q0 40 -35.5 61t-118.5 42q-60 15 -97 28.5t-75.5 38t-56.5 62t-18 89.5q0 98 69 163.5t197 65.5z" />
    <glyph glyph-name="sacute" unicode="&#x15b;" horiz-adv-x="506" 
d="M300 598h-114l85 191h164zM249 527q95 0 148.5 -46t60.5 -121l-145 -8q-3 63 -66 63q-59 0 -59 -44q0 -6 1 -11t4.5 -9t6.5 -7t10 -6t11.5 -5t14 -5t15.5 -4.5t18.5 -4.5t19.5 -5q89 -23 132.5 -55.5t43.5 -97.5q0 -80 -56 -126t-156 -46q-99 0 -155.5 43.5t-64.5 124.5
l146 8q3 -64 75 -64q30 0 47.5 12.5t17.5 34.5q0 23 -18.5 34t-75.5 25q-40 10 -62.5 17t-49 19.5t-39.5 27.5t-22.5 38.5t-9.5 54.5q0 75 55 119t152 44z" />
    <glyph glyph-name="Scircumflex" unicode="&#x15c;" horiz-adv-x="663" 
d="M517 795h-123l-64 75l-65 -75h-122l117 160h141zM328 759q123 0 198.5 -61.5t78.5 -168.5l-158 -8q-1 48 -32 76t-84 28q-52 0 -81.5 -24.5t-29.5 -65.5q0 -40 31 -58.5t115 -38.5q129 -33 191.5 -80t62.5 -140q0 -113 -77.5 -171t-197.5 -58q-133 0 -216 63t-84 177
l157 8q2 -51 42 -82.5t101 -31.5q118 0 118 86q0 40 -35.5 61t-118.5 42q-60 15 -97 28.5t-75.5 38t-56.5 62t-18 89.5q0 98 69 163.5t197 65.5z" />
    <glyph glyph-name="scircumflex" unicode="&#x15d;" horiz-adv-x="506" 
d="M432 599h-122l-65 82l-65 -82h-122l116 177h141zM249 527q95 0 148.5 -46t60.5 -121l-145 -8q-3 63 -66 63q-59 0 -59 -44q0 -6 1 -11t4.5 -9t6.5 -7t10 -6t11.5 -5t14 -5t15.5 -4.5t18.5 -4.5t19.5 -5q89 -23 132.5 -55.5t43.5 -97.5q0 -80 -56 -126t-156 -46
q-99 0 -155.5 43.5t-64.5 124.5l146 8q3 -64 75 -64q30 0 47.5 12.5t17.5 34.5q0 23 -18.5 34t-75.5 25q-40 10 -62.5 17t-49 19.5t-39.5 27.5t-22.5 38.5t-9.5 54.5q0 75 55 119t152 44z" />
    <glyph glyph-name="Scedilla" unicode="&#x15e;" horiz-adv-x="663" 
d="M620 218q0 -107 -69.5 -164.5t-179.5 -63.5l-9 -36q46 -3 79 -30.5t33 -73.5q0 -52 -41 -79.5t-99 -27.5q-61 0 -99 19l23 77q22 -14 55 -14q52 0 52 35q0 37 -55 37q-19 0 -36 -5l32 99q-118 9 -189 71t-72 167l157 8q2 -51 42 -82.5t101 -31.5q118 0 118 86
q0 40 -35.5 61t-118.5 42q-60 15 -97 28.5t-75.5 38t-56.5 62t-18 89.5q0 98 69 163.5t197 65.5q123 0 198.5 -61.5t78.5 -168.5l-158 -8q-1 48 -32 76t-84 28q-52 0 -81.5 -24.5t-29.5 -65.5q0 -40 31 -58.5t115 -38.5q129 -33 191.5 -80t62.5 -140z" />
    <glyph glyph-name="scedilla" unicode="&#x15f;" horiz-adv-x="506" 
d="M465 161q0 -73 -48 -118.5t-135 -52.5l-9 -36q46 -3 79 -30.5t33 -73.5q0 -52 -41 -79.5t-99 -27.5q-61 0 -99 19l23 77q22 -14 55 -14q52 0 52 35q0 37 -55 37q-19 0 -36 -5l32 99q-82 7 -129 49.5t-55 116.5l146 8q3 -64 75 -64q30 0 47.5 12.5t17.5 34.5
q0 23 -18.5 34t-75.5 25q-40 10 -62.5 17t-49 19.5t-39.5 27.5t-22.5 38.5t-9.5 54.5q0 75 55 119t152 44q95 0 148.5 -46t60.5 -121l-145 -8q-3 63 -66 63q-59 0 -59 -44q0 -6 1 -11t4.5 -9t6.5 -7t10 -6t11.5 -5t14 -5t15.5 -4.5t18.5 -4.5t19.5 -5q89 -23 132.5 -55.5
t43.5 -97.5z" />
    <glyph glyph-name="Scaron" unicode="&#x160;" horiz-adv-x="663" 
d="M401 795h-141l-117 160h122l65 -75l64 75h123zM328 759q123 0 198.5 -61.5t78.5 -168.5l-158 -8q-1 48 -32 76t-84 28q-52 0 -81.5 -24.5t-29.5 -65.5q0 -40 31 -58.5t115 -38.5q129 -33 191.5 -80t62.5 -140q0 -113 -77.5 -171t-197.5 -58q-133 0 -216 63t-84 177l157 8
q2 -51 42 -82.5t101 -31.5q118 0 118 86q0 40 -35.5 61t-118.5 42q-60 15 -97 28.5t-75.5 38t-56.5 62t-18 89.5q0 98 69 163.5t197 65.5z" />
    <glyph glyph-name="scaron" unicode="&#x161;" horiz-adv-x="506" 
d="M315 597h-141l-116 176h122l65 -82l65 82h122zM249 527q95 0 148.5 -46t60.5 -121l-145 -8q-3 63 -66 63q-59 0 -59 -44q0 -6 1 -11t4.5 -9t6.5 -7t10 -6t11.5 -5t14 -5t15.5 -4.5t18.5 -4.5t19.5 -5q89 -23 132.5 -55.5t43.5 -97.5q0 -80 -56 -126t-156 -46
q-99 0 -155.5 43.5t-64.5 124.5l146 8q3 -64 75 -64q30 0 47.5 12.5t17.5 34.5q0 23 -18.5 34t-75.5 25q-40 10 -62.5 17t-49 19.5t-39.5 27.5t-22.5 38.5t-9.5 54.5q0 75 55 119t152 44z" />
    <glyph glyph-name="Tcaron" unicode="&#x164;" horiz-adv-x="693" 
d="M421 795h-141l-117 160h122l65 -75l64 75h123zM674 612h-250v-612h-154v612h-251v136h655v-136z" />
    <glyph glyph-name="tcaron" unicode="&#x165;" horiz-adv-x="585" 
d="M491 776q38 0 60 -27t22 -71q0 -151 -153 -229v61q52 33 67 90q-35 2 -58.5 27t-23.5 60q0 37 24.5 63t61.5 26zM252 517h121v-126h-122l-1 -192q0 -40 22 -59t56 -19q17 0 45 5v-130q-42 -6 -81 -6q-88 0 -138.5 43.5t-49.5 130.5l1 227h-94v126h95l1 171h146z" />
    <glyph glyph-name="Tbar" unicode="&#x166;" horiz-adv-x="693" 
d="M424 612v-198h123v-118h-123v-296h-154v296h-124v118h124v198h-251v136h655v-136h-250z" />
    <glyph glyph-name="tbar" unicode="&#x167;" horiz-adv-x="404" 
d="M251 391v-76h122v-104h-123v-12q0 -40 22 -59t56 -19q17 0 45 5v-130q-42 -6 -81 -6q-88 0 -138.5 43.5t-49.5 130.5v47h-93v104h94v76h-94v126h95l1 171h146l-1 -171h121v-126h-122z" />
    <glyph glyph-name="Utilde" unicode="&#x168;" horiz-adv-x="777" 
d="M313 959q35 0 74.5 -26.5t58.5 -26.5q40 0 42 46h82q5 -63 -25 -109t-83 -46q-35 0 -74.5 26.5t-57.5 26.5q-42 0 -42 -46h-82q-5 63 24.5 109t82.5 46zM707 748v-444q0 -149 -85 -232t-233 -83q-149 0 -234 83t-85 232v444h154v-442q0 -88 42 -134t123 -46q80 0 122 46
t42 134v442h154z" />
    <glyph glyph-name="utilde" unicode="&#x169;" 
d="M226 761q35 0 74.5 -27t58.5 -27q40 0 42 47h82q5 -63 -25 -109.5t-83 -46.5q-35 0 -74.5 26.5t-57.5 26.5q-42 0 -42 -46h-82q-5 63 24.5 109.5t82.5 46.5zM530 0h-138v52q-39 -63 -134 -63q-89 0 -140 54t-51 149v325h146v-294q0 -98 83 -98q41 0 64.5 27.5t23.5 72.5
v292h146v-517z" />
    <glyph glyph-name="Umacron" unicode="&#x16a;" horiz-adv-x="777" 
d="M538 815h-300v111h300v-111zM707 748v-444q0 -149 -85 -232t-233 -83q-149 0 -234 83t-85 232v444h154v-442q0 -88 42 -134t123 -46q80 0 122 46t42 134v442h154z" />
    <glyph glyph-name="umacron" unicode="&#x16b;" 
d="M452 619h-300v112h300v-112zM530 0h-138v52q-39 -63 -134 -63q-89 0 -140 54t-51 149v325h146v-294q0 -98 83 -98q41 0 64.5 27.5t23.5 72.5v292h146v-517z" />
    <glyph glyph-name="Ubreve" unicode="&#x16c;" horiz-adv-x="777" 
d="M456 961h118q0 -81 -50.5 -123t-135.5 -42q-84 0 -134.5 42t-50.5 123h118q0 -30 18.5 -47t48.5 -17q31 0 49.5 17t18.5 47zM707 748v-444q0 -149 -85 -232t-233 -83q-149 0 -234 83t-85 232v444h154v-442q0 -88 42 -134t123 -46q80 0 122 46t42 134v442h154z" />
    <glyph glyph-name="ubreve" unicode="&#x16d;" 
d="M369 758h118q0 -81 -50.5 -123t-135.5 -42q-84 0 -134.5 42t-50.5 123h118q0 -30 18.5 -47.5t48.5 -17.5q31 0 49.5 17.5t18.5 47.5zM530 0h-138v52q-39 -63 -134 -63q-89 0 -140 54t-51 149v325h146v-294q0 -98 83 -98q41 0 64.5 27.5t23.5 72.5v292h146v-517z" />
    <glyph glyph-name="Uring" unicode="&#x16e;" horiz-adv-x="777" 
d="M389 1008q47 0 80 -30.5t33 -77.5q0 -46 -33 -76.5t-80 -30.5q-49 0 -82.5 30.5t-33.5 76.5q0 47 33.5 77.5t82.5 30.5zM389 941q-19 0 -30.5 -11.5t-11.5 -29.5q0 -17 11.5 -28t30.5 -11q17 0 28 11t11 28q0 18 -11 29.5t-28 11.5zM707 748v-444q0 -149 -85 -232
t-233 -83q-149 0 -234 83t-85 232v444h154v-442q0 -88 42 -134t123 -46q80 0 122 46t42 134v442h154z" />
    <glyph glyph-name="uring" unicode="&#x16f;" 
d="M302 823q55 0 93 -34.5t38 -87.5t-38 -87.5t-93 -34.5t-93 34.5t-38 87.5t38 87.5t93 34.5zM302 745q-21 0 -33 -12t-12 -32t12 -31.5t33 -11.5q20 0 32 11.5t12 31.5t-12 32t-32 12zM530 0h-138v52q-39 -63 -134 -63q-89 0 -140 54t-51 149v325h146v-294q0 -98 83 -98
q41 0 64.5 27.5t23.5 72.5v292h146v-517z" />
    <glyph glyph-name="Uhungarumlaut" unicode="&#x170;" horiz-adv-x="777" 
d="M337 798h-113l61 169h138zM539 798h-113l61 169h138zM707 748v-444q0 -149 -85 -232t-233 -83q-149 0 -234 83t-85 232v444h154v-442q0 -88 42 -134t123 -46q80 0 122 46t42 134v442h154z" />
    <glyph glyph-name="uhungarumlaut" unicode="&#x171;" 
d="M255 602h-114l62 180h138zM457 602h-114l62 180h138zM530 0h-138v52q-39 -63 -134 -63q-89 0 -140 54t-51 149v325h146v-294q0 -98 83 -98q41 0 64.5 27.5t23.5 72.5v292h146v-517z" />
    <glyph glyph-name="Uogonek" unicode="&#x172;" horiz-adv-x="777" 
d="M707 748v-444q0 -124 -59.5 -203t-166.5 -103q-36 -20 -52.5 -36.5t-16.5 -39.5q0 -36 41 -36q27 0 50 12l13 -71q-39 -18 -87 -18q-56 0 -91 24t-35 71q0 52 53 86q-134 9 -210 91t-76 223v444h154v-442q0 -88 42 -134t123 -46q80 0 122 46t42 134v442h154z" />
    <glyph glyph-name="uogonek" unicode="&#x173;" 
d="M519 -103l13 -71q-39 -18 -87 -18q-56 0 -91 24t-35 71q0 61 73 98v51q-39 -63 -134 -63q-89 0 -140 54t-51 149v325h146v-294q0 -98 83 -98q41 0 64.5 27.5t23.5 72.5v292h146v-517h-29q-39 -22 -56 -38.5t-17 -40.5q0 -36 41 -36q27 0 50 12z" />
    <glyph glyph-name="Wcircumflex" unicode="&#x174;" horiz-adv-x="1125" 
d="M750 795h-123l-64 75l-65 -75h-122l117 160h141zM852 0h-130l-159 474l-159 -474h-131l-261 748h168l160 -486l159 486h127l160 -486l159 486h168z" />
    <glyph glyph-name="wcircumflex" unicode="&#x175;" horiz-adv-x="846" 
d="M612 599h-122l-65 82l-65 -82h-122l116 177h141zM643 0h-116l-104 274l-104 -274h-116l-198 517h160l101 -296l106 296h102l107 -296l101 296h160z" />
    <glyph glyph-name="Ycircumflex" unicode="&#x176;" horiz-adv-x="744" 
d="M559 795h-123l-64 75l-65 -75h-122l117 160h141zM450 288v-288h-154v288l-284 460h179l181 -307l181 307h180z" />
    <glyph glyph-name="ycircumflex" unicode="&#x177;" horiz-adv-x="573" 
d="M474 599h-122l-65 82l-65 -82h-122l116 177h141zM236 -255h-159l132 301l-202 471h161l119 -308l118 308h162z" />
    <glyph glyph-name="Ydieresis" unicode="&#x178;" horiz-adv-x="744" 
d="M277 957q33 0 56.5 -23t23.5 -56t-23.5 -56t-56.5 -23t-56 23t-23 56t23 56t56 23zM470 957q33 0 56 -23t23 -56t-23 -56t-56 -23t-56 23t-23 56t23 56t56 23zM450 288v-288h-154v288l-284 460h179l181 -307l181 307h180z" />
    <glyph glyph-name="Zacute" unicode="&#x179;" horiz-adv-x="626" 
d="M376 795h-133l128 154h199zM582 631l-348 -494h358v-137h-555v117l346 495h-341v136h540v-117z" />
    <glyph glyph-name="zacute" unicode="&#x17a;" horiz-adv-x="455" 
d="M285 598h-114l85 191h164zM414 420l-211 -302h219v-118h-388v96l212 303h-208v118h376v-97z" />
    <glyph glyph-name="Zdotaccent" unicode="&#x17b;" horiz-adv-x="626" 
d="M311 973q37 0 62.5 -25.5t25.5 -62.5t-25.5 -62t-62.5 -25q-36 0 -61.5 25t-25.5 62t26 62.5t61 25.5zM582 631l-348 -494h358v-137h-555v117l346 495h-341v136h540v-117z" />
    <glyph glyph-name="zdotaccent" unicode="&#x17c;" horiz-adv-x="455" 
d="M230 770q37 0 62.5 -26t25.5 -62q0 -37 -25.5 -62.5t-62.5 -25.5q-36 0 -61.5 25.5t-25.5 62.5q0 36 26 62t61 26zM414 420l-211 -302h219v-118h-388v96l212 303h-208v118h376v-97z" />
    <glyph glyph-name="Zcaron" unicode="&#x17d;" horiz-adv-x="626" 
d="M382 795h-141l-117 160h122l65 -75l64 75h123zM582 631l-348 -494h358v-137h-555v117l346 495h-341v136h540v-117z" />
    <glyph glyph-name="zcaron" unicode="&#x17e;" horiz-adv-x="455" 
d="M301 597h-141l-116 176h122l65 -82l65 82h122zM414 420l-211 -302h219v-118h-388v96l212 303h-208v118h376v-97z" />
    <glyph glyph-name="florin" unicode="&#x192;" horiz-adv-x="444" 
d="M365 786q88 0 147 -41l-58 -120q-30 32 -73 32q-61 0 -74 -66l-13 -74h125v-121h-147l-95 -538h-148l95 538h-95v121h117l17 98q15 86 68.5 128.5t133.5 42.5z" />
    <glyph glyph-name="Aringacute" unicode="&#x1fa;" horiz-adv-x="789" 
d="M404 772q-49 0 -82 30.5t-33 76.5q0 56 45 87l118 113h182l-168 -109q51 -30 51 -91q0 -46 -32.5 -76.5t-80.5 -30.5zM404 840q17 0 28.5 11t11.5 28q0 18 -11.5 29.5t-28.5 11.5q-19 0 -30 -11.5t-11 -29.5q0 -17 11.5 -28t29.5 -11zM781 0h-170l-61 144h-311l-62 -144
h-169l321 748h130zM496 270l-101 239l-101 -239h202z" />
    <glyph glyph-name="aringacute" unicode="&#x1fb;" horiz-adv-x="557" 
d="M281 575q-49 0 -82 30.5t-33 77.5q0 51 39 82l124 117h182l-168 -108q52 -30 52 -91q0 -47 -33 -77.5t-81 -30.5zM281 643q18 0 29 11.5t11 28.5t-11 28.5t-29 11.5q-19 0 -30 -11.5t-11 -28.5t11 -28.5t30 -11.5zM274 527q105 0 160 -53t55 -155v-319h-141v42
q-51 -53 -132 -53q-80 0 -126 39.5t-46 113.5q0 148 207 157l92 5v20q0 80 -67 80q-35 0 -53.5 -20t-18.5 -48l-146 6q0 72 60.5 128.5t155.5 56.5zM343 208l-78 -5q-75 -3 -75 -54q0 -47 60 -47q41 0 67 22t26 62v22z" />
    <glyph glyph-name="AEacute" unicode="&#x1fc;" horiz-adv-x="1053" 
d="M741 795h-133l128 154h199zM680 612v-162h282v-133h-282v-180h326v-137h-480v144h-236l-97 -144h-188l504 748h497v-136h-326zM526 270v230l-152 -230h152z" />
    <glyph glyph-name="aeacute" unicode="&#x1fd;" horiz-adv-x="899" 
d="M488 598h-114l85 191h164zM855 212h-355q2 -49 30.5 -77t77.5 -28q78 0 95 57l147 -7q-14 -74 -81 -121t-158 -47q-125 0 -198 78q-75 -78 -185 -78q-86 0 -135 40.5t-49 114.5q0 146 207 155l92 5v19q0 82 -68 82q-35 0 -53 -20.5t-18 -48.5l-146 6q0 73 59 129t154 56
q105 0 160 -61q69 61 177 61q113 0 180 -68.5t67 -188.5v-58zM606 413q-46 0 -74.5 -27.5t-31.5 -76.5h208q-2 49 -28 76.5t-74 27.5zM343 208l-78 -5q-75 -3 -75 -53q0 -46 60 -46q39 0 66 20.5t27 61.5v22z" />
    <glyph glyph-name="Oslashacute" unicode="&#x1fe;" horiz-adv-x="868" 
d="M500 795h-133l128 154h199zM779 728l-59 -77q106 -108 106 -277q0 -174 -109 -279.5t-279 -105.5q-106 0 -192 43l-62 -81l-95 72l61 80q-101 104 -101 271q0 174 109 279.5t280 105.5q102 0 185 -40l61 80zM206 374q0 -87 39 -148l289 378q-42 18 -96 18
q-104 0 -168 -66.5t-64 -181.5zM438 126q103 0 166.5 67t63.5 181q0 92 -42 154l-292 -381q47 -21 104 -21z" />
    <glyph glyph-name="oslashacute" unicode="&#x1ff;" horiz-adv-x="638" 
d="M373 598h-114l85 191h164zM560 492l-36 -47q70 -73 70 -187q0 -120 -77.5 -194.5t-197.5 -74.5q-67 0 -121 24l-44 -59l-80 59l42 56q-72 75 -72 189q0 121 77.5 195t197.5 74q66 0 124 -25l37 50zM192 258q0 -39 13 -71l157 208q-18 7 -43 7q-57 0 -92 -38.5t-35 -105.5
zM319 115q57 0 92 38t35 105q0 37 -11 67l-155 -205q20 -5 39 -5z" />
    <glyph glyph-name="Scommaaccent" unicode="&#x218;" horiz-adv-x="663" 
d="M366 438q129 -33 191.5 -80t62.5 -140q0 -113 -77.5 -171t-197.5 -58q-133 0 -216 63t-84 177l157 8q2 -51 42 -82.5t101 -31.5q118 0 118 86q0 40 -35.5 61t-118.5 42q-60 15 -97 28.5t-75.5 38t-56.5 62t-18 89.5q0 98 69 163.5t197 65.5q123 0 198.5 -61.5
t78.5 -168.5l-158 -8q-1 48 -32 76t-84 28q-52 0 -81.5 -24.5t-29.5 -65.5q0 -40 31 -58.5t115 -38.5zM339 -48q38 0 60 -27t22 -71q0 -151 -153 -229v61q52 33 67 90q-35 2 -58.5 27t-23.5 60q0 37 24.5 63t61.5 26z" />
    <glyph glyph-name="scommaaccent" unicode="&#x219;" horiz-adv-x="506" 
d="M289 314q89 -23 132.5 -55.5t43.5 -97.5q0 -80 -56 -126t-156 -46q-99 0 -155.5 43.5t-64.5 124.5l146 8q3 -64 75 -64q30 0 47.5 12.5t17.5 34.5q0 23 -18.5 34t-75.5 25q-40 10 -62.5 17t-49 19.5t-39.5 27.5t-22.5 38.5t-9.5 54.5q0 75 55 119t152 44q95 0 148.5 -46
t60.5 -121l-145 -8q-3 63 -66 63q-59 0 -59 -44q0 -6 1 -11t4.5 -9t6.5 -7t10 -6t11.5 -5t14 -5t15.5 -4.5t18.5 -4.5t19.5 -5zM250 -48q38 0 60 -27t22 -71q0 -151 -153 -229v61q52 33 67 90q-35 2 -58.5 27t-23.5 60q0 37 24.5 63t61.5 26z" />
    <glyph glyph-name="uni021A" unicode="&#x21a;" horiz-adv-x="693" 
d="M674 748v-136h-250v-612h-154v612h-251v136h655zM348 -43q38 0 60 -27t22 -71q0 -151 -153 -229v61q52 33 67 90q-35 2 -58.5 27t-23.5 60q0 37 24.5 63t61.5 26z" />
    <glyph glyph-name="uni021B" unicode="&#x21b;" horiz-adv-x="404" 
d="M251 391l-1 -192q0 -40 22 -59t56 -19q17 0 45 5v-130q-42 -6 -81 -6q-88 0 -138.5 43.5t-49.5 130.5l1 227h-94v126h95l1 171h146l-1 -171h121v-126h-122zM233 -51q38 0 60 -27t22 -71q0 -151 -153 -229v61q52 33 67 90q-35 2 -58.5 27t-23.5 60q0 37 24.5 63t61.5 26z
" />
    <glyph glyph-name="dotlessj" unicode="&#x237;" horiz-adv-x="291" 
d="M219 517v-568q0 -107 -54 -160.5t-143 -53.5q-76 0 -128 34l58 119q28 -24 55 -24q66 0 66 77v576h146z" />
    <glyph glyph-name="circumflex" unicode="&#x2c6;" horiz-adv-x="391" 
d="M383 599h-122l-65 82l-65 -82h-122l116 177h141z" />
    <glyph glyph-name="caron" unicode="&#x2c7;" horiz-adv-x="391" 
d="M266 597h-141l-116 176h122l65 -82l65 82h122z" />
    <glyph glyph-name="breve" unicode="&#x2d8;" horiz-adv-x="391" 
d="M263 758h118q0 -81 -50.5 -123t-135.5 -42q-84 0 -134.5 42t-50.5 123h118q0 -30 18.5 -47.5t48.5 -17.5q31 0 49.5 17.5t18.5 47.5z" />
    <glyph glyph-name="dotaccent" unicode="&#x2d9;" horiz-adv-x="195" 
d="M97 770q37 0 62.5 -26t25.5 -62q0 -37 -25.5 -62.5t-62.5 -25.5q-36 0 -61.5 25.5t-25.5 62.5q0 36 26 62t61 26z" />
    <glyph glyph-name="ring" unicode="&#x2da;" horiz-adv-x="281" 
d="M141 823q55 0 93 -34.5t38 -87.5t-38 -87.5t-93 -34.5t-93 34.5t-38 87.5t38 87.5t93 34.5zM141 745q-21 0 -33 -12t-12 -32t12 -31.5t33 -11.5q20 0 32 11.5t12 31.5t-12 32t-32 12z" />
    <glyph glyph-name="ogonek" unicode="&#x2db;" horiz-adv-x="235" 
d="M172 36l24 -32q-40 -22 -57.5 -39t-17.5 -41q0 -36 41 -36q28 0 50 12l13 -71q-39 -18 -87 -18q-56 0 -91 24t-35 71q0 49 41.5 78.5t118.5 51.5z" />
    <glyph glyph-name="tilde" unicode="&#x2dc;" horiz-adv-x="384" 
d="M117 761q35 0 74.5 -27t58.5 -27q40 0 42 47h82q5 -63 -25 -109.5t-83 -46.5q-35 0 -74.5 26.5t-57.5 26.5q-42 0 -42 -46h-82q-5 63 24.5 109.5t82.5 46.5z" />
    <glyph glyph-name="hungarumlaut" unicode="&#x2dd;" horiz-adv-x="420" 
d="M123 602h-114l62 180h138zM325 602h-114l62 180h138z" />
    <glyph glyph-name="uni0326" unicode="&#x326;" horiz-adv-x="0" 
d="M206 -141v-1q-2 -149 -153 -228v61q53 35 66 90q-34 3 -57.5 28t-23.5 59q0 37 24.5 63t61.5 26q38 0 60 -27t22 -70v-1z" />
    <glyph glyph-name="Omega" unicode="&#x3a9;" horiz-adv-x="798" 
d="M399 726q152 0 242 -98.5t90 -248.5q0 -82 -32 -153.5t-76 -113.5h154v-112h-308v103q58 38 98.5 114t40.5 157q0 107 -56 173.5t-153 66.5t-153 -66.5t-56 -173.5q0 -81 40.5 -157t98.5 -114v-103h-308v112h154q-43 42 -75 113.5t-32 153.5q0 150 89.5 248.5t241.5 98.5
z" />
    <glyph glyph-name="mu" unicode="&#x3bc;" horiz-adv-x="607" 
d="M535 517v-517h-138v52q-39 -63 -134 -63q-26 0 -45 4v-248h-146v772h146v-294q0 -98 83 -98q41 0 64.5 27.5t23.5 72.5v292h146z" />
    <glyph glyph-name="pi" unicode="&#x3c0;" horiz-adv-x="721" 
d="M585 531l112 -65q-39 -133 -162 -133h-8l-22 -181q-6 -39 24 -39q18 0 39 17l65 -85q-51 -54 -125 -54q-67 0 -97 40.5t-22 111.5l22 190h-94l-24 -194q-11 -78 -42 -139h-136l6 12q41 87 50 140l2 10l22 171h-17q-50 0 -88 -49l-67 100q40 40 79 59t105 19h254
q55 0 80.5 16.5t43.5 52.5z" />
    <glyph glyph-name="Wgrave" unicode="&#x1e80;" horiz-adv-x="1125" 
d="M624 795h-133l-194 154h199zM852 0h-130l-159 474l-159 -474h-131l-261 748h168l160 -486l159 486h127l160 -486l159 486h168z" />
    <glyph glyph-name="wgrave" unicode="&#x1e81;" horiz-adv-x="846" 
d="M477 598h-113l-136 191h166zM643 0h-116l-104 274l-104 -274h-116l-198 517h160l101 -296l106 296h102l107 -296l101 296h160z" />
    <glyph glyph-name="Wacute" unicode="&#x1e82;" horiz-adv-x="1125" 
d="M629 795h-133l128 154h199zM852 0h-130l-159 474l-159 -474h-131l-261 748h168l160 -486l159 486h127l160 -486l159 486h168z" />
    <glyph glyph-name="wacute" unicode="&#x1e83;" horiz-adv-x="846" 
d="M479 598h-114l85 191h164zM643 0h-116l-104 274l-104 -274h-116l-198 517h160l101 -296l106 296h102l107 -296l101 296h160z" />
    <glyph glyph-name="Wdieresis" unicode="&#x1e84;" horiz-adv-x="1125" 
d="M467 957q33 0 56.5 -23t23.5 -56t-23.5 -56t-56.5 -23t-56 23t-23 56t23 56t56 23zM660 957q33 0 56 -23t23 -56t-23 -56t-56 -23t-56 23t-23 56t23 56t56 23zM852 0h-130l-159 474l-159 -474h-131l-261 748h168l160 -486l159 486h127l160 -486l159 486h168z" />
    <glyph glyph-name="wdieresis" unicode="&#x1e85;" horiz-adv-x="846" 
d="M327 757q33 0 56.5 -23t23.5 -55q0 -33 -23.5 -56t-56.5 -23t-56 22.5t-23 56.5q0 32 23 55t56 23zM520 757q33 0 56 -23t23 -55q0 -34 -23 -56.5t-56 -22.5t-56 22.5t-23 56.5q0 32 23 55t56 23zM643 0h-116l-104 274l-104 -274h-116l-198 517h160l101 -296l106 296h102
l107 -296l101 296h160z" />
    <glyph glyph-name="Ygrave" unicode="&#x1ef2;" horiz-adv-x="744" 
d="M433 795h-133l-194 154h199zM450 288v-288h-154v288l-284 460h179l181 -307l181 307h180z" />
    <glyph glyph-name="ygrave" unicode="&#x1ef3;" horiz-adv-x="573" 
d="M339 598h-113l-136 191h166zM236 -255h-159l132 301l-202 471h161l119 -308l118 308h162z" />
    <glyph glyph-name="endash" unicode="&#x2013;" horiz-adv-x="566" 
d="M521 194h-476v136h476v-136z" />
    <glyph glyph-name="emdash" unicode="&#x2014;" horiz-adv-x="798" 
d="M753 194h-708v136h708v-136z" />
    <glyph glyph-name="quoteleft" unicode="&#x2018;" horiz-adv-x="224" 
d="M123 625q34 -2 57.5 -27.5t23.5 -60.5q0 -37 -24 -62.5t-61 -25.5q-38 0 -60 26.5t-22 70.5v1v1q2 150 152 227v-60q-53 -35 -66 -90z" />
    <glyph glyph-name="quoteright" unicode="&#x2019;" horiz-adv-x="224" 
d="M106 775q38 0 60 -26.5t22 -70.5q0 -151 -153 -229v61q53 33 66 90q-34 2 -57.5 27t-23.5 60q0 37 24.5 62.5t61.5 25.5z" />
    <glyph glyph-name="quotesinglbase" unicode="&#x201a;" horiz-adv-x="224" 
d="M106 166q38 0 60 -27t22 -71q0 -151 -153 -229v61q53 33 66 90q-34 2 -57.5 27t-23.5 60q0 37 24.5 63t61.5 26z" />
    <glyph glyph-name="quotedblleft" unicode="&#x201c;" horiz-adv-x="433" 
d="M121 624q35 -2 58.5 -27t23.5 -60q0 -37 -24.5 -63t-61.5 -26q-38 0 -60 27t-22 71q0 151 153 229v-61q-52 -33 -67 -90zM330 624q35 -2 58.5 -27t23.5 -60q0 -37 -24.5 -63t-61.5 -26q-38 0 -60 27t-22 71q0 151 153 229v-61q-52 -33 -67 -90z" />
    <glyph glyph-name="quotedblright" unicode="&#x201d;" horiz-adv-x="433" 
d="M104 776q38 0 60 -27t22 -71q0 -151 -153 -229v61q52 33 67 90q-35 2 -58.5 27t-23.5 60q0 37 24.5 63t61.5 26zM313 776q38 0 60 -27t22 -71q0 -151 -153 -229v61q52 33 67 90q-35 2 -58.5 27t-23.5 60q0 37 24.5 63t61.5 26z" />
    <glyph glyph-name="quotedblbase" unicode="&#x201e;" horiz-adv-x="433" 
d="M106 166q38 0 60 -27t22 -71q0 -151 -153 -229v61q53 33 66 90q-34 2 -57.5 27t-23.5 60q0 37 24.5 63t61.5 26zM315 166q38 0 60 -27t22 -71q0 -151 -153 -229v61q52 33 66 90q-34 2 -57.5 27t-23.5 60q0 37 24.5 63t61.5 26z" />
    <glyph glyph-name="dagger" unicode="&#x2020;" horiz-adv-x="534" 
d="M340 556h178v-131h-178v-492h-145v492h-178v131h178v192h145v-192z" />
    <glyph glyph-name="daggerdbl" unicode="&#x2021;" horiz-adv-x="534" 
d="M340 556h178v-131h-178v-169h178v-131h-178v-192h-145v192h-178v131h178v169h-178v131h178v192h145v-192z" />
    <glyph glyph-name="bullet" unicode="&#x2022;" horiz-adv-x="349" 
d="M175 381q52 0 89 -37t37 -89q0 -53 -37 -90t-89 -37q-53 0 -90 37t-37 90t37 89.5t90 36.5z" />
    <glyph glyph-name="ellipsis" unicode="&#x2026;" horiz-adv-x="779" 
d="M126 166q37 0 63 -26t26 -63t-26 -62.5t-63 -25.5t-62.5 25.5t-25.5 62.5t25.5 63t62.5 26zM381 166q37 0 63 -26t26 -63t-26 -62.5t-63 -25.5t-62.5 25.5t-25.5 62.5t25.5 63t62.5 26zM636 166q37 0 63 -26t26 -63t-26 -62.5t-63 -25.5t-62.5 25.5t-25.5 62.5t25.5 63
t62.5 26z" />
    <glyph glyph-name="perthousand" unicode="&#x2030;" horiz-adv-x="1290" 
d="M208 759q77 0 126.5 -51.5t49.5 -136.5q0 -84 -49.5 -136t-126.5 -52t-127 52t-50 136q0 85 50 136.5t127 51.5zM270 0h-141l493 748h141zM208 657q-32 0 -51 -22.5t-19 -63.5q0 -40 19 -63.5t51 -23.5q31 0 50 23t19 64t-18.5 63.5t-50.5 22.5zM685 365q77 0 126.5 -51
t49.5 -136t-49.5 -137t-126.5 -52t-127 52t-50 137q0 84 49.5 135.5t127.5 51.5zM1083 365q77 0 126 -51t49 -136t-49 -137t-126 -52t-127 52t-50 137q0 84 49.5 135.5t127.5 51.5zM685 264q-32 0 -51 -23t-19 -63q0 -41 19 -64t51 -23t50.5 23t18.5 64q0 40 -18.5 63
t-50.5 23zM1083 264q-32 0 -51 -23t-19 -63q0 -41 19 -64t51 -23q31 0 49.5 23t18.5 64q0 40 -18.5 63t-49.5 23z" />
    <glyph glyph-name="guilsinglleft" unicode="&#x2039;" horiz-adv-x="338" 
d="M321 398l-131 -140l131 -140l-104 -92l-202 232l202 232z" />
    <glyph glyph-name="guilsinglright" unicode="&#x203a;" horiz-adv-x="338" 
d="M323 258l-202 -232l-104 92l131 140l-131 140l104 92z" />
    <glyph glyph-name="fraction" unicode="&#x2044;" horiz-adv-x="222" 
d="M-68 0h-148l506 748h149z" />
    <glyph glyph-name="Euro" unicode="&#x20ac;" horiz-adv-x="706" 
d="M609 180l64 -129q-51 -32 -100.5 -47t-119.5 -15q-114 0 -202.5 67t-121.5 188h-119l34 90h70q-1 13 -1 40q0 24 1 35h-104l34 90h84q32 124 121.5 192t205.5 68q117 0 205 -63l-48 -128q-62 54 -150 54q-60 0 -105 -31t-67 -92h295l-34 -90h-280q-1 -11 -1 -35
q0 -14 2 -40h249l-33 -90h-196q23 -58 67.5 -88t102.5 -30q83 0 147 54z" />
    <glyph glyph-name="trademark" unicode="&#x2122;" horiz-adv-x="894" 
d="M361 645h-117v-256h-107v256h-116v103h340v-103zM836 389h-107v148l-81 -144h-48l-81 144v-148h-107v359h91l121 -217l121 217h91v-359z" />
    <glyph glyph-name="estimated" unicode="&#x212e;" horiz-adv-x="604" 
d="M315 541q110 0 180.5 -68.5t70.5 -193.5h-385v-177q0 -45 35 -61q34 -23 99 -23q70 0 126.5 34t93.5 93l26 -17q-91 -141 -246 -141q-120 0 -198.5 76.5t-78.5 199.5q0 124 78.5 201t198.5 77zM315 509q-63 0 -101 -24q-33 -14 -33 -59v-116h254v116q0 28 -6 41.5
t-27 22.5q-33 19 -87 19z" />
    <glyph glyph-name="partialdiff" unicode="&#x2202;" horiz-adv-x="615" 
d="M283 759q289 0 289 -441q0 -159 -71.5 -244t-198.5 -85q-113 0 -187.5 70t-74.5 185q0 109 70.5 174.5t182.5 65.5q70 0 124 -35q-10 173 -130 173q-80 0 -141 -61l-82 127q101 71 219 71zM308 126q49 0 79.5 32t30.5 84v9q-1 51 -32 82t-78 31q-48 0 -79 -32.5
t-31 -85.5q0 -54 30 -87t80 -33z" />
    <glyph glyph-name="product" unicode="&#x220f;" horiz-adv-x="661" 
d="M642 612h-95v-776h-132v776h-170v-776h-131v776h-96v136h624v-136z" />
    <glyph glyph-name="summation" unicode="&#x2211;" horiz-adv-x="600" 
d="M559 612h-335l178 -238l-178 -237h335v-137h-512v113l195 261l-195 261v113h512v-136z" />
    <glyph glyph-name="minus" unicode="&#x2212;" horiz-adv-x="548" 
d="M517 303h-486v136h486v-136z" />
    <glyph glyph-name="radical" unicode="&#x221a;" horiz-adv-x="676" 
d="M656 643l-306 -720l-154 320l-104 -65l-72 114l231 142l96 -213l190 472z" />
    <glyph glyph-name="infinity" unicode="&#x221e;" horiz-adv-x="777" 
d="M556 506q83 0 137 -58.5t54 -143.5q0 -86 -53.5 -145t-137.5 -59q-96 0 -171 89l-14 16l-13 -16q-38 -36 -73.5 -55t-81.5 -19q-77 0 -125 54t-48 134t48.5 134.5t124.5 54.5q83 0 154 -78l12 -14l11 12q43 47 82 70.5t94 23.5zM556 383q-28 0 -50.5 -15.5t-48.5 -47.5
l-13 -18l14 -17q55 -61 98 -61q31 0 49.5 23t18.5 57t-18.5 56.5t-49.5 22.5zM206 374q-28 0 -44.5 -20.5t-16.5 -50.5t16.5 -50t44.5 -20q48 0 85 51l12 18l-12 15q-47 57 -85 57z" />
    <glyph glyph-name="integral" unicode="&#x222b;" horiz-adv-x="336" 
d="M241 759q53 0 107 -18l-24 -111q-28 11 -53 11q-39 0 -39 -49v-600q0 -163 -135 -163q-56 0 -108 18l24 110q28 -10 48 -10q45 0 45 49v601q0 79 34.5 120.5t100.5 41.5z" />
    <glyph glyph-name="approxequal" unicode="&#x2248;" horiz-adv-x="544" 
d="M468 587l66 -97q-72 -93 -161 -93q-43 0 -99.5 29t-89.5 29q-65 0 -108 -53l-66 97q71 92 160 92q40 0 96 -29t92 -29q66 0 110 54zM468 341l66 -97q-71 -92 -161 -92q-43 0 -99.5 28.5t-89.5 28.5q-65 0 -108 -53l-66 97q71 92 160 92q40 0 96 -29t92 -29q66 0 110 54z
" />
    <glyph glyph-name="notequal" unicode="&#x2260;" horiz-adv-x="548" 
d="M352 424l-29 -108h194v-137h-230l-31 -119l-124 30l23 89h-124v137h160l28 108h-188v137h224l31 117l125 -29l-23 -88h129v-137h-165z" />
    <glyph glyph-name="lessequal" unicode="&#x2264;" horiz-adv-x="538" 
d="M507 556l-186 -84l186 -84v-150l-478 234l478 233v-149zM507 57h-478v136h478v-136z" />
    <glyph glyph-name="greaterequal" unicode="&#x2265;" horiz-adv-x="538" 
d="M509 472l-478 -234v150l187 84l-187 84v149zM509 57h-478v136h478v-136z" />
    <glyph glyph-name="lozenge" unicode="&#x25ca;" horiz-adv-x="558" 
d="M530 346l-204 -401h-93l-205 401l205 402h93zM180 346l100 -194l99 194l-99 193z" />
    <glyph glyph-name="fl" unicode="&#xfb02;" horiz-adv-x="670" 
d="M314 783q28 0 51 -3v-126q-18 2 -34 2q-38 0 -62.5 -22.5t-24.5 -59.5v-57h120v-126h-120v-391h-145v391h-94v126h94v53q0 97 58.5 155t156.5 58zM598 0h-146v777h146v-777z" />
    <glyph glyph-name="n.001" horiz-adv-x="618" 
d="M350 527q91 0 146 -54.5t55 -151.5v-321h-146v288q0 49 -24.5 76t-66.5 27q-43 0 -69.5 -28.5t-26.5 -75.5v-287h-146v517h138v-56q16 28 52.5 47t87.5 19z" />
    <glyph glyph-name="germandbls.cap" horiz-adv-x="703" 
d="M338 756q175 0 278 -121l-105 -175q153 -62 153 -219q0 -114 -77 -181.5t-201 -67.5q-53 0 -101 10l30 136q24 -9 65 -9q54 0 89.5 32t35.5 85q0 66 -46 99t-138 51l107 189q-33 35 -96 35q-48 0 -79 -29t-31 -79v-512h-155v510q0 112 77 179t194 67z" />
    <glyph glyph-name="a.sups" horiz-adv-x="457" 
d="M225 757q181 0 181 -167v-257h-123v31q-37 -39 -111 -39q-66 0 -103.5 31.5t-37.5 89.5q0 117 180 128l65 4v21q0 24 -13.5 38.5t-37.5 14.5q-27 0 -41.5 -15t-14.5 -37l-127 4q0 60 50.5 106.5t132.5 46.5zM276 499l-55 -4q-58 -5 -58 -41q0 -35 43 -35q28 -1 49 15.5
t21 46.5v18z" />
    <glyph glyph-name="b.sups" horiz-adv-x="528" 
d="M185 955v-233q37 35 108 35q90 0 145.5 -60t55.5 -157q0 -96 -56 -155.5t-145 -59.5q-77 0 -116 41v-33h-122v622h130zM272 645q-39 0 -63.5 -26t-24.5 -70v-17q0 -44 24.5 -70t63.5 -26q41 0 66 27.5t25 76.5t-25 77t-66 28z" />
    <glyph glyph-name="c.sups" horiz-adv-x="477" 
d="M249 757q78 0 133 -43.5t66 -118.5l-127 -11q-4 28 -23 44.5t-49 16.5q-38 0 -60.5 -27.5t-22.5 -77.5q0 -49 23 -76.5t60 -27.5q30 0 49 16t23 44l127 -11q-11 -74 -66 -117t-133 -43q-95 0 -155 58t-60 157q0 100 60 158.5t155 58.5z" />
    <glyph glyph-name="d.sups" horiz-adv-x="528" 
d="M473 333h-123v33q-37 -41 -116 -41q-89 0 -144.5 59.5t-55.5 155.5q0 97 55.5 157t144.5 60q72 0 109 -35v233h130v-622zM256 645q-41 0 -65.5 -27.5t-24.5 -77.5q0 -49 24.5 -76.5t65.5 -27.5q39 0 63 26t24 70v17q0 44 -24 70t-63 26z" />
    <glyph glyph-name="e.sups" horiz-adv-x="481" 
d="M447 501h-275q2 -33 21 -52.5t54 -19.5q53 0 65 41l131 -7q-10 -62 -64.5 -100t-128.5 -38q-98 0 -157 58t-59 157q0 100 59 158.5t154 58.5q91 0 145.5 -55t54.5 -153v-48zM246 655q-31 0 -50.5 -18.5t-22.5 -50.5h143q-5 69 -70 69z" />
    <glyph glyph-name="f.sups" horiz-adv-x="308" 
d="M258 960q24 0 43 -3v-112q-7 2 -28 2q-29 0 -47.5 -17t-18.5 -43v-39h94v-112h-94v-303h-130v303h-73v112h73v36q0 79 50 127.5t131 48.5z" />
    <glyph glyph-name="g.sups" horiz-adv-x="524" 
d="M234 757q78 0 116 -42v33h123v-428q0 -90 -58 -144t-155 -54t-151 43t-66 119l130 5q2 -27 24 -42.5t58 -15.5q41 0 64.5 20.5t23.5 59.5v48q-38 -34 -109 -34q-89 0 -144.5 59.5t-55.5 155.5q0 97 55.5 157t144.5 60zM256 645q-41 0 -65.5 -27.5t-24.5 -77.5
q0 -49 24.5 -76.5t65.5 -27.5q39 0 63 26t24 70v17q0 44 -24 70t-63 26z" />
    <glyph glyph-name="h.sups" horiz-adv-x="495" 
d="M185 955v-235q35 37 100 37q73 0 117 -44t44 -122v-258h-130v228q0 36 -17 55.5t-47 19.5q-31 0 -49 -20.5t-18 -55.5v-227h-130v622h130z" />
    <glyph glyph-name="i.sups" horiz-adv-x="239" 
d="M120 957q32 0 54 -22.5t22 -54.5t-22 -54t-54 -22t-54.5 22t-22.5 54t22.5 54.5t54.5 22.5zM185 333h-130v415h130v-415z" />
    <glyph glyph-name="j.sups" horiz-adv-x="239" 
d="M119 957q32 0 54.5 -22.5t22.5 -54.5t-22.5 -54t-54.5 -22t-54 22t-22 54t22 54.5t54 22.5zM185 748v-449q0 -80 -49.5 -128t-130.5 -48q-25 0 -44 3v113q12 -3 29 -3q29 0 47 17t18 44v451h130z" />
    <glyph glyph-name="k.sups" horiz-adv-x="475" 
d="M185 610l120 138h157l-152 -177l162 -238h-157l-96 142l-34 -39v-103h-130v622h130v-345z" />
    <glyph glyph-name="l.sups" horiz-adv-x="239" 
d="M185 333h-130v622h130v-622z" />
    <glyph glyph-name="m.sups" horiz-adv-x="743" 
d="M534 757q73 0 115.5 -43.5t42.5 -122.5v-258h-130v228q0 75 -60 75q-30 0 -46.5 -20.5t-16.5 -55.5v-227h-130v228q0 75 -61 75q-30 0 -46.5 -20.5t-16.5 -55.5v-227h-130v415h122v-32q33 41 104 41q87 0 129 -60q44 60 124 60z" />
    <glyph glyph-name="n.sups" horiz-adv-x="497" 
d="M285 757q73 0 117 -44t44 -122v-258h-130v228q0 36 -17 55.5t-47 19.5q-31 0 -49 -20.5t-18 -55.5v-227h-130v415h122v-32q33 41 108 41z" />
    <glyph glyph-name="o.sups" horiz-adv-x="513" 
d="M256 757q98 0 160.5 -60t62.5 -157t-62.5 -156t-160.5 -59t-160 59t-62 156t62.5 157t159.5 60zM256 645q-41 0 -65.5 -28t-24.5 -77q0 -48 24.5 -76t65.5 -28q42 0 67 28t25 76q0 49 -25 77t-67 28z" />
    <glyph glyph-name="p.sups" horiz-adv-x="528" 
d="M293 757q90 0 145.5 -60t55.5 -157q0 -96 -56 -155.5t-145 -59.5q-72 0 -108 34v-230h-130v619h122v-33q40 42 116 42zM272 645q-39 0 -63.5 -26t-24.5 -70v-17q0 -44 24.5 -70t63.5 -26q41 0 66 27.5t25 76.5t-25 77t-66 28z" />
    <glyph glyph-name="q.sups" horiz-adv-x="528" 
d="M234 757q78 0 116 -42v33h123v-619h-130v230q-36 -34 -109 -34q-89 0 -144.5 59.5t-55.5 155.5q0 97 55.5 157t144.5 60zM256 645q-41 0 -65.5 -27.5t-24.5 -77.5q0 -49 24.5 -76.5t65.5 -27.5q39 0 63 26t24 70v17q0 44 -24 70t-63 26z" />
    <glyph glyph-name="r.sups" horiz-adv-x="306" 
d="M292 752v-125q-49 0 -78 -25t-29 -66v-203h-130v415h125v-37q35 41 112 41z" />
    <glyph glyph-name="s.sups" horiz-adv-x="406" 
d="M200 757q79 0 123 -37.5t50 -100.5l-130 -8q-2 46 -43 46q-40 0 -40 -29q0 -4 1 -7.5t3.5 -6t5 -4.5t7 -4t8.5 -3.5t11 -3.5t12 -3t14 -3t15 -4q71 -19 105.5 -45t34.5 -79q0 -65 -45.5 -102.5t-128.5 -37.5q-81 0 -127.5 36t-52.5 102l130 7q2 -46 50 -46q44 0 44 31
q0 15 -13 22t-56 18q-79 19 -113.5 44t-34.5 84q0 62 45.5 98t124.5 36z" />
    <glyph glyph-name="t.sups" horiz-adv-x="327" 
d="M272 441q16 0 36 4v-116q-36 -4 -68 -4q-74 0 -116 35.5t-41 107.5l1 168h-76v112h76l1 136h130l-1 -136h93v-112h-94l-1 -140q0 -55 60 -55z" />
    <glyph glyph-name="u.sups" horiz-adv-x="485" 
d="M430 333h-122v32q-34 -40 -104 -40q-73 0 -113 41t-40 117v265h130v-233q0 -69 57 -69q29 0 45.5 18t16.5 50v234h130v-415z" />
    <glyph glyph-name="v.sups" horiz-adv-x="468" 
d="M285 333h-102l-180 415h142l89 -213l88 213h142z" />
    <glyph glyph-name="w.sups" horiz-adv-x="686" 
d="M523 333h-101l-79 224l-79 -224h-101l-160 415h142l77 -214l76 214h90l77 -214l76 214h142z" />
    <glyph glyph-name="x.sups" horiz-adv-x="451" 
d="M316 542l128 -209h-149l-70 118l-67 -118h-150l127 208l-126 207h148l68 -117l69 117h148z" />
    <glyph glyph-name="y.sups" horiz-adv-x="468" 
d="M197 129h-142l108 250l-158 369h142l87 -213l87 213h142z" />
    <glyph glyph-name="z.sups" horiz-adv-x="370" 
d="M336 658l-159 -220h165v-105h-315v90l159 220h-155v105h305v-90z" />
    <glyph glyph-name="zero.onum" horiz-adv-x="653" 
d="M326 601q128 0 206.5 -82.5t78.5 -222.5q0 -141 -78.5 -224t-206.5 -83t-206 83t-78 224q0 140 78 222.5t206 82.5zM327 465q-59 0 -92.5 -45t-33.5 -124q0 -80 33.5 -125t92.5 -45q57 0 91 45t34 125q0 79 -34 124t-91 45z" />
    <glyph glyph-name="one.onum" horiz-adv-x="393" 
d="M317 0h-154v400l-99 -71l-64 122l204 139h113v-590z" />
    <glyph glyph-name="two.onum" horiz-adv-x="542" 
d="M278 601q112 0 170.5 -56.5t58.5 -151.5q0 -64 -33 -112t-92 -91l-73 -53h202v-137h-462v118l207 144q51 35 73.5 61.5t22.5 66.5q0 74 -71 74q-37 0 -57.5 -25t-21.5 -71l-154 8q1 105 63 165t167 60z" />
    <glyph glyph-name="three.onum" horiz-adv-x="568" 
d="M281 601q110 0 171 -59t61 -160t-82 -154q42 -16 68.5 -59.5t26.5 -104.5q0 -108 -67 -170.5t-177 -62.5q-116 0 -180 61t-67 167l154 9q5 -100 92 -100q43 0 66.5 26t23.5 73q0 46 -27 70t-72 24h-77v132h75q39 0 63.5 23.5t24.5 63.5q0 84 -77 84q-38 0 -59.5 -24
t-23.5 -69l-153 8q2 104 63.5 163t172.5 59z" />
    <glyph glyph-name="four.onum" horiz-adv-x="603" 
d="M469 110h111v-137h-111v-131h-139v131h-303v127l320 490h122v-480zM184 110h145v221z" />
    <glyph glyph-name="five.onum" horiz-adv-x="570" 
d="M300 317q102 0 166 -62t64 -175q0 -114 -67.5 -181.5t-182.5 -67.5q-112 0 -176 59t-67 159l154 9q2 -42 25 -66t65 -24q45 0 69.5 29.5t24.5 78.5t-24 76.5t-66 27.5q-44 0 -80 -26h-143v436h439v-136h-285v-154q36 17 84 17z" />
    <glyph glyph-name="six.onum" horiz-adv-x="608" 
d="M525 748l-186 -259q102 -10 166 -78t64 -171q0 -113 -74 -182t-189 -69q-116 0 -190.5 69t-74.5 182q0 82 55 161l244 347h185zM305 126q48 0 78 32.5t30 86.5q0 55 -29.5 86t-78.5 31q-57 0 -86 -40q-21 -28 -21 -77q0 -54 29.5 -86.5t77.5 -32.5z" />
    <glyph glyph-name="seven.onum" horiz-adv-x="541" 
d="M511 466l-292 -624h-169l292 612h-323v136h492v-124z" />
    <glyph glyph-name="eight.onum" horiz-adv-x="615" 
d="M306 759q106 0 174.5 -57t68.5 -154q0 -96 -72 -148q91 -61 91 -178q0 -107 -73.5 -170t-187.5 -63t-187.5 63t-73.5 170q0 116 90 177q-71 52 -71 149t67.5 154t173.5 57zM307 622q-38 0 -63 -23t-25 -62q0 -37 25 -59.5t63 -22.5q39 0 63.5 22t24.5 60q0 40 -24.5 62.5
t-63.5 22.5zM307 331q-47 0 -77 -27.5t-30 -74.5t30.5 -75t76.5 -28q47 0 77 27.5t30 75.5t-30 75t-77 27z" />
    <glyph glyph-name="nine.onum" horiz-adv-x="608" 
d="M302 601q116 0 190.5 -69t74.5 -182q0 -82 -55 -161l-244 -347h-185l186 259q-102 10 -166 78t-64 171q0 113 74 182t189 69zM303 228q57 0 86 40q21 28 21 77q0 54 -29.5 86.5t-77.5 32.5t-78 -32.5t-30 -86.5q0 -55 29.5 -86t78.5 -31z" />
    <glyph glyph-name="zero.slash" horiz-adv-x="652" 
d="M326 759q128 0 205.5 -101t77.5 -284q0 -182 -77.5 -283.5t-205.5 -101.5q-129 0 -206.5 101.5t-77.5 283.5q0 183 77.5 284t206.5 101zM326 622q-127 0 -127 -248q0 -73 10 -122l177 351q-25 19 -60 19zM326 126q126 0 126 248q0 68 -9 119l-176 -349q25 -18 59 -18z
" />
    <glyph glyph-name="zero.subs" horiz-adv-x="372" 
d="M187 338q72 0 116.5 -56t44.5 -156q0 -101 -44.5 -157t-116.5 -56q-73 0 -118 56t-45 157q0 100 45 156t118 56zM186 238q-26 0 -37 -27t-11 -85t11 -85.5t37 -27.5t37 27.5t11 85.5t-11 85t-37 27z" />
    <glyph glyph-name="one.subs" horiz-adv-x="234" 
d="M202 -80h-112v264l-47 -31l-47 91l135 87h71v-411z" />
    <glyph glyph-name="two.subs" horiz-adv-x="319" 
d="M156 338q69 0 104 -36.5t35 -96.5q0 -68 -63 -138l-43 -48h108v-99h-276v77l130 140q32 34 32 69q0 32 -24 32q-29 0 -29 -37l-110 6q1 60 38 95.5t98 35.5z" />
    <glyph glyph-name="three.subs" horiz-adv-x="329" 
d="M162 338q65 0 100 -33.5t35 -91.5q0 -52 -43 -81q48 -23 48 -87q0 -61 -39 -96.5t-102 -35.5q-67 0 -103.5 35t-37.5 94l113 8q2 -37 28 -37q29 0 29 35q0 36 -34 36h-45v90h43q14 0 24 9t10 24q0 31 -26 31q-27 0 -27 -33l-109 6q0 60 35 93.5t101 33.5z" />
    <glyph glyph-name="four.subs" horiz-adv-x="351" 
d="M290 82h44v-99h-44v-63h-112v63h-164v87l168 261h108v-249zM112 82h66v98z" />
    <glyph glyph-name="five.subs" horiz-adv-x="324" 
d="M175 188q57 0 93 -34t36 -99q0 -66 -39 -104t-105 -38q-64 0 -101 33.5t-38 88.5l111 7q3 -29 29 -29q31 0 31 39q0 36 -31 36q-14 0 -27 -10h-99v253h252v-99h-140v-47q12 3 28 3z" />
    <glyph glyph-name="six.subs" horiz-adv-x="352" 
d="M316 331l-98 -140q49 -11 79 -47.5t30 -88.5q0 -63 -42.5 -102.5t-107.5 -39.5q-66 0 -109 39.5t-43 102.5q0 44 31 91l124 185h136zM176 13q17 0 27.5 12.5t10.5 33.5q0 43 -38 43q-19 0 -29 -13l-1 -1q-8 -14 -8 -29q0 -21 10.5 -33.5t27.5 -12.5z" />
    <glyph glyph-name="seven.subs" horiz-adv-x="316" 
d="M293 244l-140 -324h-123l135 312h-150v99h278v-87z" />
    <glyph glyph-name="eight.subs" horiz-adv-x="354" 
d="M176 338q61 0 101 -33t40 -89q0 -44 -31 -75q43 -37 43 -94q0 -61 -43 -97.5t-109 -36.5q-67 0 -109.5 36.5t-42.5 97.5q0 55 42 93q-31 33 -31 76q0 56 39.5 89t100.5 33zM177 238q-15 0 -25.5 -9.5t-10.5 -26.5q0 -16 10.5 -25t25.5 -9t25 9t10 25q0 17 -10 26.5
t-25 9.5zM177 91q-17 0 -28.5 -10.5t-11.5 -28.5t11.5 -28.5t28.5 -10.5q18 0 28.5 10.5t10.5 28.5t-10.5 28.5t-28.5 10.5z" />
    <glyph glyph-name="nine.subs" horiz-adv-x="352" 
d="M175 338q66 0 109 -39.5t43 -102.5q0 -45 -32 -91l-123 -185h-135l98 140q-50 11 -80 47.5t-30 88.5q0 63 42.5 102.5t107.5 39.5zM176 149q19 0 30 14q8 14 8 29q0 21 -10.5 33.5t-27.5 12.5t-28 -12t-11 -33q0 -44 39 -44z" />
    <glyph glyph-name="zero.sups" horiz-adv-x="372" 
d="M187 820q72 0 116.5 -56t44.5 -156q0 -101 -44.5 -157t-116.5 -56q-73 0 -118 56t-45 157q0 100 45 156t118 56zM186 720q-26 0 -37 -27.5t-11 -84.5q0 -58 11 -85.5t37 -27.5t37 27.5t11 85.5q0 57 -11 84.5t-37 27.5z" />
    <glyph glyph-name="one.sups" horiz-adv-x="234" 
d="M202 402h-112v264l-47 -31l-47 91l135 87h71v-411z" />
    <glyph glyph-name="two.sups" horiz-adv-x="319" 
d="M156 820q69 0 104 -36.5t35 -96.5q0 -68 -63 -138l-43 -48h108v-99h-276v77l130 140q32 34 32 69q0 32 -24 32q-29 0 -29 -37l-110 6q1 60 38 95.5t98 35.5z" />
    <glyph glyph-name="three.sups" horiz-adv-x="329" 
d="M162 820q65 0 100 -33.5t35 -91.5q0 -52 -43 -81q48 -23 48 -87q0 -61 -39 -96.5t-102 -35.5q-67 0 -103.5 35t-37.5 94l113 8q2 -37 28 -37q29 0 29 35q0 36 -34 36h-45v90h43q14 0 24 9t10 24q0 31 -26 31q-27 0 -27 -33l-109 6q0 60 35 93.5t101 33.5z" />
    <glyph glyph-name="four.sups" horiz-adv-x="351" 
d="M290 564h44v-99h-44v-63h-112v63h-164v87l168 261h108v-249zM112 564h66v98z" />
    <glyph glyph-name="five.sups" horiz-adv-x="324" 
d="M175 670q57 0 93 -34t36 -99q0 -66 -39 -104t-105 -38q-64 0 -101 33.5t-38 88.5l111 7q3 -29 29 -29q31 0 31 39q0 36 -31 36q-14 0 -27 -10h-99v253h252v-99h-140v-47q12 3 28 3z" />
    <glyph glyph-name="six.sups" horiz-adv-x="352" 
d="M316 813l-98 -140q49 -11 79 -47.5t30 -88.5q0 -63 -42.5 -102.5t-107.5 -39.5q-66 0 -109 39.5t-43 102.5q0 44 31 91l124 185h136zM176 495q17 0 27.5 12.5t10.5 33.5q0 43 -38 43q-19 0 -29 -13l-1 -1q-8 -14 -8 -29q0 -21 10.5 -33.5t27.5 -12.5z" />
    <glyph glyph-name="seven.sups" horiz-adv-x="316" 
d="M293 726l-140 -324h-123l135 312h-150v99h278v-87z" />
    <glyph glyph-name="eight.sups" horiz-adv-x="354" 
d="M176 820q61 0 101 -33t40 -89q0 -44 -31 -75q43 -37 43 -94q0 -61 -43 -97.5t-109 -36.5q-67 0 -109.5 36.5t-42.5 97.5q0 55 42 93q-31 33 -31 76q0 56 39.5 89t100.5 33zM177 720q-15 0 -25.5 -9.5t-10.5 -26.5q0 -16 10.5 -25t25.5 -9t25 9t10 25q0 17 -10 26.5
t-25 9.5zM177 573q-17 0 -28.5 -10.5t-11.5 -28.5t11.5 -28.5t28.5 -10.5q18 0 28.5 10.5t10.5 28.5t-10.5 28.5t-28.5 10.5z" />
    <glyph glyph-name="nine.sups" horiz-adv-x="352" 
d="M175 820q66 0 109 -39.5t43 -102.5q0 -45 -32 -91l-123 -185h-135l98 140q-50 11 -80 47.5t-30 88.5q0 63 42.5 102.5t107.5 39.5zM176 631q19 0 30 14q8 14 8 29q0 21 -10.5 33.5t-27.5 12.5t-28 -12t-11 -33q0 -44 39 -44z" />
    <glyph glyph-name="zero.tnum" horiz-adv-x="650" 
d="M324 759q128 0 206 -101t78 -284q0 -182 -78 -283.5t-206 -101.5t-206 101.5t-78 283.5q0 183 78 284t206 101zM324 622q-126 0 -126 -248t126 -248q127 0 127 248t-127 248z" />
    <glyph glyph-name="one.tnum" horiz-adv-x="650" 
d="M436 137h130v-137h-430v137h146v417l-100 -68l-66 120l207 142h113v-611z" />
    <glyph glyph-name="two.tnum" horiz-adv-x="650" 
d="M330 759q109 0 169 -55.5t60 -157.5q0 -83 -34.5 -146t-99.5 -132l-123 -131h261v-137h-462v121l206 227q57 61 77 99.5t20 91.5q0 39 -18.5 61t-52.5 22q-77 0 -79 -105l-154 9q2 109 62 171t168 62z" />
    <glyph glyph-name="three.tnum" horiz-adv-x="650" 
d="M325 759q110 0 171 -59t61 -160t-82 -154q41 -16 68 -59.5t27 -104.5q0 -108 -67 -170.5t-177 -62.5q-116 0 -180 61t-67 167l154 9q5 -100 92 -100q43 0 66.5 26t23.5 73q0 46 -27 70t-72 24h-77v132h75q39 0 63.5 23.5t24.5 63.5q0 84 -77 84q-38 0 -59.5 -24
t-23.5 -69l-153 8q2 104 63.5 163t172.5 59z" />
    <glyph glyph-name="four.tnum" horiz-adv-x="650" 
d="M485 268h111v-137h-111v-131h-139v131h-303v127l320 490h122v-480zM200 268h146v221z" />
    <glyph glyph-name="five.tnum" horiz-adv-x="650" 
d="M340 475q102 0 166 -62t64 -175q0 -114 -67.5 -181.5t-183.5 -67.5q-111 0 -175 59t-67 159l154 9q2 -42 25 -66t64 -24q46 0 70.5 29.5t24.5 78.5t-24 76.5t-66 27.5q-44 0 -80 -26h-143v436h438v-136h-284v-154q36 17 84 17z" />
    <glyph glyph-name="six.tnum" horiz-adv-x="650" 
d="M544 748l-186 -259q101 -10 165.5 -78t64.5 -171q0 -112 -74.5 -181.5t-188.5 -69.5q-116 0 -190.5 69t-74.5 182q0 82 55 161l244 347h185zM324 126q48 0 78 32.5t30 86.5q0 55 -29.5 86t-78.5 31q-57 0 -86 -40q-22 -30 -22 -77q0 -54 30 -86.5t78 -32.5z" />
    <glyph glyph-name="seven.tnum" horiz-adv-x="650" 
d="M558 624l-292 -624h-170l292 612h-322v136h492v-124z" />
    <glyph glyph-name="eight.tnum" horiz-adv-x="650" 
d="M324 759q106 0 174.5 -57t68.5 -154q0 -96 -72 -148q91 -61 91 -178q0 -107 -73.5 -170t-187.5 -63t-187.5 63t-73.5 170q0 116 90 177q-72 52 -72 149t68 154t174 57zM325 622q-38 0 -63 -23t-25 -62q0 -37 25 -59.5t63 -22.5q39 0 63.5 22t24.5 60q0 40 -24.5 62.5
t-63.5 22.5zM325 331q-47 0 -77 -27t-30 -75t30 -75.5t77 -27.5t77 27.5t30 75.5t-30 75t-77 27z" />
    <glyph glyph-name="nine.tnum" horiz-adv-x="650" 
d="M325 759q116 0 190.5 -69t74.5 -182q0 -82 -55 -161l-244 -347h-185l186 259q-101 10 -165.5 78t-64.5 171q0 112 74.5 181.5t188.5 69.5zM326 386q57 0 86 40q22 30 22 77q0 54 -30 86.5t-78 32.5t-78 -32.5t-30 -86.5q0 -55 29.5 -86t78.5 -31z" />
    <glyph glyph-name="zero.dnom" horiz-adv-x="372" 
d="M187 418q72 0 116.5 -56t44.5 -156q0 -101 -44.5 -157t-116.5 -56q-73 0 -118 56t-45 157q0 100 45 156t118 56zM186 318q-26 0 -37 -27t-11 -85t11 -85.5t37 -27.5t37 27.5t11 85.5t-11 85t-37 27z" />
    <glyph glyph-name="one.dnom" horiz-adv-x="234" 
d="M202 0h-112v264l-47 -31l-47 91l135 87h71v-411z" />
    <glyph glyph-name="two.dnom" horiz-adv-x="319" 
d="M156 418q69 0 104 -36.5t35 -96.5q0 -68 -63 -138l-43 -48h108v-99h-276v77l130 140q32 34 32 69q0 32 -24 32q-29 0 -29 -37l-110 6q1 60 38 95.5t98 35.5z" />
    <glyph glyph-name="three.dnom" horiz-adv-x="329" 
d="M162 418q65 0 100 -33.5t35 -91.5q0 -52 -43 -81q48 -23 48 -87q0 -61 -39 -96.5t-102 -35.5q-67 0 -103.5 35t-37.5 94l113 8q2 -37 28 -37q29 0 29 35q0 36 -34 36h-45v90h43q14 0 24 9t10 24q0 31 -26 31q-27 0 -27 -33l-109 6q0 60 35 93.5t101 33.5z" />
    <glyph glyph-name="four.dnom" horiz-adv-x="351" 
d="M290 162h44v-99h-44v-63h-112v63h-164v87l168 261h108v-249zM112 162h66v98z" />
    <glyph glyph-name="five.dnom" horiz-adv-x="324" 
d="M175 268q57 0 93 -34t36 -99q0 -66 -39 -104t-105 -38q-64 0 -101 33.5t-38 88.5l111 7q3 -29 29 -29q31 0 31 39q0 36 -31 36q-14 0 -27 -10h-99v253h252v-99h-140v-47q12 3 28 3z" />
    <glyph glyph-name="six.dnom" horiz-adv-x="352" 
d="M316 411l-98 -140q49 -11 79 -47.5t30 -88.5q0 -63 -42.5 -102.5t-107.5 -39.5q-66 0 -109 39.5t-43 102.5q0 44 31 91l124 185h136zM176 93q17 0 27.5 12.5t10.5 33.5q0 43 -38 43q-19 0 -29 -13l-1 -1q-8 -14 -8 -29q0 -21 10.5 -33.5t27.5 -12.5z" />
    <glyph glyph-name="seven.dnom" horiz-adv-x="316" 
d="M293 324l-140 -324h-123l135 312h-150v99h278v-87z" />
    <glyph glyph-name="eight.dnom" horiz-adv-x="354" 
d="M176 418q61 0 101 -33t40 -89q0 -44 -31 -75q43 -37 43 -94q0 -61 -43 -97.5t-109 -36.5q-67 0 -109.5 36.5t-42.5 97.5q0 55 42 93q-31 33 -31 76q0 56 39.5 89t100.5 33zM177 318q-15 0 -25.5 -9.5t-10.5 -26.5q0 -16 10.5 -25t25.5 -9t25 9t10 25q0 17 -10 26.5
t-25 9.5zM177 171q-17 0 -28.5 -10.5t-11.5 -28.5t11.5 -28.5t28.5 -10.5q18 0 28.5 10.5t10.5 28.5t-10.5 28.5t-28.5 10.5z" />
    <glyph glyph-name="nine.dnom" horiz-adv-x="352" 
d="M175 418q66 0 109 -39.5t43 -102.5q0 -45 -32 -91l-123 -185h-135l98 140q-50 11 -80 47.5t-30 88.5q0 63 42.5 102.5t107.5 39.5zM176 229q19 0 30 14q8 14 8 29q0 21 -10.5 33.5t-27.5 12.5t-28 -12t-11 -33q0 -44 39 -44z" />
    <glyph glyph-name="zero.numr" horiz-adv-x="372" 
d="M187 739q72 0 116.5 -56t44.5 -156q0 -101 -44.5 -157t-116.5 -56q-73 0 -118 56t-45 157q0 100 45 156t118 56zM186 639q-26 0 -37 -27.5t-11 -84.5q0 -58 11 -85.5t37 -27.5t37 27.5t11 85.5q0 57 -11 84.5t-37 27.5z" />
    <glyph glyph-name="one.numr" horiz-adv-x="234" 
d="M202 322h-112v264l-47 -31l-47 91l135 87h71v-411z" />
    <glyph glyph-name="two.numr" horiz-adv-x="319" 
d="M156 739q69 0 104 -36.5t35 -96.5q0 -68 -63 -138l-43 -48h108v-99h-276v77l130 140q32 34 32 69q0 32 -24 32q-29 0 -29 -37l-110 6q1 60 38 95.5t98 35.5z" />
    <glyph glyph-name="three.numr" horiz-adv-x="329" 
d="M162 739q65 0 100 -33.5t35 -91.5q0 -52 -43 -81q48 -23 48 -87q0 -61 -39 -96.5t-102 -35.5q-67 0 -103.5 35t-37.5 94l113 8q2 -37 28 -37q29 0 29 35q0 36 -34 36h-45v90h43q14 0 24 9t10 24q0 31 -26 31q-27 0 -27 -33l-109 6q0 60 35 93.5t101 33.5z" />
    <glyph glyph-name="four.numr" horiz-adv-x="351" 
d="M290 483h44v-99h-44v-63h-112v63h-164v87l168 261h108v-249zM112 483h66v98z" />
    <glyph glyph-name="five.numr" horiz-adv-x="324" 
d="M175 590q57 0 93 -34t36 -99q0 -66 -39 -104t-105 -38q-64 0 -101 33.5t-38 88.5l111 7q3 -29 29 -29q31 0 31 39q0 36 -31 36q-14 0 -27 -10h-99v253h252v-99h-140v-47q12 3 28 3z" />
    <glyph glyph-name="six.numr" horiz-adv-x="352" 
d="M316 732l-98 -140q49 -11 79 -47.5t30 -88.5q0 -63 -42.5 -102.5t-107.5 -39.5q-66 0 -109 39.5t-43 102.5q0 44 31 91l124 185h136zM176 414q17 0 27.5 12.5t10.5 33.5q0 43 -38 43q-19 0 -29 -13l-1 -1q-8 -14 -8 -29q0 -21 10.5 -33.5t27.5 -12.5z" />
    <glyph glyph-name="seven.numr" horiz-adv-x="316" 
d="M293 646l-140 -324h-123l135 312h-150v99h278v-87z" />
    <glyph glyph-name="eight.numr" horiz-adv-x="354" 
d="M176 739q61 0 101 -33t40 -89q0 -44 -31 -75q43 -37 43 -94q0 -61 -43 -97.5t-109 -36.5q-67 0 -109.5 36.5t-42.5 97.5q0 56 42 93q-31 33 -31 76q0 56 39.5 89t100.5 33zM177 639q-15 0 -25.5 -9.5t-10.5 -26.5q0 -16 10.5 -25t25.5 -9t25 9t10 25q0 17 -10 26.5
t-25 9.5zM177 492q-17 0 -28.5 -10.5t-11.5 -28.5t11.5 -28.5t28.5 -10.5q18 0 28.5 10.5t10.5 28.5t-10.5 28.5t-28.5 10.5z" />
    <glyph glyph-name="nine.numr" horiz-adv-x="352" 
d="M175 739q66 0 109 -39.5t43 -102.5q0 -45 -32 -91l-123 -185h-135l98 140q-50 11 -80 47.5t-30 88.5q0 63 42.5 102.5t107.5 39.5zM176 550q19 0 30 14q8 14 8 29q0 21 -10.5 33.5t-27.5 12.5t-28 -12t-11 -33q0 -44 39 -44z" />
    <glyph glyph-name="periodcentered.cap" horiz-adv-x="269" 
d="M126 529q37 0 63 -26t26 -63t-26 -62.5t-63 -25.5t-62.5 25.5t-25.5 62.5t25.5 63t62.5 26z" />
    <glyph glyph-name="exclamdown.cap" horiz-adv-x="324" 
d="M163 582q-37 0 -63 26t-26 63t26 62.5t63 25.5q36 0 61.5 -25.5t25.5 -62.5t-25.5 -63t-61.5 -26zM85 520h154l8 -520h-170z" />
    <glyph glyph-name="questiondown.cap" horiz-adv-x="535" 
d="M267 582q-37 0 -63 26t-26 63t26 62.5t63 25.5t62.5 -25.5t25.5 -62.5t-25.5 -63t-62.5 -26zM267 -12q-116 0 -183.5 61.5t-67.5 165.5q0 39 16 72t33.5 51t49.5 43q39 31 56.5 53.5t17.5 53.5v32h155v-38q0 -44 -24.5 -78t-71.5 -74q-37 -31 -55.5 -56t-18.5 -57
q0 -43 25 -68t68 -25t69 26.5t29 73.5l154 -10q-4 -103 -73 -164.5t-179 -61.5z" />
    <glyph glyph-name="braceleft.cap" horiz-adv-x="303" 
d="M282 649h-6q-45 0 -58.5 -28.5t-2.5 -101.5q5 -39 4.5 -69.5t-18.5 -51.5t-54 -25q36 -4 54 -25.5t18.5 -52t-4.5 -69.5q-11 -73 2.5 -101.5t58.5 -28.5h6v-121h-6q-112 0 -170.5 60.5t-34.5 176.5q16 55 8 78t-54 23h-8v119h8q46 0 54 23t-8 78q-24 116 34.5 176.5
t170.5 60.5h6v-121z" />
    <glyph glyph-name="braceright.cap" horiz-adv-x="303" 
d="M21 770h6q112 0 170.5 -60.5t34.5 -176.5q-16 -55 -8 -78t54 -23h8v-119h-8q-46 0 -54 -23t8 -78q24 -116 -34.5 -176.5t-170.5 -60.5h-6v121h6q45 0 58.5 28.5t2.5 101.5q-5 39 -4.5 69.5t18 52t53.5 25.5q-36 4 -53.5 25t-18 51.5t4.5 69.5q11 73 -2.5 101.5
t-58.5 28.5h-6v121z" />
    <glyph glyph-name="bracketleft.cap" horiz-adv-x="307" 
d="M287 649h-89v-553h89v-121h-234v795h234v-121z" />
    <glyph glyph-name="bracketright.cap" horiz-adv-x="319" 
d="M255 -25h-234v121h88v553h-88v121h234v-795z" />
    <glyph glyph-name="parenleft.cap" horiz-adv-x="298" 
d="M156 777l126 -44q-100 -173 -100 -371t100 -371l-126 -44q-119 179 -119 415t119 415z" />
    <glyph glyph-name="parenright.cap" horiz-adv-x="293" 
d="M17 733l126 44q119 -182 119 -415t-119 -415l-126 44q99 175 99 371t-99 371z" />
    <glyph glyph-name="emdash.cap" horiz-adv-x="798" 
d="M753 309h-708v136h708v-136z" />
    <glyph glyph-name="endash.cap" horiz-adv-x="566" 
d="M521 309h-476v136h476v-136z" />
    <glyph glyph-name="hyphen.cap" horiz-adv-x="406" 
d="M361 309h-316v136h316v-136z" />
    <glyph glyph-name="guillemotleft.cap" horiz-adv-x="581" 
d="M294 550l-117 -163l117 -163l-116 -72l-163 235l163 235zM564 550l-116 -163l116 -163l-116 -72l-163 235l163 235z" />
    <glyph glyph-name="guillemotright.cap" horiz-adv-x="581" 
d="M296 387l-163 -235l-116 72l117 163l-117 163l116 72zM566 387l-163 -235l-116 72l117 163l-117 163l116 72z" />
    <glyph glyph-name="guilsinglleft.cap" horiz-adv-x="338" 
d="M321 527l-131 -140l131 -140l-104 -92l-202 232l202 232z" />
    <glyph glyph-name="guilsinglright.cap" horiz-adv-x="338" 
d="M323 387l-202 -232l-104 92l131 140l-131 140l104 92z" />
    <glyph glyph-name="emdash_guilsinglright" horiz-adv-x="885" 
d="M850 260l-238 -263l-103 91l105 113h-569v120h567l-103 109l103 92z" />
    <glyph glyph-name="endash_guilsinglright" horiz-adv-x="615" 
d="M580 260l-238 -263l-102 91l105 113h-300v120h297l-102 109l102 92z" />
    <glyph glyph-name="guilsinglleft_emdash" horiz-adv-x="885" 
d="M376 430l-102 -109h566v-120h-569l105 -113l-103 -91l-238 263l238 262z" />
    <glyph glyph-name="guilsinglleft_endash" horiz-adv-x="615" 
d="M376 430l-102 -109h296v-120h-300l106 -113l-103 -91l-238 263l238 262z" />
    <glyph glyph-name="at.cap" horiz-adv-x="803" 
d="M401 734q158 0 261 -102t103 -258q0 -103 -42.5 -156t-117.5 -53q-77 0 -103 51q-48 -54 -127 -54q-85 0 -138 58t-53 153q0 96 53 154t138 58q80 0 117 -46v31h106v-290q0 -39 35 -39q28 0 45 34t17 99q0 126 -84 210t-210 84q-127 0 -210 -84t-83 -210
q0 -130 84.5 -211.5t202.5 -81.5q104 0 179 44l23 -65q-82 -46 -202 -46q-151 0 -254 101t-103 259q0 156 102.5 258t260.5 102zM487 365v17q0 49 -25.5 76.5t-68.5 27.5q-44 0 -69.5 -29.5t-25.5 -83.5q0 -53 26 -83t69 -30t68.5 28t25.5 77z" />
    <glyph glyph-name="acute.case" horiz-adv-x="346" 
d="M142 797h-133l128 154h199z" />
    <glyph glyph-name="breve.case" horiz-adv-x="391" 
d="M263 963h118q0 -81 -50.5 -123t-135.5 -42q-84 0 -134.5 42t-50.5 123h118q0 -30 18.5 -47t48.5 -17q31 0 49.5 17t18.5 47z" />
    <glyph glyph-name="caron.case" horiz-adv-x="392" 
d="M267 797h-141l-117 160h122l65 -75l64 75h123z" />
    <glyph glyph-name="circumflex.case" horiz-adv-x="392" 
d="M383 797h-123l-64 75l-65 -75h-122l117 160h141z" />
    <glyph glyph-name="dieresis.case" horiz-adv-x="371" 
d="M89 959q33 0 56.5 -23t23.5 -56t-23.5 -56t-56.5 -23t-56 23t-23 56t23 56t56 23zM282 959q33 0 56 -23t23 -56t-23 -56t-56 -23t-56 23t-23 56t23 56t56 23z" />
    <glyph glyph-name="dotaccent.case" horiz-adv-x="195" 
d="M97 975q37 0 62.5 -25.5t25.5 -62.5t-25.5 -62t-62.5 -25q-36 0 -61.5 25t-25.5 62t26 62.5t61 25.5z" />
    <glyph glyph-name="grave.case" horiz-adv-x="346" 
d="M337 797h-133l-194 154h199z" />
    <glyph glyph-name="hungarumlaut.case" horiz-adv-x="419" 
d="M122 800h-113l61 169h138zM324 800h-113l61 169h138z" />
    <glyph glyph-name="macron.case" horiz-adv-x="317" 
d="M308 817h-300v111h300v-111z" />
    <glyph glyph-name="ring.case" horiz-adv-x="249" 
d="M126 1010q47 0 80 -30.5t33 -77.5q0 -46 -33 -76.5t-80 -30.5q-49 0 -82.5 30.5t-33.5 76.5q0 47 33.5 77.5t82.5 30.5zM126 943q-19 0 -30.5 -11.5t-11.5 -29.5q0 -17 11.5 -28t30.5 -11q17 0 28 11t11 28q0 18 -11 29.5t-28 11.5z" />
    <glyph glyph-name="tilde.case" horiz-adv-x="384" 
d="M117 961q35 0 74.5 -26.5t58.5 -26.5q40 0 42 46h82q5 -63 -25 -109t-83 -46q-35 0 -74.5 26.5t-57.5 26.5q-42 0 -42 -46h-82q-5 63 24.5 109t82.5 46z" />
    <glyph glyph-name="anneau" horiz-adv-x="595" 
d="M298 761q115 0 192.5 -73t77.5 -183t-77.5 -183t-192.5 -73q-117 0 -194 73t-77 183t77 183t194 73zM298 711q-95 0 -154.5 -58t-59.5 -148t59.5 -148t154.5 -58q94 0 153.5 58t59.5 148t-59.5 148t-153.5 58z" />
    <glyph glyph-name="null" horiz-adv-x="600" 
 />
    </font>
</defs>
</svg>
