<svg xmlns="http://www.w3.org/2000/svg" width="18" height="18" viewBox="0 0 18 18">
    <path fill="#1B1B1B" fill-rule="nonzero" d="M16.915 16.227s-1.409-1.224-1.068-2.907l1.4-5.228C18.16 4.69 16.181 1.205 12.83.307 9.478-.591 6.022 1.438 5.111 4.84L3.71 10.068c-.544 1.628-2.31 1.97-2.38 1.983a.753.753 0 0 0-.074 1.463L6.4 14.893c-.214 1.261.553 2.474 1.77 2.8 1.219.327 2.489-.34 2.935-1.54l5.143 1.379a.753.753 0 0 0 .667-1.305zm-13.29-3.63a4.241 4.241 0 0 0 1.496-2.085l1.418-5.29c.697-2.6 3.34-4.153 5.902-3.466 2.563.687 4.075 3.352 3.379 5.953L14.402 13a4.241 4.241 0 0 0 .253 2.553l-11.03-2.956z"/>
</svg>
