<svg xmlns="http://www.w3.org/2000/svg" width="29" height="23" viewBox="0 0 29 21">
    <g fill="#1B1B1B" fill-rule="nonzero">
        <path d="M25.53 0H3.221A3.222 3.222 0 0 0 0 3.222v14.522a3.222 3.222 0 0 0 3.222 3.216h22.307a3.222 3.222 0 0 0 3.216-3.216V3.222A3.222 3.222 0 0 0 25.53 0zM2.655 2.016h23.098c.47.004.85.39.85.866v1.883H1.8V2.882a.86.86 0 0 1 .856-.866zM25.754 18.96H2.656a.86.86 0 0 1-.856-.86V8.5h24.804V18.1a.86.86 0 0 1-.85.86z"/>
        <path d="M11.079 11.229h-4.94a.898.898 0 0 0 0 1.796h4.94a.898.898 0 0 0 0-1.796z"/>
    </g>
</svg>
