<svg xmlns="http://www.w3.org/2000/svg" width="15" height="15" viewBox="0 0 15 15">
    <g fill="#000" fill-rule="nonzero">
        <path d="M2.196 2.198A7.453 7.453 0 0 1 7.501 0c2.004 0 3.886.782 5.304 2.198 2.733 2.733 2.931 7.098.496 10.057.336.688.732 1.146 1.182 1.366.273.135.427.43.383.732a.696.696 0 0 1-.584.587c-.167.025-.346.041-.532.041-.92 0-1.888-.317-2.696-.873A7.512 7.512 0 0 1 7.501 15a7.45 7.45 0 0 1-5.305-2.195A7.449 7.449 0 0 1 0 7.503c0-2 .78-3.888 2.196-5.305zm.6 10.004a6.612 6.612 0 0 0 4.705 1.947 6.654 6.654 0 0 0 3.368-.914.439.439 0 0 1 .214-.06c.09 0 .185.032.26.088.962.745 1.93.854 2.354.864-.506-.377-.93-.961-1.285-1.775a.427.427 0 0 1 .072-.452 6.656 6.656 0 0 0-.28-9.108A6.612 6.612 0 0 0 7.501.845a6.612 6.612 0 0 0-4.704 1.947C.2 5.39.2 9.611 2.797 12.202z"/>
        <path d="M4.37 4.737h6.26c.235 0 .423.175.423.395 0 .219-.188.394-.423.394H4.37c-.235 0-.423-.175-.423-.394 0-.22.191-.395.423-.395zM4.37 7.105h6.26c.235 0 .423.176.423.395 0 .22-.188.395-.423.395H4.37c-.235 0-.423-.176-.423-.395 0-.22.191-.395.423-.395zM4.37 9.474h6.26c.235 0 .423.175.423.394 0 .22-.188.395-.423.395H4.37c-.235 0-.423-.175-.423-.395 0-.219.191-.394.423-.394z"/>
    </g>
</svg>
