<svg xmlns="http://www.w3.org/2000/svg" width="78" height="78" viewBox="0 0 78 78">
    <g fill="none" fill-rule="evenodd" transform="translate(1 1)">
        <path fill="#4AB047" fill-rule="nonzero" d="M38.389 43.729a1.162 1.162 0 0 1-.862-.403l-4.889-5.461a1.482 1.482 0 0 1 0-1.932 1.134 1.134 0 0 1 1.73 0l4.02 4.499 6.466-7.223a1.134 1.134 0 0 1 1.73 0 1.482 1.482 0 0 1 0 1.932l-7.334 8.192a1.16 1.16 0 0 1-.861.396z"/>
        <circle cx="38.5" cy="37.5" r="22.5" stroke="#7ED321" stroke-width=".8" opacity=".3"/>
        <circle cx="38.5" cy="37.5" r="27.5" stroke="#7ED321" stroke-width=".3" opacity=".5"/>
        <circle cx="38" cy="38" r="38" stroke="#7ED321" stroke-width=".2" opacity=".4"/>
    </g>
</svg>
