<svg xmlns="http://www.w3.org/2000/svg" width="27" height="18" viewBox="0 0 27 18">
    <path fill="#FFF" fill-rule="nonzero" d="M26.008 1.035a.807.807 0 0 0 0-.114V.823l-.033-.102-.043-.098a.38.38 0 0 0-.081-.081.542.542 0 0 0-.06-.103l-.027-.044-.038-.032c0-.033-.054-.054-.081-.081a.477.477 0 0 0-.081-.065l-.098-.06-.081-.049-.092-.038a.412.412 0 0 0-.109-.032H1.037L.917 0H.827a.358.358 0 0 0-.109.033L.625.108l-.081.05-.098.059a.33.33 0 0 0-.081.065.574.574 0 0 0-.081.081L.246.395.219.44a.542.542 0 0 0-.06.103.38.38 0 0 0-.049.092L.067.73.035.834.002.921a.807.807 0 0 0 0 .114v15.218c0 .598.485 1.083 1.084 1.083h23.838c.599 0 1.084-.485 1.084-1.083V1.083v-.048zM21.89 2.167l-7.216 5.905c-.972.791-2.366.791-3.338 0L4.12 2.167h17.77zM2.17 15.169V3.37l7.796 6.383a4.806 4.806 0 0 0 6.078 0l7.797-6.382v11.8H2.169z"/>
</svg>
