<svg xmlns="http://www.w3.org/2000/svg" width="18" height="22" viewBox="0 0 18 22">
    <g fill="#000" fill-rule="nonzero">
        <path d="M17.1 2.292h-4.5V.917A.908.908 0 0 0 11.7 0H6.3c-.497 0-.9.41-.9.917v1.375H.9c-.497 0-.9.41-.9.916 0 .507.403.917.9.917h.945L2.7 21.129c.024.488.42.872.9.871h10.8c.48 0 .876-.383.9-.87l.855-17.005h.945c.497 0 .9-.41.9-.917a.908.908 0 0 0-.9-.916zm-3.555 17.875h-9.09l-.81-16.042h10.71l-.81 16.042z"/>
        <path d="M7.5 18c.276 0 .5-.308.5-.688V7.688C8 7.308 7.776 7 7.5 7s-.5.308-.5.688v9.625c0 .38.224.687.5.687zM10.5 18c.276 0 .5-.308.5-.688V7.688c0-.38-.224-.687-.5-.687s-.5.308-.5.688v9.625c0 .38.224.687.5.687z"/>
    </g>
</svg>
