<svg xmlns="http://www.w3.org/2000/svg" width="38" height="38" viewBox="0 0 38 38">
    <g fill="none" fill-rule="evenodd" transform="translate(1 1)">
        <circle cx="18" cy="18" r="18" stroke="#1B1B1B"/>
        <path fill="#000000" d="M26.504 11.277a7.313 7.313 0 0 1-2.347.92A3.639 3.639 0 0 0 21.463 11c-2.04 0-3.694 1.696-3.694 3.787 0 .297.033.586.096.863-3.069-.158-5.79-1.666-7.611-3.958-.318.559-.5 1.21-.5 1.904 0 1.315.653 2.474 1.643 3.152a3.618 3.618 0 0 1-1.672-.475c0 1.882 1.273 3.412 2.961 3.762a3.6 3.6 0 0 1-1.668.064c.47 1.504 1.833 2.6 3.449 2.631A7.295 7.295 0 0 1 9 24.3a10.268 10.268 0 0 0 5.66 1.7c6.793 0 10.507-5.77 10.507-10.776l-.012-.49A7.547 7.547 0 0 0 27 12.775c-.662.3-1.373.505-2.12.596a3.792 3.792 0 0 0 1.624-2.094z"/>
    </g>
</svg>
