<svg xmlns="http://www.w3.org/2000/svg" width="17" height="20" viewBox="0 0 17 20">
    <path fill="#000" fill-rule="nonzero" d="M14.598 2.396h-3.272C11.163 1.05 9.96 0 8.5 0S5.837 1.05 5.674 2.396H2.402C1.077 2.396 0 3.421 0 4.681v.117c0 .963.63 1.787 1.518 2.123v10.794c0 1.26 1.077 2.285 2.401 2.285h9.162c1.324 0 2.401-1.025 2.401-2.285V6.921C16.37 6.585 17 5.761 17 4.798v-.117c0-1.26-1.077-2.285-2.402-2.285zM8.5 1.084c.83 0 1.522.565 1.675 1.312h-3.35c.153-.747.846-1.312 1.675-1.312zm5.843 16.631c0 .662-.566 1.201-1.262 1.201H3.919c-.696 0-1.262-.539-1.262-1.201V7.083h11.686v10.632zm1.518-12.917c0 .663-.567 1.202-1.263 1.202H2.402c-.697 0-1.263-.54-1.263-1.202v-.117c0-.662.566-1.201 1.263-1.201h12.196c.697 0 1.263.539 1.263 1.201v.117z"/>
</svg>
