<svg xmlns="http://www.w3.org/2000/svg" width="24" height="17" viewBox="0 0 24 17">
    <g fill="#000" fill-rule="nonzero">
        <path d="M23.795 7.555l-3.335-4.33a1 1 0 0 0-.795-.39h-4.75V1a1 1 0 0 0-1-1H1a1 1 0 1 0 0 2h11.915v11h-5.09a3 3 0 0 0-5.65 0H1a1 1 0 0 0 0 2h1.175a3 3 0 0 0 5.65 0h7.35a3 3 0 0 0 5.65 0H23a1 1 0 0 0 1-1V8.165a1.03 1.03 0 0 0-.205-.61zM5 15a1 1 0 1 1 0-2 1 1 0 0 1 0 2zm13 0a1 1 0 1 1 0-2 1 1 0 0 1 0 2zm4-2h-1.175a3 3 0 0 0-5.65 0h-.26V4.835h4.26L22 8.5V13z"/>
        <path d="M.75 5.79h6.71a.75.75 0 0 0 0-1.5H.75a.75.75 0 0 0 0 1.5zM.75 8.79h4.21a.75.75 0 0 0 0-1.5H.75a.75.75 0 0 0 0 1.5z"/>
    </g>
</svg>
