<svg xmlns="http://www.w3.org/2000/svg" width="20" height="20" viewBox="0 0 20 20">
    <g fill="#EF4B4B" fill-rule="nonzero">
        <path d="M17.153 3.718A9.5 9.5 0 1 0 3.718 17.153 9.5 9.5 0 0 0 17.153 3.718zM4.837 16.033A7.917 7.917 0 1 1 16.033 4.837 7.917 7.917 0 0 1 4.837 16.033z"/>
        <path d="M13.954 12.81l-2.376-2.375 2.376-2.375a.808.808 0 0 0-1.144-1.144l-2.375 2.376L8.06 6.916A.808.808 0 1 0 6.916 8.06l2.376 2.375-2.376 2.375a.808.808 0 0 0 1.144 1.144l2.375-2.376 2.375 2.376a.808.808 0 0 0 1.144-1.144z"/>
    </g>
</svg>
