<svg xmlns="http://www.w3.org/2000/svg" width="12" height="12" viewBox="0 0 12 12">
    <path fill="#1B1B1B" fill-rule="nonzero" d="M5.906 0a5.906 5.906 0 1 0 0 11.813A5.906 5.906 0 0 0 5.907 0zm1.23 9.153c-.304.12-.546.211-.728.274a1.92 1.92 0 0 1-.631.095c-.368 0-.655-.09-.859-.27a.87.87 0 0 1-.305-.683c0-.108.007-.218.022-.33.016-.112.04-.238.074-.379l.38-1.344c.034-.129.063-.252.086-.365a1.62 1.62 0 0 0 .034-.317c0-.171-.035-.291-.106-.358-.071-.068-.206-.101-.406-.101-.099 0-.2.014-.303.045-.103.032-.192.06-.264.088l.1-.414c.249-.102.487-.189.715-.26.228-.073.442-.11.645-.11.365 0 .647.09.846.265a.88.88 0 0 1 .297.689c0 .058-.007.161-.02.308a2.064 2.064 0 0 1-.077.405l-.378 1.34c-.031.108-.059.231-.083.369a1.946 1.946 0 0 0-.037.313c0 .178.04.299.12.364.079.064.217.097.413.097a1.78 1.78 0 0 0 .566-.133l-.101.412zm-.067-5.439a.903.903 0 0 1-.638.247.913.913 0 0 1-.64-.246.785.785 0 0 1-.267-.597c0-.232.09-.432.267-.598a.906.906 0 0 1 .64-.248c.248 0 .462.082.638.248a.792.792 0 0 1 .264.598.785.785 0 0 1-.264.597z"/>
</svg>
