<svg xmlns="http://www.w3.org/2000/svg" width="38" height="38" viewBox="0 0 38 38">
    <g fill="none" fill-rule="evenodd" transform="translate(1 1)">
        <circle cx="18" cy="18" r="18" stroke="#1B1B1B"/>
        <path fill="#000" fill-rule="nonzero" d="M24.773 10c.63 0 1.143.513 1.143 1.143v8.844c0 .63-.512 1.144-1.143 1.144h-2.599v-5.118a2.19 2.19 0 0 0-2.187-2.187h-5.201v-2.683c0-.63.513-1.143 1.143-1.143h8.844zm-4.786 4.87c.63 0 1.144.512 1.144 1.143v8.844c0 .63-.513 1.143-1.144 1.143h-8.844c-.63 0-1.143-.513-1.143-1.143v-8.844c0-.63.513-1.144 1.143-1.144h8.844z"/>
    </g>
</svg>
