<svg xmlns="http://www.w3.org/2000/svg" width="27" height="23" viewBox="0 0 27 23">
    <path fill="#1B1B1B" fill-rule="nonzero" d="M25.518 10.46h-.752V5.488c0-.606-.49-1.098-1.097-1.098h-.834V1.098C22.835.49 22.343 0 21.737 0H3.293A3.293 3.293 0 0 0 0 3.293v18.11c0 .606.491 1.097 1.098 1.097h22.57c.607 0 1.098-.491 1.098-1.098v-4.664h.752a.823.823 0 0 0 .823-.823v-4.632a.823.823 0 0 0-.823-.823zM3.293 2.195H20.64V4.39H3.293a1.098 1.098 0 1 1 0-2.195zm19.278 18.11H2.195V6.393c.352.126.724.191 1.098.192H22.57v3.875H21.54a3.139 3.139 0 0 0 0 6.278h1.031v3.567zm2.124-5.214H21.54a1.493 1.493 0 0 1 0-2.985h3.155v2.985z"/>
</svg>
