<svg id="Layer_1" data-name="Layer 1" xmlns="http://www.w3.org/2000/svg" viewBox="0 0 94.76 24.21" width="96px" height="27px">
    <defs><style>.cls-1{fill:#169ad7;}.cls-2{fill:#243d80;}.cls-3{fill:#252e65;}</style></defs><title>paypal</title>
    <path class="cls-1" d="M73.87,7.71H68.75a1,1,0,0,0-.75.6L65.9,21.55a.39.39,0,0,0,.33.45h2.82a.41.41,0,0,0,.46-.34v-.11l.6-3.76a.69.69,0,0,1,.75-.61h1.65q5.19,0,5.87-5a4,4,0,0,0-.6-3.31,6.08,6.08,0,0,0-3.91-1.2m.6,5c-.3,1.81-1.66,1.81-3,1.81h-.9l.6-3.46c0-.15.15-.3.45-.3h.3c.9,0,1.81,0,2.26.6.3.15.3.6.3,1.35" transform="translate(-0.62 -1.39)"/><path class="cls-2" d="M37,7.71H31.9a1,1,0,0,0-.75.6l-2.1,13.24a.4.4,0,0,0,.33.45H31.9a1,1,0,0,0,.76-.6l.6-3.61a.69.69,0,0,1,.75-.61h1.65q5.19,0,5.87-5a4,4,0,0,0-.6-3.31A5.79,5.79,0,0,0,37,7.71m.6,5c-.3,1.81-1.65,1.81-3,1.81h-.75l.6-3.46c0-.15.15-.3.45-.3h.3c.91,0,1.81,0,2.26.6a1.61,1.61,0,0,1,.15,1.35" transform="translate(-0.62 -1.39)"/><path class="cls-2" d="M52.51,12.52H50.1c-.15,0-.45.15-.45.3l-.15.76-.15-.31a3.54,3.54,0,0,0-2.86-1,5.78,5.78,0,0,0-5.56,5,4.5,4.5,0,0,0,.9,3.76A3.78,3.78,0,0,0,45,22.15a4.79,4.79,0,0,0,3.46-1.36l-.15.76a.4.4,0,0,0,.34.45H51a1,1,0,0,0,.75-.6L53.11,13c-.15-.15-.45-.45-.6-.45m-3.46,4.82a2.9,2.9,0,0,1-2.86,2.4,2.39,2.39,0,0,1-1.65-.6,3.2,3.2,0,0,1-.45-1.8,2.68,2.68,0,0,1,4.36-1.81,2.63,2.63,0,0,1,.6,1.81" transform="translate(-0.62 -1.39)"/><path class="cls-1" d="M89.21,12.52H86.8c-.15,0-.45.15-.45.3l-.15.76-.15-.31a3.54,3.54,0,0,0-2.86-1,5.78,5.78,0,0,0-5.56,5,4.46,4.46,0,0,0,.9,3.76,3.76,3.76,0,0,0,3.16,1.21,4.82,4.82,0,0,0,3.46-1.36l-.15.76a.4.4,0,0,0,.33.45H87.7a1,1,0,0,0,.76-.6L89.81,13c-.15-.15-.3-.45-.6-.45m-3.46,4.82a2.9,2.9,0,0,1-2.86,2.4,2.37,2.37,0,0,1-1.65-.6,3.2,3.2,0,0,1-.45-1.8,2.68,2.68,0,0,1,4.36-1.81,1.74,1.74,0,0,1,.6,1.81" transform="translate(-0.62 -1.39)"/><path class="cls-2" d="M65.6,12.52H63a.8.8,0,0,0-.6.3l-3.31,5.12-1.51-4.82a.69.69,0,0,0-.75-.45h-2.4c-.31,0-.46.3-.46.6l2.71,8-2.56,3.61c-.15.3,0,.75.31.75h2.4a.8.8,0,0,0,.6-.3l8.28-11.89c.45-.45.15-.9-.15-.9" transform="translate(-0.62 -1.39)"/><path class="cls-1" d="M92.07,8.16,90,21.7a.4.4,0,0,0,.34.45h2.22a1,1,0,0,0,.75-.6l2.1-13.24A.39.39,0,0,0,95,7.86a.24.24,0,0,0-.12,0h-2.4c-.15-.15-.3,0-.45.3" transform="translate(-0.62 -1.39)"/><path class="cls-2" d="M17.92,3.2c-1.06-1.21-3-1.81-5.72-1.81H4.68a1.29,1.29,0,0,0-1,.9L.62,22a.69.69,0,0,0,.6.75H5.89l1.2-7.37v.3a1.29,1.29,0,0,1,1.05-.9H10.4c4.36,0,7.67-1.81,8.72-6.77V7.56h0a5.25,5.25,0,0,0-1.2-4.36" transform="translate(-0.62 -1.39)"/><path class="cls-1" d="M19,7.56h0V8c-1,5.11-4.36,6.77-8.72,6.77H8a1.29,1.29,0,0,0-1,.9L5.43,24.86a.56.56,0,0,0,.5.6h4a.84.84,0,0,0,.9-.75v-.16l.75-4.66v-.3a.84.84,0,0,1,.9-.75h.6c3.76,0,6.77-1.5,7.52-6,.31-1.8.16-3.46-.75-4.51a1.52,1.52,0,0,0-.9-.75" transform="translate(-0.62 -1.39)"/><path class="cls-3" d="M17.92,7.11c-.15,0-.3-.15-.45-.15A.59.59,0,0,1,17,6.81a7.92,7.92,0,0,0-2-.15H9.19a.54.54,0,0,0-.45.15.83.83,0,0,0-.45.75l-1.2,7.82v.3a1.29,1.29,0,0,1,1.05-.9H10.4c4.36,0,7.67-1.81,8.72-6.77a.57.57,0,0,1,.15-.45c-.3-.15-.45-.3-.75-.3s-.45-.15-.6-.15" transform="translate(-0.62 -1.39)"/>
</svg>