<svg xmlns="http://www.w3.org/2000/svg" width="17" height="17" viewBox="0 0 17 17">
    <path fill="#000" fill-rule="nonzero" d="M16.377 2.125L14.874.623a2.12 2.12 0 0 0-3.004 0L2.748 9.746c-.415.414-1.685 2.02-1.685 2.563L0 17l4.69-1.062s2.15-1.27 2.566-1.684l9.122-9.123c.83-.83.83-2.177-.001-3.006zM1.409 15.591l.69-3.047a.868.868 0 0 0 .02-.132c.002-.007.01-.016.011-.023l2.403 2.403-.242.145-2.882.654zM6.505 13.5c-.12.115-.536.396-1.044.72l-2.753-2.754c.282-.387.596-.776.789-.97l6.87-6.87L13.37 6.63 6.505 13.5zm9.12-9.12L14.124 5.88 11.12 2.876l1.502-1.502c.2-.201.467-.31.751-.31.285 0 .552.11.751.31l1.503 1.502c.2.2.31.467.31.751 0 .283-.11.552-.31.751z"/>
</svg>
