<svg xmlns="http://www.w3.org/2000/svg" width="20" height="21" viewBox="0 0 20 21">
    <g fill="#1B1B1B" fill-rule="nonzero" opacity=".48">
        <path d="M13.46 2v2.615c2.428 1.23 4.092 3.71 4.092 6.577 0 4.09-3.38 7.406-7.55 7.406-4.171 0-7.553-3.317-7.553-7.406 0-2.628 1.403-4.933 3.507-6.247V2.227C2.45 3.751 0 7.189 0 11.193 0 16.609 4.477 21 10 21c5.525 0 10-4.39 10-9.807 0-4.224-2.728-7.81-6.54-9.193z"/>
        <path d="M9.999 12c.909 0 1.001-.633 1.001-1.411V1.414C11 .634 10.908 0 9.999 0 9.093 0 9 .634 9 1.414v9.175c0 .779.093 1.411.999 1.411z"/>
    </g>
</svg>
