<svg xmlns="http://www.w3.org/2000/svg" width="20" height="17" viewBox="0 0 20 17">
    <g fill="#1B1B1B" fill-rule="nonzero">
        <path d="M19.167 4.339h-2.5a.83.83 0 0 0-.834.826.83.83 0 0 0 .834.826h1.666v8.677H1.667V5.991h1.666a.83.83 0 0 0 .834-.826.83.83 0 0 0-.834-.826h-2.5A.83.83 0 0 0 0 5.165v10.33a.83.83 0 0 0 .833.826h18.334a.83.83 0 0 0 .833-.826V5.165a.83.83 0 0 0-.833-.826z"/>
        <path d="M7.2 4.272l2.175-2.156V9.71c0 .342.28.62.625.62a.622.622 0 0 0 .625-.62V2.116L12.8 4.272a.625.625 0 0 0 1.019-.2.616.616 0 0 0-.136-.676L10.442.182a.6.6 0 0 0-.867 0L6.317 3.396a.616.616 0 0 0 .271 1.054.628.628 0 0 0 .612-.178z"/>
    </g>
</svg>
