<svg xmlns="http://www.w3.org/2000/svg" width="20" height="17" viewBox="0 0 20 17">
    <path fill="#000" fill-rule="nonzero" d="M19.844 16.712a.554.554 0 0 0 .046-.058l.046-.074s.025-.041.033-.062c.009-.02 0-.045 0-.066 0-.02 0-.058.03-.09a.233.233 0 0 0 0-.054 1.012 1.012 0 0 0 0-.112.449.449 0 0 0 0-.074.494.494 0 0 0 0-.079l-.627-3.277a2.896 2.896 0 0 0-1.72-2.117l-3.877-1.651a4.244 4.244 0 0 0 .605-2.188V4.334C14.38 1.94 12.418 0 9.998 0S5.615 1.94 5.615 4.334V6.81c.014.771.237 1.524.647 2.18l-3.877 1.65a2.896 2.896 0 0 0-1.72 2.118l-.663 3.269a.494.494 0 0 0 0 .078.449.449 0 0 0 0 .075 1.012 1.012 0 0 0 0 .111.233.233 0 0 0 0 .054c0 .033 0 .057.029.09.029.033 0 .042.02.066.022.025.026.042.034.062l.046.075c.014.02.03.04.046.057a.757.757 0 0 0 .054.067l.059.05.066.049.063.053.088.05h.046l.116.033a.785.785 0 0 0 .142 0h18.39a.785.785 0 0 0 .142 0l.117-.033h.046l.113-.05.054-.029.067-.05.058-.049a.754.754 0 0 0 .046-.074zM7.322 4.33c0-1.482 1.215-2.683 2.713-2.683 1.499 0 2.713 1.201 2.713 2.683v2.476c0 1.482-1.214 2.683-2.713 2.683-1.498 0-2.713-1.201-2.713-2.683V4.33zM3.04 12.172l4.316-1.862.058-.029a4.397 4.397 0 0 0 5.21 0l.058.03 4.332 1.84c.384.162.661.503.739.908l.442 2.307H1.842l.443-2.307c.077-.405.355-.746.738-.908l.017.02z"/>
</svg>
